<?xml version="1.0" standalone="no"?>
<!DOCTYPE svg PUBLIC "-//W3C//DTD SVG 1.1//EN" "http://www.w3.org/Graphics/SVG/1.1/DTD/svg11.dtd" >
<svg xmlns="http://www.w3.org/2000/svg" xmlns:xlink="http://www.w3.org/1999/xlink" version="1.1">
<metadata>
Created by FontForge 20170731 at Sat Jan  5 20:41:25 2002
 By Aleksey,,,
Copyright 1997 Bigelow &#38; Holmes Inc. U.S. Pat. Des. 289,420. All rights reserved.
</metadata>
<defs>
<font id="LucidaGrande-Bold" horiz-adv-x="0" >
  <font-face 
    font-family="Lucida Grande"
    font-weight="700"
    font-stretch="normal"
    units-per-em="2048"
    panose-1="0 0 0 0 0 0 0 0 0 0"
    ascent="1638"
    descent="-410"
    x-height="1098"
    cap-height="1480"
    bbox="-1511 -790 3410 2048"
    underline-thickness="100"
    underline-position="-351"
    unicode-range="U+0020-FFF0"
  />
<missing-glyph horiz-adv-x="1024" 
d="M877 0h-730v1552h730v-1552zM727 1402h-430v-1252h430v1252z" />
    <glyph glyph-name="uniFB57" unicode="&#x67e;" horiz-adv-x="2495" arabic-form="final" 
d="M2014 765h259v-196q0 -169 41 -221t174 -52h32v-296h-85q-185 0 -303 113.5t-118 290.5v42q-245 -226 -557 -348.5t-646 -122.5q-377 0 -571 134q-154 106 -154 339q0 102 20 268h197l-1 -87q0 -159 54 -227q106 -131 530 -131q688 0 1128 494zM645 -345l148 148
l148 -148l-148 -148zM990 -345l148 148l148 -148l-148 -148zM818 -605l148 149l148 -149l-148 -148z" />
    <glyph glyph-name="uniFB58" unicode="&#x67e;" horiz-adv-x="747" arabic-form="initial" 
d="M-25 0v296h76q178 0 338 78l2 48l2 78q0 227 -82 438h311q39 -174 39 -320q0 -304 -164.5 -461t-481.5 -157h-40zM28 -345l148 148l148 -148l-148 -148zM374 -345l148 148l148 -148l-148 -148zM201 -605l148 149l148 -149l-148 -148z" />
    <glyph glyph-name="uniFB59" unicode="&#x67e;" horiz-adv-x="938" arabic-form="medial" 
d="M-25 0v296h49q132 0 303 67q12 106 12 201v201h259v-249q0 -145 53.5 -182.5t260.5 -37.5h50v-296h-52q-207 0 -292 39.5t-174 174.5q-157 -214 -399 -214h-70zM148 -345l148 148l148 -148l-148 -148zM493 -345l148 148l148 -148l-148 -148zM321 -605l148 149l148 -149
l-148 -148z" />
    <glyph glyph-name="uniFB67" unicode="&#x679;" horiz-adv-x="2495" arabic-form="final" 
d="M2014 765h259v-196q0 -169 41 -221t174 -52h32v-296h-85q-185 0 -303 113.5t-118 290.5v42q-245 -226 -557 -348.5t-646 -122.5q-377 0 -571 134q-154 106 -154 339q0 102 20 268h197l-1 -87q0 -159 54 -227q106 -131 530 -131q688 0 1128 494zM656 962v118h148v388h111
v-252q106 102 207 102q84 0 134.5 -53.5t50.5 -143.5q0 -159 -241 -159h-410zM912 1080h274l-1 19q-5 105 -79 105q-95 0 -194 -124z" />
    <glyph glyph-name="uniFB68" unicode="&#x679;" horiz-adv-x="747" arabic-form="initial" 
d="M-25 0v296h76q178 0 338 78l2 48l2 78q0 227 -82 438h311q39 -174 39 -320q0 -304 -164.5 -461t-481.5 -157h-40zM64 1135v117h148v389h111v-253q106 103 207 103q84 0 134.5 -53.5t50.5 -143.5q0 -159 -241 -159h-410zM320 1252h274l-1 20q-6 105 -79 105
q-95 0 -194 -125z" />
    <glyph glyph-name="uniFB69" unicode="&#x679;" horiz-adv-x="938" arabic-form="medial" 
d="M-25 0v296h49q132 0 303 67q12 106 12 201v201h259v-249q0 -145 53.5 -182.5t260.5 -37.5h50v-296h-52q-207 0 -292 39.5t-174 174.5q-157 -214 -399 -214h-70zM153 962v118h148v388h111v-252q106 102 208 102q84 0 134 -53.5t50 -143.5q0 -159 -241 -159h-410zM410 1080
h273l-1 19q-5 105 -78 105q-95 0 -194 -124z" />
    <glyph glyph-name="uniFB6B" unicode="&#x6a4;" horiz-adv-x="2743" arabic-form="final" 
d="M114 716h197q-16 -113 -16 -176q0 -180 167 -252t582 -72q497 0 888 80q-109 118 -109 244q0 163 163.5 305t351.5 142q123 0 196.5 -73.5t73.5 -197.5q0 -213 -239 -420h398v-296h-102q-202 0 -315 25t-206 91q-507 -196 -1163 -196q-498 0 -696.5 114t-198.5 400
q0 130 28 282zM2222 407q114 82 168 131q-17 202 -146 202q-90 0 -190 -94q92 -161 168 -239zM2004 1332l148 148l148 -148l-148 -148zM2349 1332l148 148l148 -148l-148 -148zM2176 1592l148 148l148 -148l-148 -149z" />
    <glyph glyph-name="uniFB6C" unicode="&#x6a4;" horiz-adv-x="1035" arabic-form="initial" 
d="M-25 0v296h661q12 66 17 109q-63 -10 -119 -10q-389 0 -389 254q0 222 150 403.5t333 181.5q320 0 320 -553q0 -397 -197 -531q-221 -150 -633 -150h-143zM683 693l1 46q0 237 -113 237q-130 0 -190 -251q78 -34 246 -34zM326 1382l148 148l148 -148l-148 -148zM672 1382
l148 148l148 -148l-148 -148zM499 1592l148 148l148 -148l-148 -149z" />
    <glyph glyph-name="uniFB6D" unicode="&#x6a4;" horiz-adv-x="1117" arabic-form="medial" 
d="M1141 296v-296h-103q-202 0 -315 25t-206 91q-176 -116 -468 -116h-74v296h330q-109 118 -109 244q0 163 163.5 305t351.5 142q124 0 197 -73.5t73 -198.5q0 -212 -239 -419h399zM595 407q115 82 168 131q-16 202 -146 202q-90 0 -190 -94q91 -160 168 -239zM377 1332
l148 148l148 -148l-148 -148zM722 1332l148 148l148 -148l-148 -148zM550 1592l147 148l149 -148l-149 -149z" />
    <glyph glyph-name="uniFB7B" unicode="&#x686;" horiz-adv-x="1339" arabic-form="final" 
d="M1125 605v-158q0 -103 27.5 -127t143.5 -24h67v-296h-131q-175 0 -252 90t-77 293v222q-240 -86 -334 -164q-221 -185 -221 -487q0 -448 545 -448q190 0 439 67v-223q-235 -140 -485 -140q-346 0 -552.5 191.5t-206.5 512.5q0 491 508 745l-50 3l-118 9q-79 5 -135 5
q-94 0 -214 -41v254q97 36 207 36q84 0 185 -7l193 -13q254 -17 560 -17h83v-283h-182zM376 -25l148 148l148 -148l-148 -148zM722 -25l148 148l148 -148l-148 -148zM549 -234l148 148l148 -148l-148 -148z" />
    <glyph glyph-name="uniFB7C" unicode="&#x686;" horiz-adv-x="1469" arabic-form="initial" 
d="M-25 0v296h349q134 0 210.5 19.5t270.5 103.5q22 9 66 28q-408 127 -622 127q-67 0 -194 -15v266q85 14 157 14q218 0 538 -98l145 -45l71 -21l151 -45q177 -50 326 -50h20v-272h-80q-258 0 -409 -71l-105 -51l-91 -44l-92 -46q-197 -96 -469 -96h-242zM279 -345l148 148
l148 -148l-148 -148zM624 -345l148 148l148 -148l-148 -148zM451 -605l148 149l148 -149l-148 -148z" />
    <glyph glyph-name="uniFB7D" unicode="&#x686;" horiz-adv-x="1534" arabic-form="medial" 
d="M-25 0v296h514q253 0 385 41q-331 172 -478.5 220t-346.5 48v283q272 0 563.5 -122t710.5 -412l84 -58h151v-296h-45q-106 0 -174 27.5t-184 115.5q-19 15 -58 44q-299 -187 -672 -187h-450zM282 -345l148 148l148 -148l-148 -148zM628 -345l148 148l148 -148l-148 -148z
M455 -605l148 149l148 -149l-148 -148z" />
    <glyph glyph-name="uniFB89" unicode="&#x688;" horiz-adv-x="1341" arabic-form="final" 
d="M816 314q7 66 7 95q0 107 -20 206l-106 532h263l122 -631q24 -124 76.5 -172t164.5 -48h42v-296h-44q-134 0 -204 42t-157 172q-66 -140 -158.5 -189.5t-289.5 -49.5q-237 0 -459 64v305q213 -73 452 -73q161 0 311 43zM491 1234v117h148v389h111v-253q107 102 207 102
q84 0 134.5 -53t50.5 -143q0 -159 -241 -159h-410zM747 1351h274l-1 20q-5 105 -79 105q-95 0 -194 -125z" />
    <glyph glyph-name="uniFB8B" unicode="&#x698;" horiz-adv-x="1174" arabic-form="final" 
d="M669 92q-89 244 -294 525h359l35 -54q29 -45 42 -66l34 -58l20 -30q73 -113 295 -113h39v-296h-41q-145 0 -274 92q-50 -246 -178.5 -433t-429.5 -449h-548q465 343 640 507t301 375zM134 962l148 148l148 -148l-148 -148zM479 962l148 148l148 -148l-148 -148zM307 1221
l147 148l149 -148l-149 -148z" />
    <glyph glyph-name="uniFB8D" unicode="&#x691;" horiz-adv-x="1174" arabic-form="final" 
d="M669 92q-89 244 -294 525h359l35 -54q29 -45 42 -66l34 -58l20 -30q73 -113 295 -113h39v-296h-41q-145 0 -274 92q-50 -246 -178.5 -433t-429.5 -449h-548q465 343 640 507t301 375zM231 962v118h148v388h111v-252q106 102 207 102q84 0 134.5 -53.5t50.5 -142.5
q0 -160 -241 -160h-410zM487 1080h274l-1 19q-6 105 -79 105q-94 0 -194 -124z" />
    <glyph glyph-name="uniFB93" unicode="&#x6af;" horiz-adv-x="2403" arabic-form="final" 
d="M1273 1371l1037 369v-158l-1037 -369v158zM105 716h197l-2 -87q0 -159 55 -227q105 -131 608 -131q361 0 685 75q-19 155 -52 222.5t-149 192.5l-174 185v177l1037 369v-212l-730 -259l427 -459q146 -156 226 -211t163 -55h32v-296h-57q-134 0 -238.5 60.5t-215.5 202.5
l-54 68q-60 -147 -200 -217q-276 -139 -872 -139q-366 0 -535.5 116t-169.5 366q0 90 19 259z" />
    <glyph glyph-name="uniFB94" unicode="&#x6af;" horiz-adv-x="1148" arabic-form="initial" 
d="M135 1371l1037 369v-158l-1037 -369v158zM741 349q-185 454 -606 597v177l1037 369v-212l-692 -246q208 -109 347.5 -288t139.5 -336q0 -170 -130 -285q-88 -78 -201 -101.5t-399 -23.5h-262v296h333q275 0 433 53z" />
    <glyph glyph-name="uniFB95" unicode="&#x6af;" horiz-adv-x="1243" arabic-form="medial" 
d="M1268 296v-296h-57q-254 0 -455 263l-67 88l1 -31q0 -115 -89 -203q-69 -69 -154 -92.5t-264 -23.5l-208 -1v296h113q196 0 390 30q0 148 -34 225.5t-157 209.5l-174 185v177l1037 369v-212l-730 -259l427 -459q146 -157 226 -211.5t163 -54.5h32zM113 1371l1037 369
v-158l-1037 -369v158z" />
    <glyph glyph-name="uniFB9F" unicode="&#x6ba;" horiz-adv-x="2055" arabic-form="final" 
d="M147 352h197q-30 -131 -30 -292q0 -430 513 -430q346 0 640 162q18 146 18 267q0 266 -150 607h326q63 -174 81 -304q122 -66 288 -66h50v-296h-53q-168 0 -265 49q-31 -344 -293 -530t-715 -186q-668 0 -668 613q0 188 61 406z" />
    <glyph glyph-name="uniFBA4" unicode="&#x6c0;" horiz-adv-x="1111" arabic-form="isolated" 
d="M549 987q255 -142 365 -270t110 -282q0 -193 -154.5 -326.5t-378.5 -133.5q-190 0 -297.5 93.5t-107.5 258.5q0 347 463 660zM500 685q-136 -153 -136 -291q0 -147 163 -147q152 0 249 87q0 165 -276 351zM796 1386v-154l-518 -134v153l242 62q-150 74 -150 173
q0 111 121 182.5t308 71.5v-146q-188 -12 -289 -102q120 -106 286 -106z" />
    <glyph glyph-name="uniFBA5" unicode="&#x6c0;" horiz-adv-x="1163" arabic-form="final" 
d="M685 1110h259v-546l5 -93q5 -101 45 -138t146 -37h48v-296h-109q-216 0 -305 70t-89 240v90q-89 -203 -290 -203q-129 0 -225 76.5t-96 180.5q0 132 165.5 286.5t445.5 283.5v86zM685 808q-196 -112 -337 -254q70 -85 150 -85q72 0 178 77q3 28 3 37l3 46q3 52 3 54v125z
M1005 1386v-154l-518 -134v153l242 62q-149 74 -149 173q0 111 120.5 182.5t307.5 71.5v-146q-188 -12 -288 -102q120 -106 285 -106z" />
    <glyph glyph-name="uniFBA8" unicode="&#x6c1;" horiz-adv-x="747" arabic-form="initial" 
d="M-25 0v296h76q178 0 338 78l2 48l2 78q0 227 -82 438h311q39 -174 39 -320q0 -304 -164.5 -461t-481.5 -157h-40zM331 -148q-69 -178 -104 -301q64 -49 157 -74v-267q-154 43 -246.5 116.5t-92.5 152.5q0 123 131 373h155z" />
    <glyph glyph-name="uniFBA9" unicode="&#x6c1;" horiz-adv-x="1496" arabic-form="medial" 
d="M1521 296v-296h-28q-115 0 -179 30l-36 17l-44 20q-94 44 -141 44q-83 0 -142.5 -110t-59.5 -265q0 -135 84 -229v-297q-520 135 -520 855q0 63 9 128q-124 -129 -196 -161t-238 -32h-55v296h47q178 0 321 93.5t473 424.5q-131 -335 -131 -680q0 -140 54 -288
q-3 50 -3 77q0 199 102.5 341.5t246.5 142.5q80 0 180 -52q38 -20 41 -21l35 -14q26 -11 49 -13l54 -7q36 -4 59 -4h18z" />
    <glyph glyph-name="uniFBAF" unicode="&#x6d2;" horiz-adv-x="1717" arabic-form="final" 
d="M1742 296v-296h-303q-549 0 -762.5 -53.5t-363.5 -227.5q64 -57 165 -73t387 -16h593v-296h-799q-334 0 -453.5 60.5t-119.5 230.5q0 314 350 510q167 94 366.5 127.5t586.5 33.5h353z" />
    <glyph glyph-name="uniFC08" unicode="&#xfc08;" horiz-adv-x="1208" arabic-form="isolated" 
d="M604 91q-155 -49 -155 -226q0 -38 5 -93q5 -69 9 -133q5 -102 7 -117q5 -68 5 -89v-223h-260v225q0 62 -4 121l-12 162l-8 114q-6 84 -6 137q0 237 199 338q-74 94 -74 190q0 205 184.5 347.5t451.5 142.5q122 0 238 -35v-324q-132 63 -293 63q-231 0 -376 -178
q48 -75 124 -135q85 5 119 5q126 0 216 -48v-254q-109 -34 -189 -34q-81 0 -181 44zM727 -345l148 148l148 -148l-148 -148z" />
    <glyph glyph-name="uniFC0B" unicode="&#xfc0b;" horiz-adv-x="1339" arabic-form="isolated" 
d="M1308 419h-96q-375 0 -546 -71q-145 -61 -228.5 -178.5t-83.5 -261.5q0 -195 141 -298t407 -103q182 0 431 66v-223q-236 -140 -488 -140q-325 0 -537.5 178.5t-212.5 451.5q0 366 367 579h-376v247q65 0 115 27.5t170 127.5q53 44 77 63l65 53q196 158 318 202.5
t357 44.5v-407h-223v106h-20q-78 0 -174 -49.5t-244 -167.5h781v-247zM682 1530l148 148l148 -148l-148 -148zM1027 1530l148 148l148 -148l-148 -148zM765 0l148 148l148 -148l-148 -148z" />
    <glyph glyph-name="uniFC0C" unicode="&#xfc0c;" horiz-adv-x="1339" arabic-form="isolated" 
d="M1308 419h-96q-375 0 -546 -71q-145 -61 -228.5 -178.5t-83.5 -261.5q0 -195 141 -298t407 -103q182 0 431 66v-223q-236 -140 -488 -140q-325 0 -537.5 178.5t-212.5 451.5q0 366 367 579h-376v247q65 0 115 27.5t170 127.5q53 44 77 63l65 53q196 158 318 202.5
t357 44.5v-407h-223v106h-20q-78 0 -174 -49.5t-244 -167.5h781v-247zM682 1530l148 148l148 -148l-148 -148zM1027 1530l148 148l148 -148l-148 -148z" />
    <glyph glyph-name="uniFC0E" unicode="&#xfc0e;" horiz-adv-x="1208" arabic-form="isolated" 
d="M604 91q-155 -49 -155 -226q0 -38 5 -93q5 -69 9 -133q5 -102 7 -117q5 -68 5 -89v-223h-260v225q0 62 -4 121l-12 162l-8 114q-6 84 -6 137q0 237 199 338q-74 94 -74 190q0 205 184.5 347.5t451.5 142.5q122 0 238 -35v-324q-132 63 -293 63q-231 0 -376 -178
q48 -75 124 -135q85 5 119 5q126 0 216 -48v-254q-109 -34 -189 -34q-81 0 -181 44zM567 1332l148 148l148 -148l-148 -148zM913 1332l147 148l149 -148l-149 -148z" />
    <glyph glyph-name="uniFC48" unicode="&#xfc48;" horiz-adv-x="1225" arabic-form="isolated" 
d="M666 376q76 7 108 7q110 0 200 -48v-254q-109 -34 -189 -34q-84 0 -177 47q-159 -68 -159 -230q0 -37 5 -92q5 -68 9 -133q5 -101 7 -117q5 -68 5 -89v-223h-260v225q0 62 -4 121l-12 162l-8 114q-6 82 -6 135q0 224 213 352q-89 125 -89 230q0 297 373 438v296l57 -40
q269 -188 461 -231v-210h-67q-240 0 -381.5 -52t-243.5 -178q70 -123 158 -196z" />
    <glyph glyph-name="uniFC4B" unicode="&#xfc4b;" horiz-adv-x="1339" arabic-form="isolated" 
d="M1308 419h-96q-375 0 -546 -71q-145 -61 -228.5 -178.5t-83.5 -261.5q0 -195 141 -298t407 -103q182 0 430 66v-223q-234 -140 -487 -140q-325 0 -537.5 178.5t-212.5 451.5q0 366 367 579h-376v247q65 0 115 27.5t171 127.5q52 44 76 63l65 53q197 158 318.5 202.5
t356.5 44.5v-407h-223v106h-20q-78 0 -174 -49.5t-244 -167.5h781v-247zM765 0l148 148l148 -148l-148 -148zM855 1530l147 148l149 -148l-149 -148z" />
    <glyph glyph-name="uniFC4E" unicode="&#xfc4e;" horiz-adv-x="1208" arabic-form="isolated" 
d="M604 91q-155 -49 -155 -226q0 -38 5 -93q5 -69 9 -133q5 -102 7 -117q5 -68 5 -89v-223h-260v225q0 62 -4 121l-12 162l-8 114q-6 84 -6 137q0 237 199 338q-74 94 -74 190q0 205 184.5 347.5t451.5 142.5q122 0 238 -35v-324q-132 63 -293 63q-231 0 -376 -178
q48 -75 124 -135q85 5 119 5q126 0 216 -48v-254q-109 -34 -189 -34q-81 0 -181 44zM786 1332l148 148l148 -148l-148 -148z" />
    <glyph glyph-name="uniFC58" unicode="&#xfc58;" horiz-adv-x="1208" arabic-form="isolated" 
d="M604 91q-155 -49 -155 -226q0 -38 5 -93q5 -69 9 -133q5 -102 7 -117q5 -68 5 -89v-223h-260v225q0 62 -4 121l-12 162l-8 114q-6 84 -6 137q0 237 199 338q-74 94 -74 190q0 205 184.5 347.5t451.5 142.5q122 0 238 -35v-324q-132 63 -293 63q-231 0 -376 -178
q48 -75 124 -135q85 5 119 5q126 0 216 -48v-254q-109 -34 -189 -34q-81 0 -181 44zM567 -345l148 148l148 -148l-148 -148zM913 -345l147 148l149 -148l-149 -148z" />
    <glyph glyph-name="uniFC5E" unicode="&#xfc5e;" arabic-form="isolated" 
d="M684 1184h142v-156q0 -344 -240 -344q-90 0 -147 61q-69 -153 -201 -153q-83 0 -117.5 58t-34.5 197v239h142v-206v-48q0 -86 62 -86q95 0 95 146v243h142v-123l2 -66q0 -115 76 -115q78 0 78 122l1 63v168zM555 1343q-174 59 -174 159q0 92 86.5 165t196.5 73
q170 0 170 -181q0 -70 -42 -139q64 -9 121 -9v-146h-32q-92 0 -184 26q-169 -119 -399 -119h-231v123q124 89 124 164q0 68 -97 68q-35 0 -94 -15v118q72 15 117 15q215 0 215 -172q0 -82 -87 -178h56q131 0 254 48zM660 1444q34 61 34 109q0 70 -64 70q-68 0 -134 -94
q67 -63 164 -85z" />
    <glyph glyph-name="uniFC5F" unicode="&#xfc5f;" arabic-form="isolated" 
d="M599 1740h141v-157q0 -344 -240 -344q-90 0 -147 61q-69 -153 -200 -153q-84 0 -118.5 57.5t-34.5 198.5v238h142v-206l1 -48q0 -86 61 -86q95 0 95 146v243h142v-123l2 -66q0 -115 76 -115q78 0 78 122l2 63v169zM740 1085l-740 -197v124l740 196v-123zM740 875
l-740 -196v123l740 196v-123z" />
    <glyph glyph-name="uniFC60" unicode="&#xfc60;" arabic-form="isolated" 
d="M599 1480h141v-156q0 -344 -239 -344q-91 0 -148 61q-68 -153 -200 -153q-84 0 -118.5 57.5t-34.5 198.5v238h142v-206l1 -48q0 -86 61 -86q95 0 95 146v243h142v-123l2 -66q0 -115 76 -115q78 0 78 122l2 63v168zM740 1616l-740 -196v123l740 197v-124z" />
    <glyph glyph-name="uniFC61" unicode="&#xfc61;" arabic-form="isolated" 
d="M599 1184h141v-156q0 -344 -240 -344q-90 0 -147 61q-68 -153 -200 -153q-84 0 -118.5 57.5t-34.5 197.5v239h142v-206l1 -48q0 -86 61 -86q95 0 95 146v243h142v-123l2 -66q0 -115 76 -115q78 0 78 122l2 63v168zM740 1411v-146q-125 0 -218 32q-183 -125 -446 -125h-76
v136h75q201 0 287 44q-166 47 -166 152q0 91 87 163.5t196 72.5q170 0 170 -169q0 -81 -48 -154q61 -5 98 -5zM475 1448q35 61 35 109q0 70 -64 70q-69 0 -135 -94q68 -63 164 -85z" />
    <glyph glyph-name="uniFC62" unicode="&#xfc62;" arabic-form="isolated" 
d="M599 1740h141v-157q0 -344 -240 -344q-90 0 -147 61q-69 -153 -200 -153q-84 0 -118.5 57.5t-34.5 198.5v238h142v-206l1 -48q0 -86 61 -86q95 0 95 146v243h142v-123l2 -66q0 -115 76 -115q78 0 78 122l2 63v169zM740 1085l-740 -197v124l740 196v-123z" />
    <glyph glyph-name="uniFC6D" unicode="&#xfc6d;" horiz-adv-x="2652" arabic-form="final" 
d="M147 352h197q-30 -131 -30 -292q0 -430 512 -430q347 0 641 162q16 89 16 161q0 331 -109 590h326q54 -26 102 -26q109 0 175.5 66t75.5 182h260v-249q0 -145 53 -182.5t261 -37.5h50v-296h-155q-203 0 -276.5 15t-121.5 66q-71 75 -71 261v17q-91 -135 -293 -135
q4 -75 4 -125q0 -353 -272 -559.5t-738 -206.5q-668 0 -668 613q0 188 61 406zM2035 -345l148 148l148 -148l-148 -148zM852 864l148 148l148 -148l-148 -148z" />
    <glyph glyph-name="uniFC73" unicode="&#xfc73;" horiz-adv-x="2652" arabic-form="final" 
d="M147 352h197q-30 -131 -30 -292q0 -430 512 -430q347 0 641 162q16 89 16 161q0 331 -109 590h326q54 -26 102 -26q109 0 175.5 66t75.5 182h260v-249q0 -145 53 -182.5t261 -37.5h50v-296h-155q-203 0 -276.5 15t-121.5 66q-71 75 -71 261v17q-91 -135 -293 -135
q4 -75 4 -125q0 -353 -272 -559.5t-738 -206.5q-668 0 -668 613q0 188 61 406zM1862 1110l148 148l148 -148l-148 -148zM2208 1110l148 148l148 -148l-148 -148zM852 864l148 148l148 -148l-148 -148z" />
    <glyph glyph-name="uniFC8D" unicode="&#xfc8d;" horiz-adv-x="2652" arabic-form="final" 
d="M147 352h198q-30 -142 -30 -281q0 -441 511 -441q346 0 641 162q16 89 16 161q0 331 -109 590h326q54 -26 102 -26q109 0 175.5 66t75.5 182h260v-249q0 -145 53 -182.5t261 -37.5h50v-296h-155q-203 0 -276.5 15t-121.5 66q-71 75 -71 261v17q-91 -135 -293 -135
q4 -75 4 -125q0 -351 -270 -558t-727 -207q-681 0 -681 602q0 210 61 416zM852 864l148 148l148 -148l-148 -148zM2060 1110l148 148l148 -148l-148 -148z" />
    <glyph glyph-name="uniFC94" unicode="&#xfc94;" horiz-adv-x="2652" arabic-form="final" 
d="M147 352h197q-30 -131 -30 -292q0 -430 512 -430q347 0 641 162q16 89 16 161q0 331 -109 590h326q54 -26 102 -26q109 0 175.5 66t75.5 182h260v-249q0 -145 53 -182.5t261 -37.5h50v-296h-155q-203 0 -276.5 15t-121.5 66q-71 75 -71 261v17q-91 -135 -293 -135
q4 -75 4 -125q0 -353 -272 -559.5t-738 -206.5q-668 0 -668 613q0 188 61 406zM1862 -345l148 148l148 -148l-148 -148zM2208 -345l148 148l148 -148l-148 -148zM852 863l148 148l148 -148l-148 -148z" />
    <glyph glyph-name="uniFC9F" unicode="&#xfc9f;" horiz-adv-x="1110" arabic-form="initial" 
d="M-25 0v296h46q76 0 235 48q-69 114 -69 221q0 210 183.5 353t452.5 143q122 0 238 -35v-324q-132 63 -283 63q-135 0 -219 -44.5t-167 -158.5q53 -96 137 -181q194 -17 316 -138v-243q-147 0 -232.5 24.5t-193.5 96.5q-237 -121 -374 -121h-70zM715 -345l148 148
l148 -148l-148 -148z" />
    <glyph glyph-name="uniFCA1" unicode="&#xfca1;" horiz-adv-x="1388" arabic-form="initial" 
d="M1381 666v-247h-30q-123 0 -209 -32t-250 -140l-62 -41l-112 -75q-202 -131 -543 -131h-200v296h280q182 0 267 17.5t250 88.5l39 17h-750v247q64 0 115 27.5t170 127.5q56 46 77 63l65 53q197 158 318.5 202.5t355.5 44.5v-407h-222v106h-21q-78 0 -173 -49.5
t-244 -167.5h879zM739 -197l148 148l148 -148l-148 -148zM524 1530l148 148l148 -148l-148 -148zM869 1530l148 148l148 -148l-148 -148z" />
    <glyph glyph-name="uniFCA2" unicode="&#xfca2;" horiz-adv-x="1388" arabic-form="initial" 
d="M1381 666v-247h-30q-123 0 -209 -32t-250 -140l-62 -41l-112 -75q-202 -131 -543 -131h-200v296h280q182 0 267 17.5t250 88.5l39 17h-750v247q64 0 115 27.5t170 127.5q56 46 77 63l65 53q197 158 318.5 202.5t355.5 44.5v-407h-222v106h-21q-78 0 -173 -49.5
t-244 -167.5h879zM524 1530l148 148l148 -148l-148 -148zM869 1530l148 148l148 -148l-148 -148z" />
    <glyph glyph-name="uniFCA4" unicode="&#xfca4;" horiz-adv-x="1110" arabic-form="initial" 
d="M-25 0v296h46q76 0 235 48q-69 114 -69 221q0 210 183.5 353t452.5 143q122 0 238 -35v-324q-132 63 -283 63q-135 0 -219 -44.5t-167 -158.5q53 -96 137 -181q194 -17 316 -138v-243q-147 0 -232.5 24.5t-193.5 96.5q-237 -121 -374 -121h-70zM321 1406l148 149
l148 -149l-148 -148zM666 1406l148 149l148 -149l-148 -148z" />
    <glyph glyph-name="uniFCC9" unicode="&#xfcc9;" horiz-adv-x="1388" arabic-form="initial" 
d="M505 1740h259v-560q0 -209 -32.5 -322t-116.5 -192h766v-247h-29q-124 0 -210 -32t-250 -140l-62 -41q-116 -77 -238 -135q-97 -47 -181.5 -59t-307.5 -12h-128v296h269q198 0 277 16t251 90l40 17h-751v247h31q151 0 226.5 25t126.5 91q60 80 60 397v561zM623 -197
l148 148l148 -148l-148 -148z" />
    <glyph glyph-name="uniFCCA" unicode="&#xfcca;" horiz-adv-x="1388" arabic-form="initial" 
d="M505 1740h259v-560q0 -209 -32.5 -322t-116.5 -192h766v-247h-29q-124 0 -210 -32t-250 -140l-62 -41q-116 -77 -238 -135q-97 -47 -181.5 -59t-307.5 -12h-128v296h269q198 0 277 16t251 90l40 17h-751v247h31q151 0 226.5 25t126.5 91q60 80 60 397v561z" />
    <glyph glyph-name="uniFCCB" unicode="&#xfccb;" horiz-adv-x="1388" arabic-form="initial" 
d="M505 1740h259v-560q0 -209 -32.5 -322t-116.5 -192h766v-247h-29q-124 0 -210 -32t-250 -140l-62 -41q-116 -77 -238 -135q-97 -47 -181.5 -59t-307.5 -12h-128v296h269q198 0 277 16t251 90l40 17h-751v247h31q151 0 226.5 25t126.5 91q60 80 60 397v561zM12 1012
l148 148l148 -148l-148 -148z" />
    <glyph glyph-name="uniFCCC" unicode="&#xfccc;" horiz-adv-x="907" arabic-form="initial" 
d="M-25 0v296h77q162 0 346 70q-59 162 -59 454v858h259v-865q0 -301 59 -432q151 -31 249 -140v-241q-208 0 -349 125l-18 -9l-36 -19l-38 -21l-29 -14q-129 -62 -313 -62h-148z" />
    <glyph glyph-name="uniFCD1" unicode="&#xfcd1;" horiz-adv-x="1086" arabic-form="initial" 
d="M381 572q40 -81 145 -189q218 -20 313 -136v-247q-164 9 -247.5 33.5t-174.5 90.5l-39 -22q-181 -102 -316 -102h-87v296h66q71 0 209 46q-68 102 -68 215q0 289 373 430v296l56 -40q270 -188 462 -231v-210h-67q-240 0 -381.5 -52t-243.5 -178z" />
    <glyph glyph-name="uniFCD2" unicode="&#xfcd2;" horiz-adv-x="1388" arabic-form="initial" 
d="M1382 666v-247h-30q-124 0 -209.5 -32t-249.5 -140l-62 -41l-113 -75q-201 -131 -543 -131h-200v296h280q182 0 267 17.5t250 88.5l40 17h-751v247q65 0 115 27.5t171 127.5q52 44 76 63l65 53q197 158 318.5 202.5t356.5 44.5v-407h-223v106h-20q-78 0 -174 -49.5
t-244 -167.5h880zM829 1530l148 148l148 -148l-148 -148zM739 -197l149 148l147 -148l-147 -148z" />
    <glyph glyph-name="uniFCD5" unicode="&#xfcd5;" horiz-adv-x="1110" arabic-form="initial" 
d="M-25 0v296h46q76 0 235 48q-69 114 -69 221q0 210 183.5 353t452.5 143q122 0 238 -35v-324q-132 63 -283 63q-135 0 -219 -44.5t-167 -158.5q53 -96 137 -181q194 -17 316 -138v-243q-147 0 -232.5 24.5t-193.5 96.5q-237 -121 -374 -121h-70zM675 1406l148 149
l148 -149l-148 -148z" />
    <glyph glyph-name="uniFCDD" unicode="&#xfcdd;" horiz-adv-x="1110" arabic-form="initial" 
d="M-25 0v296h46q76 0 235 48q-69 114 -69 221q0 210 183.5 353t452.5 143q122 0 238 -35v-324q-132 63 -283 63q-135 0 -219 -44.5t-167 -158.5q53 -96 137 -181q194 -17 316 -138v-243q-147 0 -232.5 24.5t-193.5 96.5q-237 -121 -374 -121h-70zM321 -345l148 148
l148 -148l-148 -148zM666 -345l148 148l148 -148l-148 -148z" />
    <glyph glyph-name="uniFD88" unicode="&#xfd88;" horiz-adv-x="1511" arabic-form="initial" 
d="M-25 0v296h370l231 2q178 0 294 25l-809 90v240q310 230 748 270q-51 144 -51 347v470h260v-512q0 -203 42 -302q130 -32 198 -93v-260q-202 0 -379 189q-323 -31 -540 -151l1123 -130v-247q-45 5 -79 5q-178 0 -333 -64l-72 -31l-86 -36q-159 -67 -282 -87.5t-367 -20.5
h-268z" />
    <glyph glyph-name="uniFE82" unicode="&#x622;" horiz-adv-x="808" arabic-form="final" 
d="M209 1382h260v-609l5 -180q0 -173 58.5 -235t220.5 -62h80v-296h-102q-344 0 -446 178q-76 132 -76 555v649zM0 1468v138q110 134 188 134q38 0 152 -39l42 -15q79 -27 120 -27q62 0 156 66q7 5 20 15v-139q-111 -133 -188 -133q-38 0 -152 39l-42 14q-79 28 -120 28
q-63 0 -156 -67q-7 -4 -20 -14z" />
    <glyph glyph-name="uniFE84" unicode="&#x623;" horiz-adv-x="808" arabic-form="final" 
d="M209 1308h259v-535l6 -180q0 -172 58.5 -234.5t220.5 -62.5h80v-296h-102q-344 0 -446 178q-76 132 -76 555v575zM586 1723v-133q-118 30 -267 42q43 -83 118 -139h168v-124h-531v124h171q-75 81 -75 140q0 107 229 107q96 0 187 -17z" />
    <glyph glyph-name="uniFE86" unicode="&#x624;" horiz-adv-x="1051" arabic-form="final" 
d="M687 0l-94 1q-425 0 -425 253q0 223 150 404.5t334 181.5q323 0 323 -530v-14h99v-296h-142q-94 -361 -587 -790h-548l151 112q318 235 447 353.5t292 324.5zM718 298l1 45q0 238 -120 238q-135 0 -195 -251q79 -34 251 -34zM840 1324v-154l-518 -134v153l242 62
q-149 74 -149 173q0 111 120.5 182.5t307.5 71.5v-146q-188 -12 -288 -102q120 -106 285 -106z" />
    <glyph glyph-name="uniFE88" unicode="&#x625;" horiz-adv-x="809" arabic-form="final" 
d="M210 1678h259v-905l6 -180q0 -173 58.5 -235t220.5 -62h79v-296h-102q-343 0 -446 178q-75 131 -75 555v945zM593 -502v-154l-518 -134v153l242 62q-149 74 -149 173q0 111 120.5 182.5t307.5 71.5v-146q-188 -12 -288 -102q120 -106 285 -106z" />
    <glyph glyph-name="uniFE8A" unicode="&#x626;" horiz-adv-x="2025" arabic-form="final" 
d="M2049 296v-296h-23q-69 0 -132 15l-48 12l-36 7q-106 22 -199 22q-162 0 -211 -125l243 -35l132 -22q192 -31 192 -153q0 -153 -169 -280q-310 -231 -959 -231q-753 0 -753 447q0 145 74 343h198q-39 -133 -39 -217q0 -277 577 -277q532 0 822 132l-274 40
q-193 27 -262.5 74.5t-69.5 150.5q0 182 162 315.5t382 133.5q94 0 201 -24l43 -9l49 -10q58 -13 79 -13h21zM572 485v-154l-518 -134v153l242 62q-149 74 -149 173q0 111 120.5 182.5t307.5 71.5v-146q-188 -12 -288 -102q120 -106 285 -106z" />
    <glyph glyph-name="uniFE8B" unicode="&#x626;" horiz-adv-x="747" arabic-form="initial" 
d="M-25 0v296h76q178 0 338 78l2 48l2 78q0 227 -82 438h311q39 -174 39 -320q0 -304 -164.5 -461t-481.5 -157h-40zM672 1405v-154l-518 -133v153l242 62q-149 74 -149 173q0 111 120 182t308 71v-145q-187 -12 -288 -103q119 -106 285 -106z" />
    <glyph glyph-name="uniFE8C" unicode="&#x626;" horiz-adv-x="938" arabic-form="medial" 
d="M-25 0v296h49q132 0 302 67q13 103 13 201v201h259v-249q0 -145 53.5 -182.5t260.5 -37.5h50v-296h-52q-207 0 -292.5 39.5t-173.5 174.5q-157 -214 -399 -214h-70zM718 1250v-154l-519 -134v154l243 61q-150 74 -150 173q0 111 120.5 182.5t308.5 71.5v-145
q-188 -13 -289 -103q120 -106 286 -106z" />
    <glyph glyph-name="uniFE8E" unicode="&#x627;" horiz-adv-x="808" arabic-form="final" 
d="M210 1678h259v-905l6 -180q0 -173 58.5 -235t220.5 -62h79v-296h-102q-343 0 -446 178q-75 131 -75 555v945z" />
    <glyph glyph-name="uniFE90" unicode="&#x628;" horiz-adv-x="2495" arabic-form="final" 
d="M2014 765h259v-196q0 -169 41 -221t174 -52h32v-296h-85q-185 0 -303 113.5t-118 290.5v42q-245 -226 -557 -348.5t-646 -122.5q-377 0 -571 134q-154 106 -154 339q0 102 20 268h197l-1 -87q0 -159 54 -227q106 -131 530 -131q688 0 1128 494zM679 -345l148 148
l148 -148l-148 -148z" />
    <glyph glyph-name="uniFE91" unicode="&#x628;" horiz-adv-x="747" arabic-form="initial" 
d="M-25 0v296h76q178 0 338 78l2 48l2 78q0 227 -82 438h311q39 -174 39 -320q0 -304 -164.5 -461t-481.5 -157h-40zM74 -345l148 148l148 -148l-148 -148z" />
    <glyph glyph-name="uniFE92" unicode="&#x628;" horiz-adv-x="938" arabic-form="medial" 
d="M-25 0v296h49q132 0 303 67q12 106 12 201v201h259v-249q0 -145 53.5 -182.5t260.5 -37.5h50v-296h-52q-207 0 -292 39.5t-174 174.5q-157 -214 -399 -214h-70zM321 -345l148 148l148 -148l-148 -148z" />
    <glyph glyph-name="uniFE94" unicode="&#x629;" horiz-adv-x="1163" arabic-form="final" 
d="M685 1184h259v-620l5 -93q5 -101 45 -138t146 -37h48v-296h-109q-216 0 -305 70t-89 240v90q-89 -203 -290 -203q-129 0 -225 76.5t-96 180.5q0 132 165.5 286.5t445.5 283.5v160zM685 808q-196 -112 -337 -254q70 -85 150 -85q72 0 178 77q3 28 3 37l3 46q3 52 3 54v125
zM494 1517l148 149l148 -149l-148 -148zM839 1517l148 149l148 -149l-148 -148z" />
    <glyph glyph-name="uniFE96" unicode="&#x62a;" horiz-adv-x="2495" arabic-form="final" 
d="M2014 765h259v-196q0 -169 41 -221t174 -52h32v-296h-85q-185 0 -303 113.5t-118 290.5v42q-245 -226 -557 -348.5t-646 -122.5q-377 0 -571 134q-154 106 -154 339q0 102 20 268h197l-1 -87q0 -159 54 -227q106 -131 530 -131q688 0 1128 494zM682 1024l148 148
l148 -148l-148 -148zM1027 1024l148 148l148 -148l-148 -148z" />
    <glyph glyph-name="uniFE97" unicode="&#x62a;" horiz-adv-x="747" arabic-form="initial" 
d="M-25 0v296h76q178 0 338 78l2 48l2 78q0 227 -82 438h311q39 -174 39 -320q0 -304 -164.5 -461t-481.5 -157h-40zM28 1283l148 148l148 -148l-148 -148zM374 1283l148 148l148 -148l-148 -148z" />
    <glyph glyph-name="uniFE98" unicode="&#x62a;" horiz-adv-x="938" arabic-form="medial" 
d="M-25 0v296h49q132 0 303 67q12 106 12 201v201h259v-249q0 -145 53.5 -182.5t260.5 -37.5h50v-296h-52q-207 0 -292 39.5t-174 174.5q-157 -214 -399 -214h-70zM148 1110l148 148l148 -148l-148 -148zM493 1110l148 148l148 -148l-148 -148z" />
    <glyph glyph-name="uniFE9A" unicode="&#x62b;" horiz-adv-x="2495" arabic-form="final" 
d="M2014 765h259v-196q0 -169 41 -221t174 -52h32v-296h-85q-185 0 -303 113.5t-118 290.5v42q-245 -226 -557 -348.5t-646 -122.5q-377 0 -571 134q-154 106 -154 339q0 102 20 268h197l-1 -87q0 -159 54 -227q106 -131 530 -131q688 0 1128 494zM682 1024l148 148
l148 -148l-148 -148zM1027 1024l148 148l148 -148l-148 -148zM855 1283l147 148l149 -148l-149 -148z" />
    <glyph glyph-name="uniFE9B" unicode="&#x62b;" horiz-adv-x="747" arabic-form="initial" 
d="M-25 0v296h76q178 0 338 78l2 48l2 78q0 227 -82 438h311q39 -174 39 -320q0 -304 -164.5 -461t-481.5 -157h-40zM28 1283l148 148l148 -148l-148 -148zM373 1283l148 148l148 -148l-148 -148zM201 1542l148 148l148 -148l-148 -148z" />
    <glyph glyph-name="uniFE9C" unicode="&#x62b;" horiz-adv-x="938" arabic-form="medial" 
d="M-25 0v296h49q132 0 303 67q12 106 12 201v201h259v-249q0 -145 53.5 -182.5t260.5 -37.5h50v-296h-52q-207 0 -292 39.5t-174 174.5q-157 -214 -399 -214h-70zM148 1110l148 148l148 -148l-148 -148zM493 1110l148 148l148 -148l-148 -148zM321 1369l148 148l148 -148
l-148 -148z" />
    <glyph glyph-name="uniFE9E" unicode="&#x62c;" horiz-adv-x="1339" arabic-form="final" 
d="M1125 605v-158q0 -103 27.5 -127t143.5 -24h67v-296h-131q-175 0 -252 90t-77 293v222q-240 -86 -334 -164q-221 -185 -221 -487q0 -448 545 -448q190 0 439 67v-223q-235 -140 -485 -140q-346 0 -552.5 191.5t-206.5 512.5q0 491 508 745l-50 3l-118 9q-79 5 -135 5
q-94 0 -214 -41v254q97 36 207 36q84 0 185 -7l193 -13q254 -17 560 -17h83v-283h-182zM581 0l148 148l148 -148l-148 -148z" />
    <glyph glyph-name="uniFE9F" unicode="&#x62c;" horiz-adv-x="1469" arabic-form="initial" 
d="M-25 0v296h349q134 0 210.5 19.5t270.5 103.5q22 9 66 28q-408 127 -622 127q-67 0 -194 -15v266q85 14 157 14q218 0 538 -98l145 -45l71 -21l151 -45q177 -50 326 -50h20v-272h-80q-258 0 -409 -71l-105 -51l-91 -44l-92 -46q-197 -96 -469 -96h-242zM451 -345l148 148
l148 -148l-148 -148z" />
    <glyph glyph-name="uniFEA0" unicode="&#x62c;" horiz-adv-x="1534" arabic-form="medial" 
d="M-25 0v296h514q253 0 385 41q-331 172 -478.5 220t-346.5 48v283q272 0 563.5 -122t710.5 -412l84 -58h151v-296h-45q-106 0 -174 27.5t-184 115.5q-19 15 -58 44q-299 -187 -672 -187h-450zM455 -222l148 148l148 -148l-148 -148z" />
    <glyph glyph-name="uniFEA2" unicode="&#x62d;" horiz-adv-x="1339" arabic-form="final" 
d="M1125 605v-158q0 -103 27.5 -127t143.5 -24h67v-296h-131q-175 0 -252 90t-77 293v222q-240 -86 -334 -164q-221 -185 -221 -487q0 -448 545 -448q190 0 439 67v-223q-235 -140 -485 -140q-346 0 -552.5 191.5t-206.5 512.5q0 491 508 745l-50 3l-118 9q-79 5 -135 5
q-94 0 -214 -41v254q97 36 207 36q84 0 185 -7l193 -13q254 -17 560 -17h83v-283h-182z" />
    <glyph glyph-name="uniFEA3" unicode="&#x62d;" horiz-adv-x="1469" arabic-form="initial" 
d="M-25 0v296h349q134 0 210.5 19.5t270.5 103.5q22 9 66 28q-408 127 -622 127q-67 0 -194 -15v266q85 14 157 14q218 0 538 -98l145 -45l71 -21l151 -45q177 -50 326 -50h20v-272h-80q-258 0 -409 -71l-105 -51l-91 -44l-92 -46q-197 -96 -469 -96h-242z" />
    <glyph glyph-name="uniFEA4" unicode="&#x62d;" horiz-adv-x="1534" arabic-form="medial" 
d="M-25 0v296h514q253 0 385 41q-331 172 -478.5 220t-346.5 48v283q272 0 563.5 -122t710.5 -412l84 -58h151v-296h-45q-106 0 -174 27.5t-184 115.5q-19 15 -58 44q-299 -187 -672 -187h-450z" />
    <glyph glyph-name="uniFEA6" unicode="&#x62e;" horiz-adv-x="1339" arabic-form="final" 
d="M1125 605v-158q0 -103 27.5 -127t143.5 -24h67v-296h-131q-175 0 -252 90t-77 293v222q-240 -86 -334 -164q-221 -185 -221 -487q0 -448 545 -448q190 0 439 67v-223q-235 -140 -485 -140q-346 0 -552.5 191.5t-206.5 512.5q0 491 508 745l-50 3l-118 9q-79 5 -135 5
q-94 0 -214 -41v254q97 36 207 36q84 0 185 -7l193 -13q254 -17 560 -17h83v-283h-182zM657 1234l148 148l148 -148l-148 -148z" />
    <glyph glyph-name="uniFEA7" unicode="&#x62e;" horiz-adv-x="1469" arabic-form="initial" 
d="M-25 0v296h349q134 0 210.5 19.5t270.5 103.5q22 9 66 28q-408 127 -622 127q-67 0 -194 -15v266q85 14 157 14q218 0 538 -98l145 -45l71 -21l151 -45q177 -50 326 -50h20v-272h-80q-258 0 -409 -71l-105 -51l-91 -44l-92 -46q-197 -96 -469 -96h-242zM538 1185l148 147
l148 -147l-148 -149z" />
    <glyph glyph-name="uniFEA8" unicode="&#x62e;" horiz-adv-x="1534" arabic-form="medial" 
d="M-25 0v296h514q253 0 385 41q-331 172 -478.5 220t-346.5 48v283q272 0 563.5 -122t710.5 -412l84 -58h151v-296h-45q-106 0 -174 27.5t-184 115.5q-19 15 -58 44q-299 -187 -672 -187h-450zM531 1234l148 148l148 -148l-148 -148z" />
    <glyph glyph-name="uniFEAA" unicode="&#x62f;" horiz-adv-x="1341" arabic-form="final" 
d="M816 314q7 66 7 95q0 107 -20 206l-106 532h263l122 -631q24 -124 76.5 -172t164.5 -48h42v-296h-44q-134 0 -204 42t-157 172q-66 -140 -158.5 -189.5t-289.5 -49.5q-237 0 -459 64v305q213 -73 452 -73q161 0 311 43z" />
    <glyph glyph-name="uniFEAC" unicode="&#x630;" horiz-adv-x="1341" arabic-form="final" 
d="M816 314q7 66 7 95q0 107 -20 206l-106 532h263l122 -631q24 -124 76.5 -172t164.5 -48h42v-296h-44q-134 0 -204 42t-157 172q-66 -140 -158.5 -189.5t-289.5 -49.5q-237 0 -459 64v305q213 -73 452 -73q161 0 311 43zM566 1517l148 149l148 -149l-148 -148z" />
    <glyph glyph-name="uniFEAE" unicode="&#x631;" horiz-adv-x="1175" arabic-form="final" 
d="M670 92q-89 244 -294 525h359l35 -54q29 -45 42 -66l34 -58l20 -30q73 -113 295 -113h39v-296h-41q-145 0 -274 92q-50 -246 -178.5 -433t-429.5 -449h-548q465 343 640 507t301 375z" />
    <glyph glyph-name="uniFEB0" unicode="&#x632;" horiz-adv-x="1175" arabic-form="final" 
d="M670 92q-89 244 -294 525h359l35 -54q29 -45 42 -66l34 -58l20 -30q73 -113 295 -113h39v-296h-41q-145 0 -274 92q-50 -246 -178.5 -433t-429.5 -449h-548q465 343 640 507t301 375zM308 962l147 148l149 -148l-149 -148z" />
    <glyph glyph-name="uniFEB2" unicode="&#x633;" horiz-adv-x="3352" arabic-form="final" 
d="M1762 25q-51 -340 -307 -516t-701 -176q-668 0 -668 613q0 188 61 406h197q-30 -131 -30 -292q0 -430 512 -430q347 0 641 162q18 146 18 265q0 282 -145 609h326q66 -192 82 -361q84 -34 141 -34q100 0 201 98q4 44 4 49l3 64l3 77v206h259v-255q0 -132 37 -185.5
t127 -53.5q101 0 221 98q4 44 4 49l3 64l3 77v329h259v-376q0 -145 53 -182.5t261 -37.5h50v-296h-52q-207 0 -292.5 39.5t-173.5 175.5q-97 -119 -177.5 -165t-195.5 -46q-114 0 -177.5 47.5t-103.5 163.5q-171 -211 -317 -211q-65 0 -126 25z" />
    <glyph glyph-name="uniFEB3" unicode="&#x633;" horiz-adv-x="2011" arabic-form="initial" 
d="M1098 214q-169 -214 -362 -214q-218 0 -292 214q-157 -214 -399 -214h-70v296h49q132 0 303 67q12 106 12 201v201h259v-249q0 -245 165 -245q95 0 220 101q4 44 4 50l3 64l3 77v202h259v-251q0 -243 168 -243q135 0 233 103l2 48l2 81q0 273 -82 484h311
q39 -174 39 -362q0 -277 -151 -451t-391 -174q-212 0 -285 214z" />
    <glyph glyph-name="uniFEB4" unicode="&#x633;" horiz-adv-x="2246" arabic-form="medial" 
d="M444 214q-158 -214 -400 -214h-69v296h49q131 0 302 67q12 106 12 201v201h259v-249q0 -245 166 -245q94 0 220 101q4 44 4 50l3 64l2 77v202h259v-251q0 -243 165 -243q95 0 221 101q4 44 4 50l2 64l3 77v325h259v-372q0 -145 53.5 -182.5t260.5 -37.5h50v-296h-52
q-207 0 -292.5 39.5t-172.5 174.5q-170 -214 -363 -214q-219 0 -291 214q-170 -214 -363 -214q-218 0 -291 214z" />
    <glyph glyph-name="uniFEB6" unicode="&#x634;" horiz-adv-x="3352" arabic-form="final" 
d="M1762 25q-51 -340 -307 -516t-701 -176q-668 0 -668 613q0 188 61 406h197q-30 -131 -30 -292q0 -430 512 -430q347 0 641 162q18 146 18 265q0 282 -145 609h326q66 -192 82 -361q84 -34 141 -34q100 0 201 98q4 44 4 49l3 64l3 77v206h259v-255q0 -132 37 -185.5
t127 -53.5q101 0 221 98q4 44 4 49l3 64l3 77v329h259v-376q0 -145 53 -182.5t261 -37.5h50v-296h-52q-207 0 -292.5 39.5t-173.5 175.5q-97 -119 -177.5 -165t-195.5 -46q-114 0 -177.5 47.5t-103.5 163.5q-171 -211 -317 -211q-65 0 -126 25zM1908 1110l148 148l148 -148
l-148 -148zM2254 1110l148 148l148 -148l-148 -148zM2081 1369l148 148l148 -148l-148 -148z" />
    <glyph glyph-name="uniFEB7" unicode="&#x634;" horiz-adv-x="2011" arabic-form="initial" 
d="M1098 214q-169 -214 -362 -214q-218 0 -292 214q-157 -214 -399 -214h-70v296h49q132 0 303 67q12 106 12 201v201h259v-249q0 -245 165 -245q95 0 220 101q4 44 4 50l3 64l3 77v202h259v-251q0 -243 168 -243q135 0 233 103l2 48l2 81q0 273 -82 484h311
q39 -174 39 -362q0 -277 -151 -451t-391 -174q-212 0 -285 214zM802 1110l148 148l148 -148l-148 -148zM1147 1110l148 148l148 -148l-148 -148zM974 1369l148 148l148 -148l-148 -148z" />
    <glyph glyph-name="uniFEB8" unicode="&#x634;" horiz-adv-x="2246" arabic-form="medial" 
d="M444 214q-158 -214 -400 -214h-69v296h49q131 0 302 67q12 106 12 201v201h259v-249q0 -245 166 -245q94 0 220 101q4 44 4 50l3 64l2 77v202h259v-251q0 -243 165 -243q95 0 221 101q4 44 4 50l2 64l3 77v325h259v-372q0 -145 53.5 -182.5t260.5 -37.5h50v-296h-52
q-207 0 -292.5 39.5t-172.5 174.5q-170 -214 -363 -214q-219 0 -291 214q-170 -214 -363 -214q-218 0 -291 214zM801 1110l148 148l148 -148l-148 -148zM1146 1110l148 148l148 -148l-148 -148zM974 1369l148 148l148 -148l-148 -148z" />
    <glyph glyph-name="uniFEBA" unicode="&#x635;" horiz-adv-x="3385" arabic-form="final" 
d="M147 352h197q-30 -131 -30 -292q0 -430 513 -430q346 0 640 162q18 146 18 265q0 282 -144 609h326q56 -167 78 -325q122 -29 229 -41q228 303 482.5 495t428.5 192q151 0 246 -124t95 -321q0 -76 -27 -180q91 -66 177 -66h34v-296h-36q-202 0 -307 163
q-139 -102 -296.5 -145t-394.5 -43q-320 0 -614 50q-51 -340 -307 -516t-701 -176q-668 0 -668 613q0 188 61 406zM2235 271l57 1q426 0 706 111q2 29 2 44q0 112 -48 192t-115 80q-86 0 -251 -117t-351 -311z" />
    <glyph glyph-name="uniFEBB" unicode="&#x635;" horiz-adv-x="2061" arabic-form="initial" 
d="M444 214q-158 -214 -400 -214h-69v296h49q102 0 298 66q4 34 5 44l5 70l6 88v201h259v-249q0 -135 126 -216q227 303 482 495t428 192q151 0 246 -124t95 -320q0 -272 -212 -420t-603 -148q-251 0 -406 52t-309 187zM983 271l57 1q427 0 706 111q2 29 2 44
q0 112 -47.5 192t-114.5 80q-87 0 -252 -117t-351 -311z" />
    <glyph glyph-name="uniFEBC" unicode="&#x635;" horiz-adv-x="2135" arabic-form="medial" 
d="M983 271l57 1q427 0 706 111q2 29 2 44q0 112 -47.5 192t-114.5 80q-87 0 -252 -117t-351 -311zM444 214q-158 -214 -400 -214h-69v296h49q131 0 302 67q12 106 12 201v201h259v-249q0 -146 134 -208q204 283 467 481t435 198q151 0 246 -124t95 -321q0 -78 -26 -180
q91 -66 177 -66h34v-296h-37q-202 0 -306 163q-143 -105 -300.5 -146.5t-412.5 -41.5q-256 0 -400.5 52.5t-258.5 186.5z" />
    <glyph glyph-name="uniFEBE" unicode="&#x636;" horiz-adv-x="3385" arabic-form="final" 
d="M147 352h197q-30 -131 -30 -292q0 -430 513 -430q346 0 640 162q18 146 18 265q0 282 -144 609h326q56 -167 78 -325q122 -29 229 -41q228 303 482.5 495t428.5 192q151 0 246 -124t95 -321q0 -76 -27 -180q91 -66 177 -66h34v-296h-36q-202 0 -307 163
q-139 -102 -296.5 -145t-394.5 -43q-320 0 -614 50q-51 -340 -307 -516t-701 -176q-668 0 -668 613q0 188 61 406zM2235 271l57 1q426 0 706 111q2 29 2 44q0 112 -48 192t-115 80q-86 0 -251 -117t-351 -311zM2742 1332l148 148l148 -148l-148 -148z" />
    <glyph glyph-name="uniFEBF" unicode="&#x636;" horiz-adv-x="2061" arabic-form="initial" 
d="M444 214q-158 -214 -400 -214h-69v296h49q102 0 298 66q4 34 5 44l5 70l6 88v201h259v-249q0 -135 126 -216q227 303 482 495t428 192q151 0 246 -124t95 -320q0 -272 -212 -420t-603 -148q-251 0 -406 52t-309 187zM983 271l57 1q427 0 706 111q2 29 2 44
q0 112 -47.5 192t-114.5 80q-87 0 -252 -117t-351 -311zM1479 1332l147 148l149 -148l-149 -148z" />
    <glyph glyph-name="uniFEC0" unicode="&#x636;" horiz-adv-x="2135" arabic-form="medial" 
d="M983 271l57 1q427 0 706 111q2 29 2 44q0 112 -47.5 192t-114.5 80q-87 0 -252 -117t-351 -311zM444 214q-158 -214 -400 -214h-69v296h49q131 0 302 67q12 106 12 201v201h259v-249q0 -146 134 -208q204 283 467 481t435 198q151 0 246 -124t95 -321q0 -78 -26 -180
q91 -66 177 -66h34v-296h-37q-202 0 -306 163q-143 -105 -300.5 -146.5t-412.5 -41.5q-256 0 -400.5 52.5t-258.5 186.5zM1479 1332l147 148l149 -148l-149 -148z" />
    <glyph glyph-name="uniFEC2" unicode="&#x637;" horiz-adv-x="1731" arabic-form="final" 
d="M440 1678h259v-572q0 -298 -60 -498q190 208 323 293.5t265 85.5q154 0 249 -123t95 -322q0 -78 -26 -180q91 -66 177 -66h34v-296h-36q-202 0 -307 163q-134 -99 -337 -143.5t-526 -44.5q-328 0 -550 39v303q146 -31 259 -31h39q89 129 115.5 241t26.5 357v794zM580 271
l58 1q426 0 705 111l1 39q0 120 -45.5 198.5t-114.5 78.5q-87 0 -252 -117t-352 -311z" />
    <glyph glyph-name="uniFEC3" unicode="&#x637;" horiz-adv-x="1559" arabic-form="initial" 
d="M-25 0v296h228q85 115 112 229.5t27 358.5v794h259v-572q0 -297 -61 -498q191 208 323.5 293.5t265.5 85.5q153 0 248.5 -123t95.5 -319q0 -295 -213 -424q-114 -69 -280 -95t-497 -26h-508zM482 271l57 1q427 0 706 111l1 39q0 120 -45.5 198.5t-115.5 78.5
q-87 0 -251.5 -117t-351.5 -311z" />
    <glyph glyph-name="uniFEC4" unicode="&#x637;" horiz-adv-x="1633" arabic-form="medial" 
d="M1245 387l1 37q0 119 -45.5 197t-115.5 78q-178 0 -578 -403h145q161 0 333 26.5t260 64.5zM-25 0v296h228q85 115 112 229.5t27 358.5v794h259v-572q0 -297 -61 -498q191 208 323.5 293.5t265.5 85.5q153 0 248.5 -123.5t95.5 -321.5q0 -76 -26 -180q91 -66 177 -66h34
v-296h-37q-201 0 -306 163q-133 -99 -295.5 -131t-536.5 -32h-508z" />
    <glyph glyph-name="uniFEC6" unicode="&#x638;" horiz-adv-x="1731" arabic-form="final" 
d="M440 1678h259v-572q0 -298 -60 -498q190 208 323 293.5t265 85.5q154 0 249 -123t95 -322q0 -78 -26 -180q91 -66 177 -66h34v-296h-36q-202 0 -307 163q-134 -99 -337 -143.5t-526 -44.5q-328 0 -550 39v303q146 -31 259 -31h39q89 129 115.5 241t26.5 357v794zM580 271
l58 1q426 0 705 111l1 39q0 120 -45.5 198.5t-114.5 78.5q-87 0 -252 -117t-352 -311zM1076 1332l148 148l148 -148l-148 -148z" />
    <glyph glyph-name="uniFEC7" unicode="&#x638;" horiz-adv-x="1559" arabic-form="initial" 
d="M-25 0v296h228q85 115 112 229.5t27 358.5v794h259v-572q0 -297 -61 -498q191 208 323.5 293.5t265.5 85.5q153 0 248.5 -123t95.5 -319q0 -295 -213 -424q-114 -69 -280 -95t-497 -26h-508zM482 271l57 1q427 0 706 111l1 39q0 120 -45.5 198.5t-115.5 78.5
q-87 0 -251.5 -117t-351.5 -311zM978 1332l148 148l147 -148l-147 -148z" />
    <glyph glyph-name="uniFEC8" unicode="&#x638;" horiz-adv-x="1633" arabic-form="medial" 
d="M-25 0v296h228q85 115 112 229.5t27 358.5v794h259v-572q0 -297 -61 -498q191 208 323.5 293.5t265.5 85.5q153 0 248.5 -123.5t95.5 -321.5q0 -76 -26 -180q91 -66 177 -66h34v-296h-37q-201 0 -306 163q-133 -99 -295.5 -131t-536.5 -32h-508zM1245 387l1 37
q0 119 -45.5 197t-115.5 78q-178 0 -578 -403h145q161 0 333 26.5t260 64.5zM978 1332l147 148l148 -148l-148 -148z" />
    <glyph glyph-name="uniFECA" unicode="&#x639;" horiz-adv-x="1331" arabic-form="final" 
d="M518 346q-184 167 -316 174v317q274 150 559 150q208 0 328.5 -87t120.5 -237q0 -111 -61.5 -182t-220.5 -142q82 -43 347 -43h80v-296h-99q-272 0 -383.5 36t-216.5 157q-302 -120 -302 -358q0 -328 506 -328q181 0 429 66v-223q-235 -140 -491 -140q-316 0 -514 160
t-198 415q0 386 432 561zM765 467q130 57 130 155q0 138 -231 138q-102 0 -213 -39q164 -92 314 -254z" />
    <glyph glyph-name="uniFECB" unicode="&#x639;" horiz-adv-x="1107" arabic-form="initial" 
d="M972 1174v-281q-150 20 -228 20q-167 0 -295 -69v-24q0 -149 92 -259q60 -71 135.5 -94t249.5 -23h144v-296h-192q-205 0 -343 -54l-46 -18l-59 -25q-125 -51 -325 -51h-130v296h47q215 0 382 55l27 9q-249 148 -249 376q0 204 162.5 326.5t433.5 122.5q77 0 194 -11z
" />
    <glyph glyph-name="uniFECC" unicode="&#x639;" horiz-adv-x="1234" arabic-form="medial" 
d="M-25 0v296h111q188 0 347 30q-155 158 -328 247v296q270 118 532 118q210 0 342 -89t132 -231q0 -198 -279 -371h427v-296h-101q-218 0 -318 29.5t-210 126.5q-133 -90 -259 -123t-333 -33h-63zM681 437q121 103 121 184q0 144 -236 144q-101 0 -227 -26
q184 -115 342 -302z" />
    <glyph glyph-name="uniFECE" unicode="&#x63a;" horiz-adv-x="1331" arabic-form="final" 
d="M518 346q-184 167 -316 174v317q274 150 559 150q208 0 328.5 -87t120.5 -237q0 -111 -61.5 -182t-220.5 -142q82 -43 347 -43h80v-296h-99q-272 0 -383.5 36t-216.5 157q-302 -120 -302 -358q0 -328 506 -328q181 0 429 66v-223q-235 -140 -491 -140q-316 0 -514 160
t-198 415q0 386 432 561zM765 467q130 57 130 155q0 138 -231 138q-102 0 -213 -39q164 -92 314 -254zM641 1332l148 148l148 -148l-148 -148z" />
    <glyph glyph-name="uniFECF" unicode="&#x63a;" horiz-adv-x="1107" arabic-form="initial" 
d="M972 1174v-281q-150 20 -228 20q-167 0 -295 -69v-24q0 -149 92 -259q60 -71 135.5 -94t249.5 -23h144v-296h-192q-205 0 -343 -54l-46 -18l-59 -25q-125 -51 -325 -51h-130v296h47q215 0 382 55l27 9q-249 148 -249 376q0 204 162.5 326.5t433.5 122.5q77 0 194 -11z
M617 1530l148 148l148 -148l-148 -148z" />
    <glyph glyph-name="uniFED0" unicode="&#x63a;" horiz-adv-x="1234" arabic-form="medial" 
d="M-25 0v296h111q188 0 347 30q-155 158 -328 247v296q270 118 532 118q210 0 342 -89t132 -231q0 -198 -279 -371h427v-296h-101q-218 0 -318 29.5t-210 126.5q-133 -90 -259 -123t-333 -33h-63zM681 437q121 103 121 184q0 144 -236 144q-101 0 -227 -26
q184 -115 342 -302zM462 1332l148 148l148 -148l-148 -148z" />
    <glyph glyph-name="uniFED2" unicode="&#x641;" horiz-adv-x="2743" arabic-form="final" 
d="M114 716h197q-16 -113 -16 -176q0 -180 167 -252t582 -72q497 0 888 80q-109 118 -109 244q0 163 163.5 305t351.5 142q123 0 196.5 -73.5t73.5 -197.5q0 -213 -239 -420h398v-296h-102q-202 0 -315 25t-206 91q-507 -196 -1163 -196q-498 0 -696.5 114t-198.5 400
q0 130 28 282zM2222 407q114 82 168 131q-17 202 -146 202q-90 0 -190 -94q92 -161 168 -239zM2176 1332l148 148l148 -148l-148 -148z" />
    <glyph glyph-name="uniFED3" unicode="&#x641;" horiz-adv-x="1035" arabic-form="initial" 
d="M-25 0v296h661q12 66 17 109q-63 -10 -119 -10q-389 0 -389 254q0 222 150 403.5t333 181.5q320 0 320 -553q0 -397 -197 -531q-221 -150 -633 -150h-143zM683 693l1 46q0 237 -113 237q-130 0 -190 -251q78 -34 246 -34zM499 1579l148 148l148 -148l-148 -148z" />
    <glyph glyph-name="uniFED4" unicode="&#x641;" horiz-adv-x="1117" arabic-form="medial" 
d="M1141 296v-296h-103q-202 0 -315 25t-206 91q-176 -116 -468 -116h-74v296h330q-109 118 -109 244q0 163 163.5 305t351.5 142q124 0 197 -73.5t73 -198.5q0 -212 -239 -419h399zM595 407q115 82 168 131q-16 202 -146 202q-90 0 -190 -94q91 -160 168 -239zM481 1332
l148 148l148 -148l-148 -148z" />
    <glyph glyph-name="uniFED6" unicode="&#x642;" horiz-adv-x="1877" arabic-form="final" 
d="M146 228h173q-30 -130 -30 -280q0 -442 514 -442q391 0 661 279q29 123 29 226q-71 -11 -127 -11q-385 0 -385 254q0 223 149.5 404.5t333.5 181.5q324 0 324 -538v-6h113v-296h-141q-75 -386 -335 -588t-684 -202q-655 0 -655 601q0 212 60 417zM1518 298l2 45
q0 238 -114 238q-130 0 -189 -251q78 -34 245 -34zM1084 1184l148 148l148 -148l-148 -148zM1429 1184l148 148l148 -148l-148 -148z" />
    <glyph glyph-name="uniFED7" unicode="&#x642;" horiz-adv-x="1035" arabic-form="initial" 
d="M-25 0v296h661q12 66 17 109q-63 -10 -119 -10q-389 0 -389 254q0 222 150 403.5t333 181.5q320 0 320 -553q0 -397 -197 -531q-221 -150 -633 -150h-143zM683 693l1 46q0 237 -113 237q-130 0 -190 -251q78 -34 246 -34zM247 1579l147 148l149 -148l-149 -148zM592 1579
l148 148l148 -148l-148 -148z" />
    <glyph glyph-name="uniFED8" unicode="&#x642;" horiz-adv-x="1117" arabic-form="medial" 
d="M1141 296v-296h-103q-202 0 -315 25t-206 91q-176 -116 -468 -116h-74v296h330q-109 118 -109 244q0 163 163.5 305t351.5 142q124 0 197 -73.5t73 -198.5q0 -212 -239 -419h399zM595 407q115 82 168 131q-16 202 -146 202q-90 0 -190 -94q91 -160 168 -239zM377 1332
l148 148l148 -148l-148 -148zM722 1332l148 148l148 -148l-148 -148z" />
    <glyph glyph-name="uniFEDA" unicode="&#x643;" horiz-adv-x="2519" arabic-form="final" 
d="M1371 1400v-176q-201 0 -301 -110l138 -70l49 -25q85 -44 85 -105q0 -100 -250 -272h-295l339 203l-100 51l-46 23q-96 50 -96 132q0 139 143.5 244t333.5 105zM106 716h196l-2 -87q0 -160 55 -227q105 -131 495 -131q271 0 560 80t491 211l5 50l9 97q5 60 5 96v873h259
v-905l6 -190q0 -166 59 -226.5t220 -60.5h80v-296h-102q-244 0 -347.5 68.5t-154.5 262.5q-187 -155 -524.5 -255.5t-673.5 -100.5q-656 0 -656 482q0 90 20 259z" />
    <glyph glyph-name="uniFEDB" unicode="&#x643;" horiz-adv-x="1009" arabic-form="initial" 
d="M-25 0v296h222q296 0 426 54q-99 440 -599 696v263l1037 369v-273l-725 -259q246 -162 381 -354t135 -380q0 -178 -126 -287q-90 -78 -202.5 -101.5t-397.5 -23.5h-151z" />
    <glyph glyph-name="uniFEDC" unicode="&#x643;" horiz-adv-x="1118" arabic-form="medial" 
d="M1142 296v-296h-57q-121 0 -215.5 58t-214.5 205l-57 70q-19 -177 -127.5 -254.5t-339.5 -77.5l-156 -1v296h86q123 0 315 30q0 154 -34 255t-124 211l-206 254v263l1036 369v-273l-760 -271l462 -568q219 -270 347 -270h45z" />
    <glyph glyph-name="uniFEDE" unicode="&#x644;" horiz-adv-x="2123" arabic-form="final" 
d="M2148 296v-296h-81q-152 0 -283 91q-25 -232 -76.5 -345t-174.5 -204q-277 -208 -806 -208q-335 0 -488 125t-153 400q0 187 50 400h197q-24 -163 -24 -275q0 -203 103 -278.5t380 -75.5q388 0 710 145l7 127q15 267 15 365v1411h260v-905l5 -180q0 -172 58.5 -234.5
t220.5 -62.5h80z" />
    <glyph glyph-name="uniFEDF" unicode="&#x644;" horiz-adv-x="808" arabic-form="initial" 
d="M339 1678h259v-904q0 -412 -78 -549q-128 -225 -459 -225h-86v296h78q127 0 258 44q28 207 28 389v949z" />
    <glyph glyph-name="uniFEE0" unicode="&#x644;" horiz-adv-x="938" arabic-form="medial" 
d="M-25 0v296h49q132 0 303 67q12 106 12 201v1114h259v-1162q0 -145 53.5 -182.5t260.5 -37.5h50v-296h-52q-207 0 -292 39.5t-174 174.5q-157 -214 -399 -214h-70z" />
    <glyph glyph-name="uniFEE2" unicode="&#x645;" horiz-adv-x="1382" arabic-form="final" 
d="M554 456q198 -170 390 -242q-30 179 -99 287.5t-152 108.5q-65 0 -139 -154zM423 186q-75 -147 -75 -268q0 -55 6 -146q7 -93 9 -133l7 -117q6 -86 6 -89v-223h-260v225q0 99 -16 283q-14 165 -14 229q0 153 98 315l88 146q35 57 59 101l53 96l49 88q114 199 291 199
q257 0 399 -336l19 -46q58 -136 101.5 -175t138.5 -39h24v-296h-34q-128 0 -236 123q-78 -148 -250 -148q-213 0 -463 211zM1189 333zM1276 0z" />
    <glyph glyph-name="uniFEE3" unicode="&#x645;" horiz-adv-x="1276" arabic-form="initial" 
d="M-25 0v296h65q105 0 163 33t104 118l40 73q31 58 43 80l16 32q132 256 319 256q175 0 319.5 -173t144.5 -382q0 -164 -78.5 -261t-211.5 -97q-216 0 -480 221q-79 -129 -140.5 -162.5t-220.5 -33.5h-83zM563 456q200 -171 390 -242q-30 178 -99 287t-152 109
q-64 0 -139 -154z" />
    <glyph glyph-name="uniFEE4" unicode="&#x645;" horiz-adv-x="1391" arabic-form="medial" 
d="M419 196q-79 -129 -140.5 -162.5t-220.5 -33.5h-83v296h65q105 0 163 33t104 118l40 73q31 58 43 80l16 32q132 256 331 256q254 0 395 -332l19 -46q58 -136 101.5 -175t138.5 -39h24v-296h-34q-128 0 -236 123q-78 -148 -250 -148q-213 0 -476 221zM563 456
q200 -171 390 -242q-30 178 -99 287t-152 109q-64 0 -139 -154zM1189 333zM1276 0z" />
    <glyph glyph-name="uniFEE6" unicode="&#x646;" horiz-adv-x="2055" arabic-form="final" 
d="M147 352h197q-30 -131 -30 -292q0 -430 513 -430q346 0 640 162q18 146 18 267q0 266 -150 607h326q63 -174 81 -304q122 -66 288 -66h50v-296h-53q-168 0 -265 49q-31 -344 -293 -530t-715 -186q-668 0 -668 613q0 188 61 406zM813 1012l148 148l148 -148l-148 -148z
" />
    <glyph glyph-name="uniFEE7" unicode="&#x646;" horiz-adv-x="747" arabic-form="initial" 
d="M-25 0v296h76q178 0 338 78l2 48l2 78q0 227 -82 438h311q39 -174 39 -320q0 -304 -164.5 -461t-481.5 -157h-40zM268 1283l148 148l148 -148l-148 -148z" />
    <glyph glyph-name="uniFEE8" unicode="&#x646;" horiz-adv-x="938" arabic-form="medial" 
d="M-25 0v296h49q132 0 303 67q12 106 12 201v201h259v-249q0 -145 53.5 -182.5t260.5 -37.5h50v-296h-52q-207 0 -292 39.5t-174 174.5q-157 -214 -399 -214h-70zM321 1110l148 148l148 -148l-148 -148z" />
    <glyph glyph-name="uniFEEA" unicode="&#x647;" horiz-adv-x="1163" arabic-form="final" 
d="M685 1182h259v-618l5 -93q5 -101 45 -138t146 -37h48v-296h-109q-216 0 -305 70t-89 240v90q-89 -203 -290 -203q-129 0 -225 76.5t-96 180.5q0 132 165.5 286.5t445.5 283.5v158zM685 808q-196 -112 -337 -254q70 -85 150 -85q72 0 178 77q3 28 3 37l3 46q3 52 3 54v125
z" />
    <glyph glyph-name="uniFEEB" unicode="&#x647;" horiz-adv-x="1307" arabic-form="initial" 
d="M141 922v262q350 0 572 -96q229 -99 368 -287.5t139 -398.5q0 -184 -104.5 -293t-279.5 -109q-195 0 -363 117q-180 -117 -419 -117h-79v296h42q115 0 236 15q-116 105 -116 252q0 204 207 344q-82 15 -181 15h-22zM508 430q134 96 212 219q-47 172 -171 172
q-112 0 -218 -129q75 -185 177 -262zM715 303q114 -59 199 -59q22 0 70 11l1 60q0 150 -87 263q-35 -99 -65 -144t-118 -131z" />
    <glyph glyph-name="uniFEEC" unicode="&#x647;" horiz-adv-x="1268" arabic-form="medial" 
d="M1292 296v-296h-311q246 -153 246 -425q0 -170 -101 -267.5t-277 -97.5q-261 0 -428.5 205t-217.5 585h-228v296h239q88 518 519 888q293 -392 293 -635q0 -137 -208 -253h474zM440 296h19q103 0 192.5 66t89.5 142q0 101 -99 275q-142 -224 -202 -483zM437 0
q46 -195 142 -333q60 -85 164.5 -142t201.5 -57h35q-26 225 -177.5 373.5t-365.5 158.5z" />
    <glyph glyph-name="uniFEEE" unicode="&#x648;" horiz-adv-x="1050" arabic-form="final" 
d="M687 0l-94 1q-425 0 -425 253q0 223 150 404.5t334 181.5q323 0 323 -530v-14h99v-296h-142q-94 -361 -587 -790h-548l151 112q318 235 447 353.5t292 324.5zM718 298l1 45q0 238 -120 238q-135 0 -195 -251q79 -34 251 -34z" />
    <glyph glyph-name="uniFEF0" unicode="&#x649;" horiz-adv-x="2025" arabic-form="final" 
d="M2049 296v-296h-23q-69 0 -132 15l-48 12l-36 7q-106 22 -199 22q-162 0 -211 -125l243 -35l132 -22q192 -31 192 -153q0 -153 -169 -280q-310 -231 -959 -231q-753 0 -753 447q0 145 74 343h198q-39 -133 -39 -217q0 -277 577 -277q532 0 822 132l-274 40
q-193 27 -262.5 74.5t-69.5 150.5q0 182 162 315.5t382 133.5q94 0 201 -24l43 -9l49 -10q58 -13 79 -13h21z" />
    <glyph glyph-name="uniFEF2" unicode="&#x64a;" horiz-adv-x="2155" arabic-form="final" 
d="M2179 296v-296h-32q-111 0 -257 81l-76 43l-44 22q-116 58 -228 58q-69 0 -134 -25l162 -77q144 -69 196.5 -112t52.5 -93q0 -145 -258.5 -243t-641.5 -98q-431 0 -632 117.5t-201 370.5q0 113 28 252h193l-3 -46q-3 -46 -3 -76q0 -179 179 -254q222 -93 661 -93
q185 0 329 38l-104 49l-94 44q-154 73 -154 168q0 125 140.5 206t354.5 81q123 0 258 -41l39 -12q24 -8 68 -22q123 -42 166 -42h35zM1183 -642l148 149l148 -149l-148 -148zM1529 -642l147 149l149 -149l-149 -148z" />
    <glyph glyph-name="uniFEF3" unicode="&#x64a;" horiz-adv-x="747" arabic-form="initial" 
d="M-25 0v296h76q178 0 338 78l2 48l2 78q0 227 -82 438h311q39 -174 39 -320q0 -304 -164.5 -461t-481.5 -157h-40zM28 -345l148 148l148 -148l-148 -148zM374 -345l148 148l148 -148l-148 -148z" />
    <glyph glyph-name="uniFEF4" unicode="&#x64a;" horiz-adv-x="938" arabic-form="medial" 
d="M-25 0v296h49q132 0 303 67q12 106 12 201v201h259v-249q0 -145 53.5 -182.5t260.5 -37.5h50v-296h-52q-207 0 -292 39.5t-174 174.5q-157 -214 -399 -214h-70zM148 -345l148 148l148 -148l-148 -148zM493 -345l148 148l148 -148l-148 -148z" />
    <glyph glyph-name="uniFEF5" unicode="&#xfef5;" horiz-adv-x="1190" arabic-form="isolated" 
d="M135 296q260 67 451 343q-221 422 -433 746h248q145 -206 312 -514q20 146 20 280v527h259v-324q0 -239 -29 -387.5t-106 -296.5l34 -63q114 -210 114 -314q0 -125 -86 -203q-58 -54 -131 -72t-235 -18h-418v296zM763 288q-28 67 -60 136l-20 45q-83 -105 -201 -198h81
q100 0 200 17zM-25 1468v138q110 134 188 134q38 0 152 -39l42 -15q79 -27 120 -27q62 0 156 66q6 5 20 15v-139q-111 -133 -188 -133q-38 0 -152 39l-42 14q-79 28 -120 28q-63 0 -156 -67q-7 -4 -20 -14z" />
    <glyph glyph-name="uniFEF6" unicode="&#xfef6;" horiz-adv-x="1558" arabic-form="final" 
d="M984 427l-73 -70q-114 -109 -144 -132l-212 -162q-24 -18 -80 -63h-518q351 196 662 407q-154 470 -506 986h272q314 -511 438 -878q89 84 113 140.5t24 188.5v834h259v-1162q0 -145 53 -182.5t261 -37.5h50v-296h-52q-205 0 -304.5 30t-165.5 111q-77 94 -77 286z
M0 1468v138q111 134 188 134q39 0 153 -39l41 -15q80 -27 120 -27q63 0 156 66l21 15v-139q-111 -133 -189 -133q-38 0 -152 39l-42 14q-79 28 -120 28q-62 0 -156 -67q-6 -4 -20 -14z" />
    <glyph glyph-name="uniFEF7" unicode="&#xfef7;" horiz-adv-x="1190" arabic-form="isolated" 
d="M135 296q260 67 451 343q-221 422 -373 644h256q77 -104 244 -412q20 146 20 280v527h259v-324q0 -239 -29 -387.5t-106 -296.5l34 -63q114 -210 114 -314q0 -125 -86 -203q-58 -54 -131 -72t-235 -18h-418v296zM763 288q-28 67 -60 136l-20 45q-83 -105 -201 -198h81
q100 0 200 17zM569 1723v-133q-118 30 -267 42q43 -83 117 -139h168v-124h-530v124h171q-75 81 -75 140q0 107 229 107q95 0 187 -17z" />
    <glyph glyph-name="uniFEF8" unicode="&#xfef8;" horiz-adv-x="1558" arabic-form="final" 
d="M984 427l-73 -70q-114 -109 -144 -132l-212 -162q-24 -18 -80 -63h-518q351 196 662 407q-154 470 -415 876h256q239 -401 363 -768q89 84 113 140.5t24 188.5v834h259v-1162q0 -145 53 -182.5t261 -37.5h50v-296h-52q-205 0 -304.5 30t-165.5 111q-77 94 -77 286z
M609 1723v-133q-117 30 -266 42q42 -82 117 -139h168v-124h-531v124h171q-75 81 -75 140q0 107 230 107q95 0 186 -17z" />
    <glyph glyph-name="uniFEF9" unicode="&#xfef9;" horiz-adv-x="1190" arabic-form="isolated" 
d="M135 0v296q262 67 451 343q-156 327 -540 896l-46 69h264q245 -337 448 -733q21 144 21 280v527h259v-324q0 -238 -29 -386.5t-106 -297.5l34 -63q113 -210 113 -313q0 -126 -85 -204q-58 -54 -131 -72t-235 -18h-418zM763 288q-28 67 -60 136l-20 45q-85 -107 -201 -198
h81q100 0 200 17zM653 -502v-154l-518 -134v153l242 62q-149 74 -149 173q0 111 120.5 182.5t307.5 71.5v-146q-188 -12 -288 -102q120 -106 285 -106z" />
    <glyph glyph-name="uniFEFA" unicode="&#xfefa;" horiz-adv-x="1559" arabic-form="final" 
d="M984 427l-73 -70q-114 -109 -144 -132l-212 -162q-24 -18 -80 -63h-518q375 210 648 399q-44 345 -158 597.5t-387 607.5h317q384 -510 446 -1089q89 84 113 140.5t24 188.5v834h259v-1162q0 -145 53 -182.5t261 -37.5h50v-296h-52q-205 0 -304.5 30t-165.5 111
q-77 94 -77 286zM776 -502v-154l-518 -134v153l242 62q-149 74 -149 173q0 111 120.5 182.5t307.5 71.5v-146q-188 -12 -288 -102q120 -106 285 -106z" />
    <glyph glyph-name="uniFEFB" unicode="&#xfefb;" horiz-adv-x="1190" arabic-form="isolated" 
d="M135 0v296q262 67 451 343q-156 327 -540 896l-46 69h264q245 -337 448 -733q21 144 21 280v527h259v-324q0 -238 -29 -386.5t-106 -297.5l34 -63q113 -210 113 -313q0 -126 -85 -204q-58 -54 -131 -72t-235 -18h-418zM763 288q-28 67 -60 136l-20 45q-85 -107 -201 -198
h81q100 0 200 17z" />
    <glyph glyph-name="uniFEFC" unicode="&#xfefc;" horiz-adv-x="1558" arabic-form="final" 
d="M984 427l-73 -70q-114 -109 -144 -132l-212 -162q-24 -18 -80 -63h-518q375 210 648 399q-44 345 -158 597.5t-387 607.5h317q384 -510 446 -1089q89 84 113 140.5t24 188.5v834h259v-1162q0 -145 53 -182.5t261 -37.5h50v-296h-52q-205 0 -304.5 30t-165.5 111
q-77 94 -77 286z" />
    <glyph glyph-name=".notdef" horiz-adv-x="1024" 
d="M877 0h-730v1552h730v-1552zM727 1402h-430v-1252h430v1252z" />
    <glyph glyph-name=".null" unicode="&#xe01b;" horiz-adv-x="1524" 
d="M1063 715h-1141l48 110h1139zM969 495h-1047l48 110h1047zM1188 149q-173 -149 -428 -149q-280 0 -470 190t-190 470t190 470t470 190t476 -196l-48 -111q-183 197 -428 197q-230 0 -390 -160t-160 -390t160 -390t390 -160q250 0 428 201v-162z" />
    <glyph glyph-name="nonmarkingreturn" unicode="&#xe002;" horiz-adv-x="1536" 
 />
    <glyph glyph-name="space" unicode=" " horiz-adv-x="653" 
 />
    <glyph glyph-name="exclam" unicode="!" horiz-adv-x="642" 
d="M173 0v247h296v-247h-296zM222 419l-49 765v296h296v-296l-49 -765h-198z" />
    <glyph glyph-name="quotedbl" unicode="&#x22;" horiz-adv-x="925" 
d="M148 987l-49 592h296l-62 -592h-185zM592 987l-49 592h296l-61 -592h-186z" />
    <glyph glyph-name="numbersign" unicode="#" horiz-adv-x="1308" 
d="M185 0l107 426h-274l29 148h282l83 333h-298l29 148h306l107 425h152l-106 -425h262l106 425h153l-106 -425h273l-29 -148h-281l-84 -333h299l-30 -148h-306l-106 -426h-153l107 426h-263l-106 -426h-153zM481 574h263l83 333h-262z" />
    <glyph glyph-name="dollar" unicode="$" horiz-adv-x="1308" 
d="M586 -160v164q-167 0 -405 74v218q223 -101 405 -111v475l-51 35q-184 124 -248 209.5t-64 207.5q0 149 97.5 248t265.5 119v162h161v-162q157 -8 318 -63v-201q-164 77 -318 91v-448l45 -30q189 -121 255.5 -207t66.5 -210q0 -162 -98.5 -271.5t-268.5 -136.5v-163h-161
zM716 197q143 45 143 176q0 100 -143 202v-378zM617 942v356q-138 -46 -138 -164q0 -104 138 -192z" />
    <glyph glyph-name="percent" unicode="%" horiz-adv-x="1604" 
d="M120 -37l1164 1554h200l-1163 -1554h-201zM373 740q-161 0 -254.5 99.5t-93.5 270.5q0 173 94 271.5t258 98.5q163 0 257 -98.5t94 -270.5q0 -174 -94 -272.5t-261 -98.5zM375 888q131 0 131 223q0 221 -129 221q-130 0 -130 -222t128 -222zM1224 0q-161 0 -254.5 99.5
t-93.5 270.5q0 173 94 271.5t258 98.5t257.5 -98.5t93.5 -270.5q0 -175 -94 -273t-261 -98zM1226 148q131 0 131 223q0 221 -129 221q-130 0 -130 -222t128 -222z" />
    <glyph glyph-name="ampersand" unicode="&#x26;" horiz-adv-x="1525" 
d="M1417 0h-348l-66 79q-175 -116 -385 -116q-239 0 -394.5 134t-155.5 340q0 306 369 458q-106 186 -106 304q0 135 117.5 227t291.5 92q167 0 275 -88.5t108 -225.5q0 -213 -327 -365q127 -235 300 -444q101 146 101 407v23h249q0 -327 -236 -580q98 -127 207 -245z
M538 742q-183 -83 -183 -251q0 -141 91.5 -239t223.5 -98q116 0 215 70q-165 209 -311 457zM703 977q173 92 173 221q0 134 -132 134t-132 -129q0 -87 91 -226z" />
    <glyph glyph-name="quotesingle" unicode="'" horiz-adv-x="506" 
d="M161 962l-62 617h321l-74 -617h-185z" />
    <glyph glyph-name="parenleft" unicode="(" horiz-adv-x="759" 
d="M660 1591v-191q-266 -268 -266 -758q0 -491 266 -759v-191q-243 131 -390 391t-147 559t144.5 555t392.5 394z" />
    <glyph glyph-name="parenright" unicode=")" horiz-adv-x="759" 
d="M99 -308v191q265 268 265 756q0 493 -265 761v191q243 -130 390 -390.5t147 -559.5q0 -298 -145 -554.5t-392 -394.5z" />
    <glyph glyph-name="asterisk" unicode="*" horiz-adv-x="955" 
d="M545 1181l257 142l66 -205l-291 -36q2 13 2 20q0 43 -34 79zM572 1064l214 -201l-175 -127l-124 266q56 11 85 62zM468 1002l-125 -266l-174 127l214 201q28 -51 85 -62zM377 1082l-291 36l67 205l256 -142q-33 -36 -33 -79q0 -7 1 -20zM369 1480h216l-55 -288
q-27 13 -53 13t-52 -13z" />
    <glyph glyph-name="plus" unicode="+" horiz-adv-x="1629" 
d="M728 0v506h-506v173h506v505h173v-505h505v-173h-505v-506h-173z" />
    <glyph glyph-name="comma" unicode="," horiz-adv-x="506" 
d="M216 0h-123v321h321v-249q0 -393 -321 -393v111q56 0 89.5 49t33.5 129v32z" />
    <glyph glyph-name="hyphen" unicode="-" horiz-adv-x="1185" 
d="M148 543v197h888v-197h-888z" />
    <glyph glyph-name="period" unicode="." horiz-adv-x="506" 
d="M93 0v321h321v-321h-321z" />
    <glyph glyph-name="slash" unicode="/" horiz-adv-x="1158" 
d="M222 -296l533 1776h180l-533 -1776h-180z" />
    <glyph glyph-name="zero" unicode="0" horiz-adv-x="1308" 
d="M647 -37q-252 0 -409.5 216t-157.5 561q0 349 158 563t416 214q256 0 414.5 -213.5t158.5 -559.5q0 -355 -158.5 -568t-421.5 -213zM650 148q263 0 263 592t-259 592t-259 -591q0 -593 255 -593z" />
    <glyph glyph-name="one" unicode="1" horiz-adv-x="1308" 
d="M266 0v173h296v1092l-296 -74v178l593 148v-1344h296v-173h-889z" />
    <glyph glyph-name="two" unicode="2" horiz-adv-x="1308" 
d="M126 0v234l16 22q119 159 244 268l121 107q299 264 299 463q0 109 -70 170.5t-194 61.5q-163 0 -378 -110v217q226 84 437 84q236 0 378 -111.5t142 -298.5q0 -129 -69 -235t-243 -246l-100 -80q-209 -168 -248 -312h654v-234h-989z" />
    <glyph glyph-name="three" unicode="3" horiz-adv-x="1308" 
d="M180 11v222q220 -85 363 -85q133 0 213.5 68t80.5 181q0 293 -429 293h-91v177l77 1q205 0 303.5 64.5t98.5 198.5q0 201 -248 201q-163 0 -348 -83v202q195 67 411 67q229 0 358.5 -94t129.5 -260q0 -262 -327 -370q374 -86 374 -400q0 -199 -150 -315t-408 -116
q-219 0 -408 48z" />
    <glyph glyph-name="four" unicode="4" horiz-adv-x="1308" 
d="M765 0v395h-691v222l679 863h271v-863h173v-222h-173v-395h-259zM311 617h460v580z" />
    <glyph glyph-name="five" unicode="5" horiz-adv-x="1308" 
d="M233 6v215q189 -73 315 -73q127 0 201.5 75.5t74.5 204.5q0 153 -118.5 235.5t-338.5 82.5q-54 0 -108 -9v743h850v-234h-634l-15 -319q320 0 499.5 -131t179.5 -366q0 -217 -157 -342t-430 -125q-116 0 -319 43z" />
    <glyph glyph-name="six" unicode="6" horiz-adv-x="1308" 
d="M389 785q139 168 356 168q198 0 328 -130.5t130 -329.5q0 -233 -150 -381.5t-386 -148.5q-276 0 -431 196.5t-155 546.5q0 442 243 669q153 143 429 143q150 0 372 -54v-216q-202 85 -362 85q-178 0 -276 -144t-98 -404zM907 444q0 151 -66.5 239t-180.5 88
q-109 0 -183.5 -80t-74.5 -198q0 -155 73 -250t191 -95q110 0 175.5 80.5t65.5 215.5z" />
    <glyph glyph-name="seven" unicode="7" horiz-adv-x="1308" 
d="M285 0q21 167 82.5 293t276.5 440l348 507h-770v240h1012v-240q-291 -367 -456 -696.5t-165 -543.5h-328z" />
    <glyph glyph-name="eight" unicode="8" horiz-adv-x="1308" 
d="M417 793q-214 141 -214 340q0 172 135 278.5t354 106.5q206 0 329.5 -91t123.5 -243q0 -196 -250 -371q316 -165 316 -415q0 -195 -154 -315t-404 -120q-239 0 -385.5 110t-146.5 290q0 261 296 430zM741 897q148 115 148 246q0 86 -61 137.5t-161 51.5q-93 0 -150.5 -45
t-57.5 -118q0 -72 57 -126.5t225 -145.5zM563 694q-161 -134 -161 -283q0 -116 80.5 -191t204.5 -75q109 0 182.5 59t73.5 147q0 76 -49.5 130t-192.5 135z" />
    <glyph glyph-name="nine" unicode="9" horiz-adv-x="1308" 
d="M187 11v214q189 -77 353 -77q175 0 276.5 145.5t101.5 396.5q-141 -169 -348 -169q-195 0 -328 135t-133 333q0 231 150.5 379.5t384.5 148.5q274 0 429.5 -195t155.5 -538q0 -439 -247 -672q-159 -149 -441 -149q-137 0 -354 48zM405 1035q0 -154 66.5 -243t180.5 -89
q108 0 182 81t74 199q0 157 -72.5 253t-190.5 96q-110 0 -175 -80t-65 -217z" />
    <glyph glyph-name="colon" unicode=":" horiz-adv-x="506" 
d="M105 0v296h296v-296h-296zM105 802v296h296v-296h-296z" />
    <glyph glyph-name="semicolon" unicode=";" horiz-adv-x="506" 
d="M216 0h-111v296h296v-223q0 -182 -75 -281.5t-221 -112.5v111q111 32 111 179v31zM105 802v296h296v-296h-296z" />
    <glyph glyph-name="less" unicode="&#x3c;" horiz-adv-x="1629" 
d="M1406 0l-1184 592l1184 592v-193l-796 -398v-2l796 -398v-193z" />
    <glyph glyph-name="equal" unicode="=" horiz-adv-x="1629" 
d="M222 309v172h1184v-172h-1184zM222 703v173h1184v-173h-1184z" />
    <glyph glyph-name="greater" unicode="&#x3e;" horiz-adv-x="1629" 
d="M222 0v193l796 398v2l-796 398v193l1184 -592z" />
    <glyph glyph-name="question" unicode="?" horiz-adv-x="1018" 
d="M279 0v247h297v-247h-297zM576 419h-297v28q0 161 148 325l71 78q144 159 144 284q0 186 -234 186q-151 0 -346 -89v226q199 60 389 60q237 0 374.5 -91t137.5 -248q0 -144 -165 -300l-67 -64q-94 -89 -124.5 -150.5t-30.5 -159.5v-85z" />
    <glyph glyph-name="at" unicode="@" horiz-adv-x="1729" 
d="M1061 45q-174 -82 -349 -82q-285 0 -468.5 173.5t-183.5 441.5q0 337 244 617q131 151 314.5 236.5t375.5 85.5q281 0 469 -178.5t188 -446.5q0 -252 -153 -424t-377 -172q-163 0 -163 109q0 47 56 230h-21q-78 -149 -190 -244t-211 -95q-179 0 -179 231q0 237 161.5 441
t349.5 204q24 0 65 -6q60 -8 131 -8h134l-111 -558q-11 -52 -11 -97q0 -68 77 -68q119 0 216 138.5t97 308.5q0 215 -152.5 360.5t-376.5 145.5q-346 0 -586 -270q-218 -245 -218 -537q0 -214 146.5 -351.5t373.5 -137.5q155 0 309 72zM1011 824l38 186q-80 37 -142 37
q-116 0 -188 -91q-127 -162 -127 -383q0 -123 71 -123q53 0 157 111.5t191 262.5z" />
    <glyph glyph-name="A" unicode="A" horiz-adv-x="1508" 
d="M23 0l576 1480h308l576 -1480h-316l-154 395h-612l-154 -395h-224zM477 592h460l-230 590z" />
    <glyph glyph-name="B" unicode="B" horiz-adv-x="1290" 
d="M185 0v1480h503q223 0 339.5 -84t116.5 -245q0 -267 -355 -378q415 -101 415 -407q0 -177 -121.5 -271.5t-348.5 -94.5h-549zM481 864h67q130 0 206.5 64t76.5 174q0 102 -61.5 138.5t-232.5 36.5h-56v-413zM481 210h60q194 0 267.5 41.5t73.5 151.5q0 113 -98.5 188
t-248.5 75h-54v-456z" />
    <glyph glyph-name="C" unicode="C" horiz-adv-x="1459" 
d="M1376 59q-215 -96 -513 -96q-364 0 -567 205t-203 572q0 374 204.5 575.5t583.5 201.5q242 0 481 -57v-241q-271 95 -454 95q-234 0 -361 -148.5t-127 -421.5q0 -268 136.5 -418t379.5 -150q218 0 440 110v-227z" />
    <glyph glyph-name="D" unicode="D" horiz-adv-x="1624" 
d="M185 0v1480h637q344 0 527 -182.5t183 -526.5q0 -366 -194 -568.5t-543 -202.5h-610zM493 210h230q268 0 375 151q107 150 107 392q0 212 -96 353q-66 97 -159 134t-271 37h-186v-1067z" />
    <glyph glyph-name="E" unicode="E" horiz-adv-x="1230" 
d="M185 0v1480h925v-203h-617v-413h506v-204h-506v-450h664v-210h-972z" />
    <glyph glyph-name="F" unicode="F" horiz-adv-x="1176" 
d="M185 0v1480h931v-203h-623v-450h512v-204h-512v-623h-308z" />
    <glyph glyph-name="G" unicode="G" horiz-adv-x="1527" 
d="M1367 35q-278 -72 -480 -72q-383 0 -588.5 201.5t-205.5 577.5q0 373 205.5 574t585.5 201q243 0 482 -57v-241q-277 95 -455 95q-235 0 -363 -150t-128 -425q0 -266 137 -417.5t378 -151.5q53 0 124 15v487h308v-637z" />
    <glyph glyph-name="H" unicode="H" horiz-adv-x="1598" 
d="M185 0v1480h308v-601h612v601h308v-1480h-308v675h-612v-675h-308z" />
    <glyph glyph-name="I" unicode="I" horiz-adv-x="679" 
d="M185 0v1480h308v-1480h-308z" />
    <glyph glyph-name="J" unicode="J" horiz-adv-x="857" 
d="M-68 -260l-2 220q120 -47 247 -47q106 0 146 59t40 212v1296h309v-1263q0 -273 -111 -393t-363 -120q-126 0 -266 36z" />
    <glyph glyph-name="K" unicode="K" horiz-adv-x="1454" 
d="M185 0v1480h296v-718l566 718h256l-513 -664l637 -816h-385l-561 728v-728h-296z" />
    <glyph glyph-name="L" unicode="L" horiz-adv-x="1191" 
d="M185 0v1480h308v-1270h667v-210h-975z" />
    <glyph glyph-name="M" unicode="M" horiz-adv-x="1859" 
d="M185 0v1480h408l356 -1041l367 1041h358v-1480h-284v1117l-361 -1018h-248l-354 1033v-1132h-242z" />
    <glyph glyph-name="N" unicode="N" horiz-adv-x="1574" 
d="M185 0v1480h271l686 -1011v1011h247v-1480h-276l-681 1011v-1011h-247z" />
    <glyph glyph-name="O" unicode="O" horiz-adv-x="1686" 
d="M834 -37q-337 0 -539 212t-202 565q0 357 203 567t548 210q343 0 546.5 -210t203.5 -564q0 -362 -203.5 -571t-556.5 -209zM838 167q198 0 313.5 155.5t115.5 421.5q0 258 -116 414t-307 156q-193 0 -308.5 -156t-115.5 -417q0 -259 115 -416.5t303 -157.5z" />
    <glyph glyph-name="P" unicode="P" horiz-adv-x="1256" 
d="M185 0v1480h516q270 0 385.5 -90.5t115.5 -302.5q0 -240 -154.5 -373.5t-432.5 -133.5h-128v-580h-302zM487 783h60q158 0 249.5 73.5t91.5 199.5q0 221 -281 221h-120v-494z" />
    <glyph glyph-name="Q" unicode="Q" horiz-adv-x="1687" 
d="M1589 -296q-398 105 -648 264q-73 -5 -108 -5q-336 0 -538 212t-202 565q0 357 203 567t548 210t547.5 -210.5t202.5 -569.5q0 -504 -395 -703q291 -100 590 -132zM839 167q197 0 312.5 155t115.5 421q0 259 -115.5 415t-307.5 156q-193 0 -308.5 -156t-115.5 -417
q0 -259 115 -416.5t304 -157.5z" />
    <glyph glyph-name="R" unicode="R" horiz-adv-x="1413" 
d="M185 0v1480h554q220 0 335.5 -93.5t115.5 -273.5q0 -137 -76.5 -249.5t-210.5 -172.5l484 -691h-375l-367 605h-170v-605h-290zM475 808h71q335 0 335 271q0 198 -299 198h-107v-469z" />
    <glyph glyph-name="S" unicode="S" horiz-adv-x="1170" 
d="M102 13v254q239 -100 409 -100q119 0 187.5 53t68.5 144q0 72 -43 121.5t-163 117.5l-99 55q-199 112 -281 214.5t-82 239.5q0 183 134.5 294t355.5 111q177 0 399 -51v-237q-227 85 -359 85q-102 0 -163.5 -45.5t-61.5 -119.5q0 -61 43 -107t162 -113l106 -59
q214 -120 295 -221t81 -246q0 -206 -153 -323t-422 -117q-178 0 -414 50z" />
    <glyph glyph-name="T" unicode="T" horiz-adv-x="1413" 
d="M552 0v1277h-530v203h1369v-203h-530v-1277h-309z" />
    <glyph glyph-name="U" unicode="U" horiz-adv-x="1508" 
d="M173 1480h308v-907q0 -215 71 -310.5t229 -95.5q151 0 218.5 91t67.5 293v929h268v-909q0 -205 -39 -312.5t-142 -186.5q-141 -109 -379 -109q-255 0 -410 116q-107 80 -149.5 189.5t-42.5 305.5v906z" />
    <glyph glyph-name="V" unicode="V" horiz-adv-x="1431" 
d="M572 0l-547 1480h329l424 -1145l410 1145h222l-529 -1480h-309z" />
    <glyph glyph-name="W" unicode="W" horiz-adv-x="1851" 
d="M390 0l-369 1480h291l270 -1083l255 1083h257l242 -1077l284 1077h213l-388 -1480h-294l-228 1015l-239 -1015h-294z" />
    <glyph glyph-name="X" unicode="X" horiz-adv-x="1366" 
d="M49 0l474 729l-453 751h359l301 -498l326 498h249l-454 -698l470 -782h-358l-321 529l-344 -529h-249z" />
    <glyph glyph-name="Y" unicode="Y" horiz-adv-x="1406" 
d="M537 0v620l-497 860h340l361 -625l377 625h244l-517 -858v-622h-308z" />
    <glyph glyph-name="Z" unicode="Z" horiz-adv-x="1320" 
d="M106 0v210l736 1067h-694v203h1052v-203l-736 -1067h736v-210h-1094z" />
    <glyph glyph-name="bracketleft" unicode="[" horiz-adv-x="759" 
d="M197 -296v1875h463v-173h-216v-1529h216v-173h-463z" />
    <glyph glyph-name="backslash" unicode="\" horiz-adv-x="1158" 
d="M935 -296h-180l-533 1776h180z" />
    <glyph glyph-name="bracketright" unicode="]" horiz-adv-x="759" 
d="M562 -296h-463v173h216v1529h-216v173h463v-1875z" />
    <glyph glyph-name="asciicircum" unicode="^" horiz-adv-x="1357" 
d="M1270 395h-193l-398 796h-2l-398 -796h-193l592 1184z" />
    <glyph glyph-name="underscore" unicode="_" horiz-adv-x="1024" 
d="M0 -173v173h1024v-173h-1024z" />
    <glyph glyph-name="grave" unicode="`" horiz-adv-x="1308" 
d="M867 1283h-191l-321 321h271z" />
    <glyph glyph-name="a" unicode="a" horiz-adv-x="1204" 
d="M723 118q-148 -143 -317 -143q-144 0 -234 88t-90 228q0 182 145.5 280.5t416.5 98.5h79v100q0 171 -195 171q-173 0 -350 -98v204q201 76 398 76q431 0 431 -343v-486q0 -129 79 -129q18 0 50 11v-173q-94 -28 -166 -28q-182 0 -234 143h-13zM723 277v223h-70
q-134 0 -210.5 -48t-76.5 -132q0 -61 41.5 -102.5t102.5 -41.5q104 0 213 101z" />
    <glyph glyph-name="b" unicode="b" horiz-adv-x="1357" 
d="M185 0v1579h296v-688q114 232 359 232q198 0 311.5 -145t113.5 -399q0 -275 -128 -439.5t-342 -164.5q-184 0 -314 136l-55 -111h-241zM481 287q108 -120 230 -120q109 0 174 105.5t65 281.5q0 337 -217 337q-131 0 -252 -169v-435z" />
    <glyph glyph-name="c" unicode="c" horiz-adv-x="1090" 
d="M995 24q-184 -49 -341 -49q-263 0 -415.5 154.5t-152.5 420.5q0 269 157 421t434 152q134 0 309 -43v-214q-182 59 -291 59q-133 0 -214 -102t-81 -271q0 -173 87.5 -277t233.5 -104q133 0 274 58v-205z" />
    <glyph glyph-name="d" unicode="d" horiz-adv-x="1357" 
d="M876 0v207q-114 -232 -359 -232q-198 0 -311 145t-113 399q0 276 127.5 440t342.5 164q172 0 313 -136v592h297v-1579h-297zM876 811q-107 120 -229 120q-109 0 -174 -105t-65 -282q0 -337 216 -337q132 0 252 169v435z" />
    <glyph glyph-name="e" unicode="e" horiz-adv-x="1200" 
d="M1079 37q-211 -62 -400 -62q-275 0 -434 156t-159 426q0 255 145.5 410.5t384.5 155.5q241 0 352 -152t111 -481h-681q30 -314 345 -314q149 0 336 69v-208zM394 657h394q0 281 -181 281q-184 0 -213 -281z" />
    <glyph glyph-name="f" unicode="f" horiz-adv-x="849" 
d="M216 0v913h-151v185h151v79q0 427 405 427q131 0 270 -38v-200q-126 53 -226 53q-84 0 -118.5 -52t-34.5 -179v-90h278v-185h-278v-913h-296z" />
    <glyph glyph-name="g" unicode="g" horiz-adv-x="1351" 
d="M193 -341l24 215q183 -84 349 -84q164 0 237 70t73 227v150q-108 -237 -357 -237q-196 0 -311 146.5t-115 396.5q0 263 129 421.5t343 158.5q168 0 311 -136l31 111h266v-838q0 -251 -30.5 -362t-118.5 -189q-148 -128 -417 -128q-191 0 -414 78zM876 409v405
q-107 121 -224 121q-112 0 -178 -102t-66 -274q0 -322 207 -322q143 0 261 172z" />
    <glyph glyph-name="h" unicode="h" horiz-adv-x="1345" 
d="M185 0v1579h296v-688q145 232 374 232q147 0 232 -93t85 -254v-776h-296v703q0 187 -124 187q-141 0 -271 -199v-691h-296z" />
    <glyph glyph-name="i" unicode="i" horiz-adv-x="666" 
d="M185 0v1098h296v-1098h-296zM185 1283v247h296v-247h-296z" />
    <glyph glyph-name="j" unicode="j" horiz-adv-x="682" 
d="M-179 -373v198q129 -59 221 -59q86 0 122.5 53.5t36.5 180.5v1098h296v-1078q0 -230 -102.5 -335t-327.5 -105q-100 0 -246 47zM201 1283v247h296v-247h-296z" />
    <glyph glyph-name="k" unicode="k" horiz-adv-x="1296" 
d="M185 0v1579h296v-993h19l391 512h246l-361 -470l474 -628h-360l-390 549h-19v-549h-296z" />
    <glyph glyph-name="l" unicode="l" horiz-adv-x="666" 
d="M185 0v1579h296v-1579h-296z" />
    <glyph glyph-name="m" unicode="m" horiz-adv-x="1986" 
d="M185 0v1098h284v-207q130 232 370 232q124 0 204 -61t98 -171q154 232 372 232q301 0 301 -332v-791h-284v694q0 195 -130 195q-133 0 -259 -192v-697h-284v694q0 196 -131 196t-257 -193v-697h-284z" />
    <glyph glyph-name="n" unicode="n" horiz-adv-x="1345" 
d="M185 0v1098h296v-207q145 232 374 232q147 0 232 -93t85 -254v-776h-296v703q0 187 -124 187q-141 0 -271 -199v-691h-296z" />
    <glyph glyph-name="o" unicode="o" horiz-adv-x="1308" 
d="M646 -25q-257 0 -408.5 155.5t-151.5 418.5q0 266 152.5 420t414.5 154q263 0 415.5 -154t152.5 -418q0 -270 -153 -423t-422 -153zM651 160q120 0 187.5 103.5t67.5 287.5q0 179 -67.5 283t-185.5 104q-117 0 -184.5 -104t-67.5 -285q0 -179 67 -284t183 -105z" />
    <glyph glyph-name="p" unicode="p" horiz-adv-x="1357" 
d="M185 -395v1493h296v-207q114 232 359 232q198 0 311.5 -145t113.5 -399q0 -276 -128 -440t-343 -164q-173 0 -313 136v-506h-296zM481 287q108 -120 230 -120q109 0 174 105.5t65 281.5q0 337 -217 337q-131 0 -252 -169v-435z" />
    <glyph glyph-name="q" unicode="q" horiz-adv-x="1357" 
d="M876 -395v602q-114 -232 -359 -232q-198 0 -311 145t-113 399q0 276 127.5 440t342.5 164q172 0 313 -136l37 111h260v-1493h-297zM876 811q-107 120 -229 120q-109 0 -174 -105t-65 -282q0 -337 216 -337q132 0 252 169v435z" />
    <glyph glyph-name="r" unicode="r" horiz-adv-x="931" 
d="M185 0v1098h296v-207q115 232 350 232q28 0 55 -6v-264q-63 23 -117 23q-177 0 -288 -179v-697h-296z" />
    <glyph glyph-name="s" unicode="s" horiz-adv-x="1158" 
d="M156 35v217q220 -92 376 -92q182 0 182 124q0 80 -150 140l-100 40q-163 66 -233 142t-70 188q0 156 119 242.5t333 86.5q134 0 319 -39v-208q-178 62 -295 62q-184 0 -184 -114q0 -75 136 -127l86 -33q193 -73 268.5 -148t75.5 -193q0 -155 -128.5 -251.5t-334.5 -96.5
q-198 0 -400 60z" />
    <glyph glyph-name="t" unicode="t" horiz-adv-x="830" 
d="M751 6q-106 -31 -167 -31q-201 0 -293 86t-92 274v578h-123v185h123v185l296 34v-219h235v-185h-235v-539q0 -202 165 -202q38 0 91 14v-180z" />
    <glyph glyph-name="u" unicode="u" horiz-adv-x="1345" 
d="M864 0v207q-144 -232 -374 -232q-147 0 -232 93t-85 254v776h296v-703q0 -187 125 -187q140 0 270 199v691h296v-1098h-296z" />
    <glyph glyph-name="v" unicode="v" horiz-adv-x="1215" 
d="M456 0l-419 1098h312l307 -792l305 792h214l-423 -1098h-296z" />
    <glyph glyph-name="w" unicode="w" horiz-adv-x="1767" 
d="M379 0l-305 1098h275l216 -769l230 769h256l207 -773l233 773h206l-326 -1098h-284l-200 753l-224 -753h-284z" />
    <glyph glyph-name="x" unicode="x" horiz-adv-x="1210" 
d="M68 0l377 551l-361 547h337l236 -348l226 348h240l-344 -539l369 -559h-337l-246 363l-252 -363h-245z" />
    <glyph glyph-name="y" unicode="y" horiz-adv-x="1194" 
d="M189 -395l249 395l-407 1098h318l272 -734l323 734h225l-678 -1493h-302z" />
    <glyph glyph-name="z" unicode="z" horiz-adv-x="1210" 
d="M123 0v197l614 716h-586v185h936v-185l-614 -716h626v-197h-976z" />
    <glyph glyph-name="braceleft" unicode="{" horiz-adv-x="759" 
d="M99 740h49q138 0 138 130q0 70 -19 143l-23 92q-22 89 -22 170q0 142 110 223t304 81v-173q-94 -6 -130 -33.5t-36 -94.5q0 -29 10 -90l15 -85q11 -69 11 -142q0 -205 -197 -319q197 -116 197 -320q0 -73 -11 -142l-15 -85q-10 -61 -10 -90q0 -67 36 -94.5t130 -33.5
v-173q-194 0 -304 81t-110 223q0 81 22 170l23 92q19 73 19 144q0 129 -138 129h-49v197z" />
    <glyph glyph-name="bar" unicode="|" horiz-adv-x="790" 
d="M308 -296v1875h173v-1875h-173z" />
    <glyph glyph-name="braceright" unicode="}" horiz-adv-x="759" 
d="M636 740v-197h-50q-137 0 -137 -130q0 -70 18 -143l23 -92q23 -89 23 -170q0 -142 -110.5 -223t-303.5 -81v173q94 6 130 33.5t36 94.5q0 29 -10 90l-15 85q-11 69 -11 142q0 204 196 320q-196 114 -196 319q0 73 11 142l15 85q10 61 10 90q0 67 -36 94.5t-130 33.5v173
q194 0 304 -81t110 -223q0 -81 -23 -170l-23 -92q-18 -73 -18 -144q0 -129 137 -129h50z" />
    <glyph glyph-name="asciitilde" unicode="~" horiz-adv-x="1308" 
d="M111 419q0 172 73 270t202 98q83 0 242 -82l120 -63l98 -52q34 -16 70 -16q48 0 78 47t30 122v16h173q0 -174 -72 -272t-200 -98q-86 0 -255 87l-123 63l-93 49q-30 14 -60 14q-110 0 -110 -183h-173z" />
    <glyph glyph-name="quotesinglbase" horiz-adv-x="506" 
d="M216 0h-123v321h321v-249q0 -393 -321 -393v111q56 0 89.5 49t33.5 129v32z" />
    <glyph glyph-name="quotesinglbase" unicode="&#x201a;" horiz-adv-x="506" 
d="M216 0h-123v321h321v-249q0 -393 -321 -393v111q56 0 89.5 49t33.5 129v32z" />
    <glyph glyph-name="florin" horiz-adv-x="1308" 
d="M219 -296l198 993h-149v185h185l20 90q117 545 571 545q120 0 214 -18v-204q-123 38 -216 38q-200 0 -253 -274l-34 -177h177v-185h-214l-197 -993h-302z" />
    <glyph glyph-name="florin" unicode="&#x192;" horiz-adv-x="1308" 
d="M219 -296l198 993h-149v185h185l20 90q117 545 571 545q120 0 214 -18v-204q-123 38 -216 38q-200 0 -253 -274l-34 -177h177v-185h-214l-197 -993h-302z" />
    <glyph glyph-name="quotedblbase" horiz-adv-x="925" 
d="M204 0h-111v296h296v-223q0 -182 -75 -281.5t-221 -112.5v111q111 32 111 179v31zM648 0h-111v296h296v-223q0 -182 -75 -281.5t-221 -112.5v111q111 32 111 179v31z" />
    <glyph glyph-name="quotedblbase" unicode="&#x201e;" horiz-adv-x="925" 
d="M204 0h-111v296h296v-223q0 -182 -75 -281.5t-221 -112.5v111q111 32 111 179v31zM648 0h-111v296h296v-223q0 -182 -75 -281.5t-221 -112.5v111q111 32 111 179v31z" />
    <glyph glyph-name="ellipsis" unicode="&#x85;" horiz-adv-x="2048" 
d="M181 0v321h321v-321h-321zM864 0v321h320v-321h-320zM1546 0v321h321v-321h-321z" />
    <glyph glyph-name="ellipsis" unicode="&#x2026;" horiz-adv-x="2048" 
d="M181 0v321h321v-321h-321zM864 0v321h320v-321h-320zM1546 0v321h321v-321h-321z" />
    <glyph glyph-name="dagger" horiz-adv-x="1308" 
d="M506 -296l25 1098l-352 -25v222l352 -24l-25 505h296l-25 -505l352 24v-222l-352 25l25 -1098h-296z" />
    <glyph glyph-name="dagger" unicode="&#x2020;" horiz-adv-x="1308" 
d="M506 -296l25 1098l-352 -25v222l352 -24l-25 505h296l-25 -505l352 24v-222l-352 25l25 -1098h-296z" />
    <glyph glyph-name="daggerdbl" horiz-adv-x="1308" 
d="M506 -296l25 506l-352 -25v222l352 -25v420l-352 -25v222l352 -24l-25 505h296l-25 -505l352 24v-222l-352 25v-420l352 25v-222l-352 25l25 -506h-296z" />
    <glyph glyph-name="daggerdbl" unicode="&#x2021;" horiz-adv-x="1308" 
d="M506 -296l25 506l-352 -25v222l352 -25v420l-352 -25v222l352 -24l-25 505h296l-25 -505l352 24v-222l-352 25v-420l352 25v-222l-352 25l25 -506h-296z" />
    <glyph glyph-name="circumflex" horiz-adv-x="1308" 
d="M276 1283l241 321h273l241 -321h-179l-198 197h-2l-197 -197h-179z" />
    <glyph glyph-name="circumflex" unicode="&#x2c6;" horiz-adv-x="1308" 
d="M276 1283l241 321h273l241 -321h-179l-198 197h-2l-197 -197h-179z" />
    <glyph glyph-name="perthousand" horiz-adv-x="2381" 
d="M120 -37l1164 1554h200l-1163 -1554h-201zM373 740q-161 0 -254.5 99.5t-93.5 270.5q0 173 94 271.5t258 98.5q163 0 257 -98.5t94 -270.5q0 -174 -94 -272.5t-261 -98.5zM375 888q131 0 131 223q0 221 -129 221q-130 0 -130 -222t128 -222zM1224 0q-161 0 -254.5 99.5
t-93.5 270.5q0 173 94 271.5t258 98.5t257.5 -98.5t93.5 -270.5q0 -175 -94 -273t-261 -98zM1226 148q131 0 131 223q0 221 -129 221q-130 0 -130 -222t128 -222zM2001 0q-161 0 -254 99.5t-93 270.5q0 173 93.5 271.5t257.5 98.5t258 -98.5t94 -270.5q0 -175 -94.5 -273
t-261.5 -98zM2003 148q132 0 132 223q0 221 -130 221q-129 0 -129 -222t127 -222z" />
    <glyph glyph-name="perthousand" unicode="&#x2030;" horiz-adv-x="2381" 
d="M120 -37l1164 1554h200l-1163 -1554h-201zM373 740q-161 0 -254.5 99.5t-93.5 270.5q0 173 94 271.5t258 98.5q163 0 257 -98.5t94 -270.5q0 -174 -94 -272.5t-261 -98.5zM375 888q131 0 131 223q0 221 -129 221q-130 0 -130 -222t128 -222zM1224 0q-161 0 -254.5 99.5
t-93.5 270.5q0 173 94 271.5t258 98.5t257.5 -98.5t93.5 -270.5q0 -175 -94 -273t-261 -98zM1226 148q131 0 131 223q0 221 -129 221q-130 0 -130 -222t128 -222zM2001 0q-161 0 -254 99.5t-93 270.5q0 173 93.5 271.5t257.5 98.5t258 -98.5t94 -270.5q0 -175 -94.5 -273
t-261.5 -98zM2003 148q132 0 132 223q0 221 -130 221q-129 0 -129 -222t127 -222z" />
    <glyph glyph-name="Scaron" horiz-adv-x="1170" 
d="M102 13v254q239 -100 409 -100q119 0 187.5 53t68.5 144q0 72 -43 121.5t-163 117.5l-99 55q-199 112 -281 214.5t-82 239.5q0 183 134.5 294t355.5 111q177 0 399 -51v-237q-227 85 -359 85q-102 0 -163.5 -45.5t-61.5 -119.5q0 -61 43 -107t162 -113l106 -59
q214 -120 295 -221t81 -246q0 -206 -153 -323t-422 -117q-178 0 -414 50zM969 1926l-241 -321h-273l-241 321h179l197 -198h2l198 198h179z" />
    <glyph glyph-name="Scaron" unicode="&#x160;" horiz-adv-x="1170" 
d="M102 13v254q239 -100 409 -100q119 0 187.5 53t68.5 144q0 72 -43 121.5t-163 117.5l-99 55q-199 112 -281 214.5t-82 239.5q0 183 134.5 294t355.5 111q177 0 399 -51v-237q-227 85 -359 85q-102 0 -163.5 -45.5t-61.5 -119.5q0 -61 43 -107t162 -113l106 -59
q214 -120 295 -221t81 -246q0 -206 -153 -323t-422 -117q-178 0 -414 50zM969 1926l-241 -321h-273l-241 321h179l197 -198h2l198 198h179z" />
    <glyph glyph-name="guilsinglleft" horiz-adv-x="709" 
d="M641 888l-262 -339l262 -339l-139 -105l-416 444l416 444z" />
    <glyph glyph-name="guilsinglleft" unicode="&#x2039;" horiz-adv-x="709" 
d="M641 888l-262 -339l262 -339l-139 -105l-416 444l416 444z" />
    <glyph glyph-name="OE" horiz-adv-x="2169" 
d="M1124 37q-151 -74 -295 -74q-333 0 -534.5 213t-201.5 564q0 354 202 565.5t540 211.5q147 0 289 -74v37h925v-203h-616v-413h505v-204h-505v-450h663v-210h-972v37zM1124 594v293q0 227 -67.5 327t-220.5 100q-186 0 -301 -158.5t-115 -415.5t115 -415t303 -158
q152 0 219 99.5t67 327.5z" />
    <glyph glyph-name="OE" unicode="&#x152;" horiz-adv-x="2169" 
d="M1124 37q-151 -74 -295 -74q-333 0 -534.5 213t-201.5 564q0 354 202 565.5t540 211.5q147 0 289 -74v37h925v-203h-616v-413h505v-204h-505v-450h663v-210h-972v37zM1124 594v293q0 227 -67.5 327t-220.5 100q-186 0 -301 -158.5t-115 -415.5t115 -415t303 -158
q152 0 219 99.5t67 327.5z" />
    <glyph glyph-name="quoteleft" horiz-adv-x="506" 
d="M290 1258h124v-320h-321v248q0 393 321 393v-111q-56 0 -90 -48.5t-34 -129.5v-32z" />
    <glyph glyph-name="quoteleft" unicode="&#x2018;" horiz-adv-x="506" 
d="M290 1258h124v-320h-321v248q0 393 321 393v-111q-56 0 -90 -48.5t-34 -129.5v-32z" />
    <glyph glyph-name="quoteright" horiz-adv-x="506" 
d="M216 1258h-123v321h321v-248q0 -393 -321 -393v111q56 0 89.5 48.5t33.5 129.5v31z" />
    <glyph glyph-name="quoteright" unicode="&#x2019;" horiz-adv-x="506" 
d="M216 1258h-123v321h321v-248q0 -393 -321 -393v111q56 0 89.5 48.5t33.5 129.5v31z" />
    <glyph glyph-name="quotedblleft" horiz-adv-x="925" 
d="M278 1258h111v-296h-296v224q0 181 75 280.5t221 112.5v-111q-111 -31 -111 -178v-32zM722 1258h111v-296h-296v224q0 181 75 280.5t221 112.5v-111q-111 -31 -111 -178v-32z" />
    <glyph glyph-name="quotedblleft" unicode="&#x201c;" horiz-adv-x="925" 
d="M278 1258h111v-296h-296v224q0 181 75 280.5t221 112.5v-111q-111 -31 -111 -178v-32zM722 1258h111v-296h-296v224q0 181 75 280.5t221 112.5v-111q-111 -31 -111 -178v-32z" />
    <glyph glyph-name="quotedblright" horiz-adv-x="925" 
d="M204 1283h-111v296h296v-223q0 -182 -75 -281.5t-221 -112.5v111q111 32 111 179v31zM648 1283h-111v296h296v-223q0 -182 -74.5 -281.5t-221.5 -112.5v111q111 32 111 179v31z" />
    <glyph glyph-name="quotedblright" unicode="&#x201d;" horiz-adv-x="925" 
d="M204 1283h-111v296h296v-223q0 -182 -75 -281.5t-221 -112.5v111q111 32 111 179v31zM648 1283h-111v296h296v-223q0 -182 -74.5 -281.5t-221.5 -112.5v111q111 32 111 179v31z" />
    <glyph glyph-name="bullet" horiz-adv-x="1283" 
d="M222 597q0 170 124 292.5t296 122.5q174 0 296.5 -123t122.5 -297q0 -173 -122.5 -296t-295.5 -123q-177 0 -299 123t-122 301z" />
    <glyph glyph-name="bullet" unicode="&#x2022;" horiz-adv-x="1283" 
d="M222 597q0 170 124 292.5t296 122.5q174 0 296.5 -123t122.5 -297q0 -173 -122.5 -296t-295.5 -123q-177 0 -299 123t-122 301z" />
    <glyph glyph-name="endash" horiz-adv-x="1024" 
d="M86 537v160h851v-160h-851z" />
    <glyph glyph-name="endash" unicode="&#x2013;" horiz-adv-x="1024" 
d="M86 537v160h851v-160h-851z" />
    <glyph glyph-name="emdash" horiz-adv-x="2048" 
d="M80 537v123h1888v-123h-1888z" />
    <glyph glyph-name="emdash" unicode="&#x2014;" horiz-adv-x="2048" 
d="M80 537v123h1888v-123h-1888z" />
    <glyph glyph-name="tilde" horiz-adv-x="1308" 
d="M450 1283h-148q0 321 201 321q65 0 127 -43l38 -26l31 -22q64 -45 91 -45q67 0 67 136h148q0 -321 -201 -321q-65 0 -126 43l-39 26q-24 17 -31 22q-61 45 -91 45q-67 0 -67 -136z" />
    <glyph glyph-name="tilde" unicode="&#x2dc;" horiz-adv-x="1308" 
d="M450 1283h-148q0 321 201 321q65 0 127 -43l38 -26l31 -22q64 -45 91 -45q67 0 67 136h148q0 -321 -201 -321q-65 0 -126 43l-39 26q-24 17 -31 22q-61 45 -91 45q-67 0 -67 -136z" />
    <glyph glyph-name="trademark" horiz-adv-x="2048" 
d="M465 740v617h-268v123h734v-123h-268v-617h-198zM1061 740v740h254l156 -472l159 472h220v-740h-179v518l-160 -468h-144l-158 481v-531h-148z" />
    <glyph glyph-name="trademark" unicode="&#x2122;" horiz-adv-x="2048" 
d="M465 740v617h-268v123h734v-123h-268v-617h-198zM1061 740v740h254l156 -472l159 472h220v-740h-179v518l-160 -468h-144l-158 481v-531h-148z" />
    <glyph glyph-name="scaron" horiz-adv-x="1158" 
d="M156 35v217q220 -92 376 -92q182 0 182 124q0 80 -150 140l-100 40q-163 66 -233 142t-70 188q0 156 119 242.5t333 86.5q134 0 319 -39v-208q-178 62 -295 62q-184 0 -184 -114q0 -75 136 -127l86 -33q193 -73 268.5 -148t75.5 -193q0 -155 -128.5 -251.5t-334.5 -96.5
q-198 0 -400 60zM989 1604l-241 -321h-273l-241 321h179l197 -198h2l198 198h179z" />
    <glyph glyph-name="scaron" unicode="&#x161;" horiz-adv-x="1158" 
d="M156 35v217q220 -92 376 -92q182 0 182 124q0 80 -150 140l-100 40q-163 66 -233 142t-70 188q0 156 119 242.5t333 86.5q134 0 319 -39v-208q-178 62 -295 62q-184 0 -184 -114q0 -75 136 -127l86 -33q193 -73 268.5 -148t75.5 -193q0 -155 -128.5 -251.5t-334.5 -96.5
q-198 0 -400 60zM989 1604l-241 -321h-273l-241 321h179l197 -198h2l198 198h179z" />
    <glyph glyph-name="guilsinglright" horiz-adv-x="709" 
d="M68 210l262 339l-262 339l139 105l416 -444l-416 -444z" />
    <glyph glyph-name="guilsinglright" unicode="&#x203a;" horiz-adv-x="709" 
d="M68 210l262 339l-262 339l139 105l416 -444l-416 -444z" />
    <glyph glyph-name="oe" horiz-adv-x="1966" 
d="M1018 138q-99 -98 -173.5 -130.5t-199.5 -32.5q-254 0 -403 155t-149 419q0 258 150 416t396 158q225 0 389 -176q142 176 369 176q231 0 340 -154t109 -479h-682q31 -314 346 -314q149 0 336 69v-208q-214 -62 -419 -62q-236 0 -409 163zM654 160q216 0 216 389
t-213 389q-115 0 -182.5 -105t-67.5 -284q0 -178 67 -283.5t180 -105.5zM1161 657h393q0 284 -180 284q-184 0 -213 -284z" />
    <glyph glyph-name="oe" unicode="&#x153;" horiz-adv-x="1966" 
d="M1018 138q-99 -98 -173.5 -130.5t-199.5 -32.5q-254 0 -403 155t-149 419q0 258 150 416t396 158q225 0 389 -176q142 176 369 176q231 0 340 -154t109 -479h-682q31 -314 346 -314q149 0 336 69v-208q-214 -62 -419 -62q-236 0 -409 163zM654 160q216 0 216 389
t-213 389q-115 0 -182.5 -105t-67.5 -284q0 -178 67 -283.5t180 -105.5zM1161 657h393q0 284 -180 284q-184 0 -213 -284z" />
    <glyph glyph-name="Ydieresis" horiz-adv-x="1406" 
d="M537 0v620l-497 860h340l361 -625l377 625h244l-517 -858v-622h-308zM405 1605v222h222v-222h-222zM824 1605v222h222v-222h-222z" />
    <glyph glyph-name="Ydieresis" unicode="&#x178;" horiz-adv-x="1406" 
d="M537 0v620l-497 860h340l361 -625l377 625h244l-517 -858v-622h-308zM405 1605v222h222v-222h-222zM824 1605v222h222v-222h-222z" />
    <glyph glyph-name="nonbreakingspace" unicode="&#xa0;" horiz-adv-x="653" 
 />
    <glyph glyph-name="exclamdown" unicode="&#xa1;" horiz-adv-x="642" 
d="M469 1098v-247h-296v247h296zM420 679l49 -765v-296h-296v296l49 765h198z" />
    <glyph glyph-name="cent" unicode="&#xa2;" horiz-adv-x="1308" 
d="M680 0v176q-250 14 -391.5 167t-141.5 409q0 259 136.5 406t396.5 169v153h160v-155q130 -9 252 -40v-216q-138 58 -252 65v-760q128 8 252 55v-202q-126 -38 -252 -47v-180h-160zM680 391v740q-216 -65 -216 -364q0 -298 216 -376z" />
    <glyph glyph-name="sterling" unicode="&#xa3;" horiz-adv-x="1308" 
d="M225 0v234q110 26 153.5 88.5t43.5 193.5v181h-163v185h163v170q0 466 449 466q120 0 267 -24v-203q-120 41 -231 41q-189 0 -189 -214v-236h195v-185h-195q0 -197 -41 -284.5t-175 -178.5h651v-234h-928z" />
    <glyph glyph-name="currency" unicode="&#xa4;" horiz-adv-x="1308" 
d="M900 1109l199 198l122 -122l-199 -198q76 -118 76 -247q0 -128 -76 -246l198 -199l-122 -122l-198 199v0q-120 -76 -246 -76q-127 0 -247 76v0l-198 -199l-122 122l198 199q-75 118 -75 246q0 129 75 247l-198 198l122 122l198 -198q120 75 247 75q126 0 246 -75z
M656 962q-94 0 -159.5 -65t-65.5 -158q0 -91 65.5 -156t157.5 -65q91 0 156.5 65t65.5 157q0 91 -65 156.5t-155 65.5z" />
    <glyph glyph-name="yen" unicode="&#xa5;" horiz-adv-x="1308" 
d="M498 0v302h-259v148h259v148h-259v148h250l-447 734h332l332 -544l353 544h220l-475 -734h250v-148h-259v-148h259v-148h-259v-302h-297z" />
    <glyph glyph-name="brokenbar" unicode="&#xa6;" horiz-adv-x="790" 
d="M308 -296v740h173v-740h-173zM308 839v740h173v-740h-173z" />
    <glyph glyph-name="section" unicode="&#xa7;" horiz-adv-x="1308" 
d="M197 -278v219q253 -89 419 -89q250 0 250 140q0 52 -35 83.5t-148 80.5l-154 66q-182 79 -259 163.5t-77 206.5q0 155 150 304q-156 100 -156 257q0 165 136.5 265t360.5 100q182 0 388 -41v-205q-198 60 -363 60q-113 0 -180 -37t-67 -99q0 -84 159 -149l134 -55
q206 -84 287.5 -169.5t81.5 -218.5q0 -148 -145 -306q161 -104 161 -276q0 -173 -142.5 -264.5t-411.5 -91.5q-164 0 -389 56zM841 375q58 79 58 146q0 65 -41.5 106t-160.5 94l-215 97q-58 -73 -58 -140q0 -117 209 -210z" />
    <glyph glyph-name="dieresis" unicode="&#xa8;" horiz-adv-x="1308" 
d="M333 1283v222h222v-222h-222zM752 1283v222h222v-222h-222z" />
    <glyph glyph-name="copyright" unicode="&#xa9;" horiz-adv-x="1721" 
d="M1175 339q-150 -43 -278 -43q-205 0 -331.5 123t-126.5 323t122 318t328 118q132 0 286 -37v-132q-145 58 -267 58q-126 0 -204.5 -90.5t-78.5 -236.5q0 -144 86 -232.5t226 -88.5q138 0 238 53v-133zM851 -37q-315 0 -541.5 229.5t-226.5 547.5q0 322 228 549.5
t549 227.5t549 -227.5t228 -547.5q0 -326 -228.5 -552.5t-557.5 -226.5zM851 92q317 0 504 233q153 190 153 416q0 224 -153 414q-187 233 -495 233t-495 -233q-153 -190 -153 -415q0 -264 189.5 -456t449.5 -192z" />
    <glyph glyph-name="ordfeminine" unicode="&#xaa;" horiz-adv-x="987" 
d="M566 900q-76 -77 -173 -77q-91 0 -149.5 56t-58.5 143q0 230 344 230h48v47q0 94 -118 94q-112 0 -215 -60v141q120 44 248 44q294 0 294 -208v-290q0 -59 40 -59q11 0 24 3v-126q-64 -15 -111 -15q-119 0 -160 77h-13zM577 1019v113h-46q-137 0 -137 -93q0 -77 75 -77
q55 0 108 57z" />
    <glyph glyph-name="guillemotleft" unicode="&#xab;" horiz-adv-x="1166" 
d="M1098 888l-263 -339l263 -339l-139 -105l-417 444l417 444zM641 885l-262 -336l262 -339l-139 -105l-416 444l416 444z" />
    <glyph glyph-name="logicalnot" unicode="&#xac;" horiz-adv-x="1629" 
d="M222 716v172h1184v-592h-172v420h-1012z" />
    <glyph glyph-name="uni00AD" unicode="&#xad;" horiz-adv-x="1186" 
d="M148 543v197h888v-197h-888z" />
    <glyph glyph-name="registered" unicode="&#xae;" horiz-adv-x="1721" 
d="M851 -37q-315 0 -541.5 229.5t-226.5 547.5q0 322 228 549.5t549 227.5t549 -227.5t228 -547.5q0 -326 -228.5 -552.5t-557.5 -226.5zM851 92q317 0 504 233q153 190 153 416q0 224 -153 414q-187 233 -495 233t-495 -233q-153 -190 -153 -415q0 -264 189.5 -456
t449.5 -192zM551 322v840h337q282 0 282 -208q0 -167 -179 -240l247 -392h-219l-189 343h-107v-343h-172zM723 780h45q217 0 217 154q0 112 -195 112h-67v-266z" />
    <glyph glyph-name="degree" unicode="&#xb0;" horiz-adv-x="641" 
d="M318 1073q-90 0 -154.5 65.5t-64.5 157.5q0 93 64.5 157t157.5 64t157.5 -64t64.5 -157q0 -94 -65 -158.5t-160 -64.5zM320 1172q50 0 87 36.5t37 86.5t-37 87t-86 37q-50 0 -86.5 -37t-36.5 -87q0 -49 36.5 -86t85.5 -37z" />
    <glyph glyph-name="plusminus" unicode="&#xb1;" horiz-adv-x="1629" 
d="M222 0v173h1184v-173h-1184zM728 296v358h-506v173h506v357h173v-357h505v-173h-505v-358h-173z" />
    <glyph glyph-name="twosuperior" unicode="&#xb2;" horiz-adv-x="987" 
d="M171 607v169l9 9l21 23q29 32 82 75l80 66q217 178 217 310q0 124 -153 124q-99 0 -233 -62v150q149 46 284 46q155 0 246.5 -66.5t91.5 -179.5q0 -137 -193 -287l-70 -55q-117 -90 -137 -153h398v-169h-643z" />
    <glyph glyph-name="threesuperior" unicode="&#xb3;" horiz-adv-x="987" 
d="M195 614v150q135 -52 235 -52q162 0 162 128q0 168 -255 168h-60v127h46q128 0 185 34.5t57 111.5q0 109 -138 109q-107 0 -220 -50v134q146 43 267 43q320 0 320 -215q0 -160 -205 -222q232 -53 232 -242q0 -119 -96.5 -186t-269.5 -67q-127 0 -260 29z" />
    <glyph glyph-name="acute" unicode="&#xb4;" horiz-adv-x="1308" 
d="M463 1283l241 321h271l-321 -321h-191z" />
    <glyph glyph-name="mu" unicode="&#xb5;" horiz-adv-x="1357" 
d="M870 210q-68 -97 -170 -153.5t-209 -56.5h-16v-296h-296v1394h296v-703q0 -187 125 -187q140 0 270 199v691h296v-1098h-296v210z" />
    <glyph glyph-name="paragraph" unicode="&#xb6;" horiz-adv-x="1308" 
d="M543 -296v1036q-395 53 -395 410q0 177 96 253.5t317 76.5h451v-1776h-161v1641h-148v-1641h-160z" />
    <glyph glyph-name="cedilla" unicode="&#xb8;" horiz-adv-x="1308" 
d="M621 0h136l-76 -113q232 -25 232 -156q0 -69 -72 -116t-177 -47q-82 0 -188 29v92q70 -15 117 -15q122 0 122 60q0 84 -195 84h-20z" />
    <glyph glyph-name="onesuperior" unicode="&#xb9;" horiz-adv-x="987" 
d="M197 615v130h222v583l-222 -55v133l444 111v-772h221v-130h-665z" />
    <glyph glyph-name="ordmasculine" unicode="&#xba;" horiz-adv-x="987" 
d="M489 823q-165 0 -261.5 93.5t-96.5 253.5q0 162 97 254.5t266 92.5q168 0 265 -92.5t97 -253.5q0 -164 -97 -256t-270 -92zM492 951q128 0 128 221q0 97 -35 157.5t-91 60.5q-57 0 -92 -60.5t-35 -159.5q0 -97 34.5 -158t90.5 -61z" />
    <glyph glyph-name="guillemotright" unicode="&#xbb;" horiz-adv-x="1166" 
d="M68 210l262 339l-262 339l139 105l416 -444l-416 -444zM524 213l263 336l-263 339l139 105l417 -444l-417 -444z" />
    <glyph glyph-name="onequarter" unicode="&#xbc;" horiz-adv-x="1946" 
d="M323 615v713l-222 -55v133l444 111v-902h-222zM284 -37l1108 1554h172l-1107 -1554h-173zM1461 2v226h-420v166l413 496h201v-496h93v-166h-93v-226h-194zM1208 394h254v304z" />
    <glyph glyph-name="onehalf" unicode="&#xbd;" horiz-adv-x="1946" 
d="M309 615v713l-222 -55v133l444 111v-902h-222zM202 -37l1108 1554h172l-1107 -1554h-173zM1103 2v169l9 9l21 23q29 32 82 75l80 66q217 178 217 310q0 124 -153 124q-99 0 -233 -62v150q149 46 284 46q155 0 246.5 -66.5t91.5 -179.5q0 -137 -193 -287l-70 -55
q-117 -90 -137 -153h398v-169h-643z" />
    <glyph glyph-name="threequarters" unicode="&#xbe;" horiz-adv-x="1946" 
d="M161 614v150q135 -52 235 -52q162 0 162 128q0 168 -255 168h-60v127h46q128 0 185 34.5t57 111.5q0 109 -138 109q-107 0 -220 -50v134q146 43 267 43q320 0 320 -215q0 -160 -205 -222q232 -53 232 -242q0 -119 -96.5 -186t-269.5 -67q-127 0 -260 29zM383 -37
l1108 1554h172l-1107 -1554h-173zM1498 2v226h-420v166l413 496h201v-496h93v-166h-93v-226h-194zM1245 394h254v304z" />
    <glyph glyph-name="questiondown" unicode="&#xbf;" horiz-adv-x="1018" 
d="M739 1098v-247h-296v247h296zM443 679h296v-28q0 -162 -148 -325l-70 -78q-144 -159 -144 -284q0 -186 234 -186q151 0 346 89v-226q-200 -60 -390 -60q-237 0 -374 91t-137 248q0 144 164 300l68 64q93 89 124 150.5t31 159.5v85z" />
    <glyph glyph-name="Agrave" unicode="&#xc0;" horiz-adv-x="1508" 
d="M23 0l576 1480h308l576 -1480h-316l-154 395h-612l-154 -395h-224zM477 592h460l-230 590zM945 1605h-191l-321 321h271z" />
    <glyph glyph-name="Aacute" unicode="&#xc1;" horiz-adv-x="1508" 
d="M23 0l576 1480h308l576 -1480h-316l-154 395h-612l-154 -395h-224zM477 592h460l-230 590zM561 1605l241 321h271l-321 -321h-191z" />
    <glyph glyph-name="Acircumflex" unicode="&#xc2;" horiz-adv-x="1508" 
d="M23 0l576 1480h308l576 -1480h-316l-154 395h-612l-154 -395h-224zM477 592h460l-230 590zM376 1605l241 321h273l241 -321h-179l-198 197h-2l-197 -197h-179z" />
    <glyph glyph-name="Atilde" unicode="&#xc3;" horiz-adv-x="1508" 
d="M23 0l576 1480h308l576 -1480h-316l-154 395h-612l-154 -395h-224zM477 592h460l-230 590zM548 1605h-148q0 321 201 321q65 0 127 -43l38 -26l31 -22q64 -45 91 -45q67 0 67 136h148q0 -321 -201 -321q-65 0 -126 43l-39 26q-24 17 -31 22q-61 45 -91 45q-67 0 -67 -136
z" />
    <glyph glyph-name="Adieresis" unicode="&#xc4;" horiz-adv-x="1508" 
d="M23 0l576 1480h308l576 -1480h-316l-154 395h-612l-154 -395h-224zM477 592h460l-230 590zM431 1605v222h222v-222h-222zM850 1605v222h222v-222h-222z" />
    <glyph glyph-name="Aring" unicode="&#xc5;" horiz-adv-x="1508" 
d="M23 0l576 1480h308l576 -1480h-316l-154 395h-612l-154 -395h-224zM477 592h460l-230 590zM749 1482q-93 0 -158.5 66.5t-65.5 160.5t66 160.5t161 66.5q94 0 160.5 -66t66.5 -161q0 -96 -66.5 -161.5t-163.5 -65.5zM750 1581q55 0 92.5 37t37.5 92q0 53 -37.5 90
t-90.5 37t-90.5 -37t-37.5 -91q0 -53 37 -90.5t89 -37.5z" />
    <glyph glyph-name="AE" unicode="&#xc6;" horiz-adv-x="1961" 
d="M21 0l839 1480h982v-203h-623v-413h512v-204h-512v-450h669v-210h-972v382h-437l-218 -382h-240zM586 574h330v580z" />
    <glyph glyph-name="Ccedilla" unicode="&#xc7;" horiz-adv-x="1459" 
d="M1376 59q-215 -96 -513 -96q-364 0 -567 205t-203 572q0 374 204.5 575.5t583.5 201.5q242 0 481 -57v-241q-271 95 -454 95q-234 0 -361 -148.5t-127 -421.5q0 -268 136.5 -418t379.5 -150q218 0 440 110v-227zM758 0h136l-76 -113q232 -25 232 -156q0 -69 -72 -116
t-177 -47q-82 0 -188 29v92q70 -15 117 -15q122 0 122 60q0 84 -195 84h-20z" />
    <glyph glyph-name="Egrave" unicode="&#xc8;" horiz-adv-x="1230" 
d="M185 0v1480h925v-203h-617v-413h506v-204h-506v-450h664v-210h-972zM852 1605h-191l-321 321h271z" />
    <glyph glyph-name="Eacute" unicode="&#xc9;" horiz-adv-x="1230" 
d="M185 0v1480h925v-203h-617v-413h506v-204h-506v-450h664v-210h-972zM494 1605l241 321h271l-321 -321h-191z" />
    <glyph glyph-name="Ecircumflex" unicode="&#xca;" horiz-adv-x="1230" 
d="M185 0v1480h925v-203h-617v-413h506v-204h-506v-450h664v-210h-972zM284 1605l241 321h273l241 -321h-179l-198 197h-2l-197 -197h-179z" />
    <glyph glyph-name="Edieresis" unicode="&#xcb;" horiz-adv-x="1230" 
d="M185 0v1480h925v-203h-617v-413h506v-204h-506v-450h664v-210h-972zM345 1605v222h222v-222h-222zM764 1605v222h222v-222h-222z" />
    <glyph glyph-name="Igrave" unicode="&#xcc;" horiz-adv-x="678" 
d="M185 0v1480h308v-1480h-308zM530 1605h-191l-321 321h271z" />
    <glyph glyph-name="Iacute" unicode="&#xcd;" horiz-adv-x="678" 
d="M185 0v1480h308v-1480h-308zM149 1605l241 321h271l-321 -321h-191z" />
    <glyph glyph-name="Icircumflex" unicode="&#xce;" horiz-adv-x="678" 
d="M185 0v1480h308v-1480h-308zM-36 1605l241 321h273l241 -321h-179l-198 197h-2l-197 -197h-179z" />
    <glyph glyph-name="Idieresis" unicode="&#xcf;" horiz-adv-x="678" 
d="M185 0v1480h308v-1480h-308zM19 1605v222h222v-222h-222zM438 1605v222h222v-222h-222z" />
    <glyph glyph-name="Eth" unicode="&#xd0;" horiz-adv-x="1624" 
d="M185 0v645h-185v197h185v638h637q344 0 527 -182.5t183 -526.5q0 -366 -194 -568.5t-543 -202.5h-610zM493 210h230q268 0 375 151q107 150 107 392q0 212 -96 353q-66 97 -159 134t-271 37h-186v-435h210v-197h-210v-435z" />
    <glyph glyph-name="Ntilde" unicode="&#xd1;" horiz-adv-x="1574" 
d="M185 0v1480h271l686 -1011v1011h247v-1480h-276l-681 1011v-1011h-247zM604 1605h-148q0 321 201 321q65 0 127 -43l38 -26l31 -22q64 -45 91 -45q67 0 67 136h148q0 -321 -201 -321q-65 0 -126 43l-39 26q-24 17 -31 22q-61 45 -91 45q-67 0 -67 -136z" />
    <glyph glyph-name="Ograve" unicode="&#xd2;" horiz-adv-x="1686" 
d="M834 -37q-337 0 -539 212t-202 565q0 357 203 567t548 210q343 0 546.5 -210t203.5 -564q0 -362 -203.5 -571t-556.5 -209zM838 167q198 0 313.5 155.5t115.5 421.5q0 258 -116 414t-307 156q-193 0 -308.5 -156t-115.5 -417q0 -259 115 -416.5t303 -157.5zM1035 1605
h-191l-321 321h271z" />
    <glyph glyph-name="Oacute" unicode="&#xd3;" horiz-adv-x="1686" 
d="M834 -37q-337 0 -539 212t-202 565q0 357 203 567t548 210q343 0 546.5 -210t203.5 -564q0 -362 -203.5 -571t-556.5 -209zM838 167q198 0 313.5 155.5t115.5 421.5q0 258 -116 414t-307 156q-193 0 -308.5 -156t-115.5 -417q0 -259 115 -416.5t303 -157.5zM651 1605
l241 321h271l-321 -321h-191z" />
    <glyph glyph-name="Ocircumflex" unicode="&#xd4;" horiz-adv-x="1686" 
d="M834 -37q-337 0 -539 212t-202 565q0 357 203 567t548 210q343 0 546.5 -210t203.5 -564q0 -362 -203.5 -571t-556.5 -209zM838 167q198 0 313.5 155.5t115.5 421.5q0 258 -116 414t-307 156q-193 0 -308.5 -156t-115.5 -417q0 -259 115 -416.5t303 -157.5zM466 1605
l241 321h273l241 -321h-179l-198 197h-2l-197 -197h-179z" />
    <glyph glyph-name="Otilde" unicode="&#xd5;" horiz-adv-x="1686" 
d="M834 -37q-337 0 -539 212t-202 565q0 357 203 567t548 210q343 0 546.5 -210t203.5 -564q0 -362 -203.5 -571t-556.5 -209zM838 167q198 0 313.5 155.5t115.5 421.5q0 258 -116 414t-307 156q-193 0 -308.5 -156t-115.5 -417q0 -259 115 -416.5t303 -157.5zM640 1605
h-148q0 321 201 321q65 0 127 -43l38 -26l31 -22q64 -45 91 -45q67 0 67 136h148q0 -321 -201 -321q-65 0 -126 43l-39 26q-24 17 -31 22q-61 45 -91 45q-67 0 -67 -136z" />
    <glyph glyph-name="Odieresis" unicode="&#xd6;" horiz-adv-x="1686" 
d="M834 -37q-337 0 -539 212t-202 565q0 357 203 567t548 210q343 0 546.5 -210t203.5 -564q0 -362 -203.5 -571t-556.5 -209zM838 167q198 0 313.5 155.5t115.5 421.5q0 258 -116 414t-307 156q-193 0 -308.5 -156t-115.5 -417q0 -259 115 -416.5t303 -157.5zM523 1605v222
h222v-222h-222zM942 1605v222h222v-222h-222z" />
    <glyph glyph-name="multiply" unicode="&#xd7;" horiz-adv-x="1629" 
d="M222 122l470 470l-470 470l122 122l470 -470l470 470l122 -122l-470 -470l470 -470l-122 -122l-470 470l-470 -470z" />
    <glyph glyph-name="Oslash" unicode="&#xd8;" horiz-adv-x="1686" 
d="M478 424l646 766q-108 124 -283 124q-192 0 -307.5 -156.5t-115.5 -416.5q0 -165 60 -317zM91 -37l188 224q-188 216 -188 555q0 355 203 565t547 210q258 0 451 -126l107 126h193l-189 -224q189 -213 189 -555q0 -355 -203.5 -565t-546.5 -210q-256 0 -451 127
l-107 -127h-193zM559 290q109 -123 283 -123q192 0 307.5 156.5t115.5 418.5q0 165 -60 315z" />
    <glyph glyph-name="Ugrave" unicode="&#xd9;" horiz-adv-x="1508" 
d="M173 1480h308v-907q0 -215 71 -310.5t229 -95.5q151 0 218.5 91t67.5 293v929h268v-909q0 -205 -39 -312.5t-142 -186.5q-141 -109 -379 -109q-255 0 -410 116q-107 80 -149.5 189.5t-42.5 305.5v906zM973 1605h-191l-321 321h271z" />
    <glyph glyph-name="Uacute" unicode="&#xda;" horiz-adv-x="1508" 
d="M173 1480h308v-907q0 -215 71 -310.5t229 -95.5q151 0 218.5 91t67.5 293v929h268v-909q0 -205 -39 -312.5t-142 -186.5q-141 -109 -379 -109q-255 0 -410 116q-107 80 -149.5 189.5t-42.5 305.5v906zM590 1605l241 321h271l-321 -321h-191z" />
    <glyph glyph-name="Ucircumflex" unicode="&#xdb;" horiz-adv-x="1508" 
d="M173 1480h308v-907q0 -215 71 -310.5t229 -95.5q151 0 218.5 91t67.5 293v929h268v-909q0 -205 -39 -312.5t-142 -186.5q-141 -109 -379 -109q-255 0 -410 116q-107 80 -149.5 189.5t-42.5 305.5v906zM397 1605l241 321h273l241 -321h-179l-198 197h-2l-197 -197h-179z
" />
    <glyph glyph-name="Udieresis" unicode="&#xdc;" horiz-adv-x="1508" 
d="M173 1480h308v-907q0 -215 71 -310.5t229 -95.5q151 0 218.5 91t67.5 293v929h268v-909q0 -205 -39 -312.5t-142 -186.5q-141 -109 -379 -109q-255 0 -410 116q-107 80 -149.5 189.5t-42.5 305.5v906zM454 1605v222h222v-222h-222zM873 1605v222h222v-222h-222z" />
    <glyph glyph-name="Yacute" unicode="&#xdd;" horiz-adv-x="1406" 
d="M537 0v620l-497 860h340l361 -625l377 625h244l-517 -858v-622h-308zM549 1605l241 321h271l-321 -321h-191z" />
    <glyph glyph-name="Thorn" unicode="&#xde;" horiz-adv-x="1256" 
d="M185 0v1480h296v-283h214q270 0 385.5 -91t115.5 -301q0 -241 -155 -375t-432 -134h-128v-296h-296zM481 500h74q154 0 240.5 74t86.5 206q0 213 -280 213h-121v-493z" />
    <glyph glyph-name="germandbls" unicode="&#xdf;" horiz-adv-x="1354" 
d="M185 0v1131q0 473 447 473q194 0 307.5 -70.5t113.5 -190.5q0 -97 -65 -188l-61 -86q-70 -98 -70 -141q0 -63 105 -150l137 -112q119 -98 166 -175.5t47 -176.5q0 -155 -103.5 -247t-277.5 -92q-141 0 -303 54v206q155 -75 267 -75q68 0 110 34.5t42 89.5q0 64 -122 165
l-148 123q-161 134 -161 256q0 74 38 144l47 81l49 87q43 74 43 144q0 138 -156 138t-156 -213v-1209h-296z" />
    <glyph glyph-name="agrave" unicode="&#xe0;" horiz-adv-x="1204" 
d="M723 118q-148 -143 -317 -143q-144 0 -234 88t-90 228q0 182 145.5 280.5t416.5 98.5h79v100q0 171 -195 171q-173 0 -350 -98v204q201 76 398 76q431 0 431 -343v-486q0 -129 79 -129q18 0 50 11v-173q-94 -28 -166 -28q-182 0 -234 143h-13zM723 277v223h-70
q-134 0 -210.5 -48t-76.5 -132q0 -61 41.5 -102.5t102.5 -41.5q104 0 213 101zM782 1283h-191l-321 321h271z" />
    <glyph glyph-name="aacute" unicode="&#xe1;" horiz-adv-x="1204" 
d="M723 118q-148 -143 -317 -143q-144 0 -234 88t-90 228q0 182 145.5 280.5t416.5 98.5h79v100q0 171 -195 171q-173 0 -350 -98v204q201 76 398 76q431 0 431 -343v-486q0 -129 79 -129q18 0 50 11v-173q-94 -28 -166 -28q-182 0 -234 143h-13zM723 277v223h-70
q-134 0 -210.5 -48t-76.5 -132q0 -61 41.5 -102.5t102.5 -41.5q104 0 213 101zM398 1283l241 321h271l-321 -321h-191z" />
    <glyph glyph-name="acircumflex" unicode="&#xe2;" horiz-adv-x="1204" 
d="M723 118q-148 -143 -317 -143q-144 0 -234 88t-90 228q0 182 145.5 280.5t416.5 98.5h79v100q0 171 -195 171q-173 0 -350 -98v204q201 76 398 76q431 0 431 -343v-486q0 -129 79 -129q18 0 50 11v-173q-94 -28 -166 -28q-182 0 -234 143h-13zM723 277v223h-70
q-134 0 -210.5 -48t-76.5 -132q0 -61 41.5 -102.5t102.5 -41.5q104 0 213 101zM218 1283l241 321h273l241 -321h-179l-198 197h-2l-197 -197h-179z" />
    <glyph glyph-name="atilde" unicode="&#xe3;" horiz-adv-x="1204" 
d="M723 118q-148 -143 -317 -143q-144 0 -234 88t-90 228q0 182 145.5 280.5t416.5 98.5h79v100q0 171 -195 171q-173 0 -350 -98v204q201 76 398 76q431 0 431 -343v-486q0 -129 79 -129q18 0 50 11v-173q-94 -28 -166 -28q-182 0 -234 143h-13zM723 277v223h-70
q-134 0 -210.5 -48t-76.5 -132q0 -61 41.5 -102.5t102.5 -41.5q104 0 213 101zM365 1283h-148q0 321 201 321q65 0 127 -43l38 -26l31 -22q64 -45 91 -45q67 0 67 136h148q0 -321 -201 -321q-65 0 -126 43l-39 26q-24 17 -31 22q-61 45 -91 45q-67 0 -67 -136z" />
    <glyph glyph-name="adieresis" unicode="&#xe4;" horiz-adv-x="1204" 
d="M723 118q-148 -143 -317 -143q-144 0 -234 88t-90 228q0 182 145.5 280.5t416.5 98.5h79v100q0 171 -195 171q-173 0 -350 -98v204q201 76 398 76q431 0 431 -343v-486q0 -129 79 -129q18 0 50 11v-173q-94 -28 -166 -28q-182 0 -234 143h-13zM723 277v223h-70
q-134 0 -210.5 -48t-76.5 -132q0 -61 41.5 -102.5t102.5 -41.5q104 0 213 101zM268 1283v222h222v-222h-222zM687 1283v222h222v-222h-222z" />
    <glyph glyph-name="aring" unicode="&#xe5;" horiz-adv-x="1204" 
d="M723 118q-148 -143 -317 -143q-144 0 -234 88t-90 228q0 182 145.5 280.5t416.5 98.5h79v100q0 171 -195 171q-173 0 -350 -98v204q201 76 398 76q431 0 431 -343v-486q0 -129 79 -129q18 0 50 11v-173q-94 -28 -166 -28q-182 0 -234 143h-13zM723 277v223h-70
q-134 0 -210.5 -48t-76.5 -132q0 -61 41.5 -102.5t102.5 -41.5q104 0 213 101zM586 1283q-93 0 -158.5 66.5t-65.5 160.5t66 160.5t161 66.5q94 0 160.5 -66t66.5 -161q0 -96 -66.5 -161.5t-163.5 -65.5zM587 1382q55 0 92.5 37t37.5 92q0 53 -37.5 90t-90.5 37t-90.5 -37
t-37.5 -91q0 -53 37 -90.5t89 -37.5z" />
    <glyph glyph-name="ae" unicode="&#xe6;" horiz-adv-x="1808" 
d="M801 192q-153 -217 -389 -217q-148 0 -239 87t-91 229q0 181 145.5 278t416.5 97h79v104q0 171 -195 171q-173 0 -350 -98v204q201 76 392 76q173 0 333 -121q151 121 331 121q233 0 343.5 -154t110.5 -479h-681q31 -314 346 -314q148 0 335 69v-208q-210 -62 -419 -62
q-165 0 -270.5 49t-197.5 168zM723 277v223h-70q-132 0 -209.5 -48.5t-77.5 -131.5q0 -61 41.5 -102.5t102.5 -41.5q103 0 213 101zM1004 657h393q0 284 -180 284q-185 0 -213 -284z" />
    <glyph glyph-name="ccedilla" unicode="&#xe7;" horiz-adv-x="1090" 
d="M995 24q-184 -49 -341 -49q-263 0 -415.5 154.5t-152.5 420.5q0 269 157 421t434 152q134 0 309 -43v-214q-182 59 -291 59q-133 0 -214 -102t-81 -271q0 -173 87.5 -277t233.5 -104q133 0 274 58v-205zM552 0h136l-76 -113q232 -25 232 -156q0 -69 -72 -116t-177 -47
q-82 0 -188 29v92q70 -15 117 -15q122 0 122 60q0 84 -195 84h-20z" />
    <glyph glyph-name="egrave" unicode="&#xe8;" horiz-adv-x="1200" 
d="M1079 37q-211 -62 -400 -62q-275 0 -434 156t-159 426q0 255 145.5 410.5t384.5 155.5q241 0 352 -152t111 -481h-681q30 -314 345 -314q149 0 336 69v-208zM394 657h394q0 281 -181 281q-184 0 -213 -281zM802 1283h-191l-321 321h271z" />
    <glyph glyph-name="eacute" unicode="&#xe9;" horiz-adv-x="1200" 
d="M1079 37q-211 -62 -400 -62q-275 0 -434 156t-159 426q0 255 145.5 410.5t384.5 155.5q241 0 352 -152t111 -481h-681q30 -314 345 -314q149 0 336 69v-208zM394 657h394q0 281 -181 281q-184 0 -213 -281zM421 1283l241 321h271l-321 -321h-191z" />
    <glyph glyph-name="ecircumflex" unicode="&#xea;" horiz-adv-x="1200" 
d="M1079 37q-211 -62 -400 -62q-275 0 -434 156t-159 426q0 255 145.5 410.5t384.5 155.5q241 0 352 -152t111 -481h-681q30 -314 345 -314q149 0 336 69v-208zM394 657h394q0 281 -181 281q-184 0 -213 -281zM234 1283l241 321h273l241 -321h-179l-198 197h-2l-197 -197
h-179z" />
    <glyph glyph-name="edieresis" unicode="&#xeb;" horiz-adv-x="1200" 
d="M1079 37q-211 -62 -400 -62q-275 0 -434 156t-159 426q0 255 145.5 410.5t384.5 155.5q241 0 352 -152t111 -481h-681q30 -314 345 -314q149 0 336 69v-208zM394 657h394q0 281 -181 281q-184 0 -213 -281zM291 1283v222h222v-222h-222zM710 1283v222h222v-222h-222z" />
    <glyph glyph-name="igrave" unicode="&#xec;" horiz-adv-x="666" 
d="M185 0v1098h296v-1098h-296zM526 1283h-191l-321 321h271z" />
    <glyph glyph-name="iacute" unicode="&#xed;" horiz-adv-x="666" 
d="M185 0v1098h296v-1098h-296zM142 1283l241 321h271l-321 -321h-191z" />
    <glyph glyph-name="icircumflex" unicode="&#xee;" horiz-adv-x="666" 
d="M185 0v1098h296v-1098h-296zM-42 1283l241 321h273l241 -321h-179l-198 197h-2l-197 -197h-179z" />
    <glyph glyph-name="idieresis" unicode="&#xef;" horiz-adv-x="666" 
d="M185 0v1098h296v-1098h-296zM12 1283v222h222v-222h-222zM431 1283v222h222v-222h-222z" />
    <glyph glyph-name="eth" unicode="&#xf0;" horiz-adv-x="1310" 
d="M297 1066l-109 130l190 158q-135 39 -252 39l-33 1v185q248 0 464 -75l220 188l111 -133l-161 -138q226 -124 356 -345.5t130 -482.5q0 -277 -155.5 -447.5t-406.5 -170.5q-249 0 -402 152.5t-153 398.5q0 237 147.5 392t373.5 155q59 0 140 -18q-67 128 -210 214z
M658 160q119 0 188.5 104.5t69.5 281.5q0 343 -252 343q-117 0 -186 -99t-69 -267q0 -165 67.5 -264t181.5 -99z" />
    <glyph glyph-name="ntilde" unicode="&#xf1;" horiz-adv-x="1345" 
d="M185 0v1098h296v-207q145 232 374 232q147 0 232 -93t85 -254v-776h-296v703q0 187 -124 187q-141 0 -271 -199v-691h-296zM468 1283h-148q0 321 201 321q65 0 127 -43l38 -26l31 -22q64 -45 91 -45q67 0 67 136h148q0 -321 -201 -321q-65 0 -126 43l-39 26
q-24 17 -31 22q-61 45 -91 45q-67 0 -67 -136z" />
    <glyph glyph-name="ograve" unicode="&#xf2;" horiz-adv-x="1308" 
d="M646 -25q-257 0 -408.5 155.5t-151.5 418.5q0 266 152.5 420t414.5 154q263 0 415.5 -154t152.5 -418q0 -270 -153 -423t-422 -153zM651 160q120 0 187.5 103.5t67.5 287.5q0 179 -67.5 283t-185.5 104q-117 0 -184.5 -104t-67.5 -285q0 -179 67 -284t183 -105zM845 1283
h-191l-321 321h271z" />
    <glyph glyph-name="oacute" unicode="&#xf3;" horiz-adv-x="1308" 
d="M646 -25q-257 0 -408.5 155.5t-151.5 418.5q0 266 152.5 420t414.5 154q263 0 415.5 -154t152.5 -418q0 -270 -153 -423t-422 -153zM651 160q120 0 187.5 103.5t67.5 287.5q0 179 -67.5 283t-185.5 104q-117 0 -184.5 -104t-67.5 -285q0 -179 67 -284t183 -105zM463 1283
l241 321h271l-321 -321h-191z" />
    <glyph glyph-name="ocircumflex" unicode="&#xf4;" horiz-adv-x="1308" 
d="M646 -25q-257 0 -408.5 155.5t-151.5 418.5q0 266 152.5 420t414.5 154q263 0 415.5 -154t152.5 -418q0 -270 -153 -423t-422 -153zM651 160q120 0 187.5 103.5t67.5 287.5q0 179 -67.5 283t-185.5 104q-117 0 -184.5 -104t-67.5 -285q0 -179 67 -284t183 -105zM276 1283
l241 321h273l241 -321h-179l-198 197h-2l-197 -197h-179z" />
    <glyph glyph-name="otilde" unicode="&#xf5;" horiz-adv-x="1308" 
d="M646 -25q-257 0 -408.5 155.5t-151.5 418.5q0 266 152.5 420t414.5 154q263 0 415.5 -154t152.5 -418q0 -270 -153 -423t-422 -153zM651 160q120 0 187.5 103.5t67.5 287.5q0 179 -67.5 283t-185.5 104q-117 0 -184.5 -104t-67.5 -285q0 -179 67 -284t183 -105zM450 1283
h-148q0 321 201 321q65 0 127 -43l38 -26l31 -22q64 -45 91 -45q67 0 67 136h148q0 -321 -201 -321q-65 0 -126 43l-39 26q-24 17 -31 22q-61 45 -91 45q-67 0 -67 -136z" />
    <glyph glyph-name="odieresis" unicode="&#xf6;" horiz-adv-x="1308" 
d="M646 -25q-257 0 -408.5 155.5t-151.5 418.5q0 266 152.5 420t414.5 154q263 0 415.5 -154t152.5 -418q0 -270 -153 -423t-422 -153zM651 160q120 0 187.5 103.5t67.5 287.5q0 179 -67.5 283t-185.5 104q-117 0 -184.5 -104t-67.5 -285q0 -179 67 -284t183 -105zM333 1283
v222h222v-222h-222zM752 1283v222h222v-222h-222z" />
    <glyph glyph-name="divide" unicode="&#xf7;" horiz-adv-x="1629" 
d="M222 506v173h1184v-173h-1184zM691 938v246h247v-246h-247zM691 0v247h247v-247h-247z" />
    <glyph glyph-name="oslash" unicode="&#xf8;" horiz-adv-x="1308" 
d="M332 56l-67 -81h-177l139 167q-139 164 -139 408q0 265 152.5 419t414.5 154q182 0 324 -80l67 80h177l-139 -167q139 -162 139 -408q0 -265 -152.5 -419t-413.5 -154q-186 0 -325 81zM486 240q66 -80 170 -80q117 0 184.5 104t67.5 284q0 86 -21 173zM824 857
q-64 81 -169 81q-117 0 -184.5 -104t-67.5 -284q0 -87 21 -173z" />
    <glyph glyph-name="ugrave" unicode="&#xf9;" horiz-adv-x="1345" 
d="M864 0v207q-144 -232 -374 -232q-147 0 -232 93t-85 254v776h296v-703q0 -187 125 -187q140 0 270 199v691h296v-1098h-296zM860 1283h-191l-321 321h271z" />
    <glyph glyph-name="uacute" unicode="&#xfa;" horiz-adv-x="1345" 
d="M864 0v207q-144 -232 -374 -232q-147 0 -232 93t-85 254v776h296v-703q0 -187 125 -187q140 0 270 199v691h296v-1098h-296zM475 1283l241 321h271l-321 -321h-191z" />
    <glyph glyph-name="ucircumflex" unicode="&#xfb;" horiz-adv-x="1345" 
d="M864 0v207q-144 -232 -374 -232q-147 0 -232 93t-85 254v776h296v-703q0 -187 125 -187q140 0 270 199v691h296v-1098h-296zM288 1283l241 321h273l241 -321h-179l-198 197h-2l-197 -197h-179z" />
    <glyph glyph-name="udieresis" unicode="&#xfc;" horiz-adv-x="1345" 
d="M864 0v207q-144 -232 -374 -232q-147 0 -232 93t-85 254v776h296v-703q0 -187 125 -187q140 0 270 199v691h296v-1098h-296zM345 1283v222h222v-222h-222zM764 1283v222h222v-222h-222z" />
    <glyph glyph-name="yacute" unicode="&#xfd;" horiz-adv-x="1194" 
d="M189 -395l249 395l-407 1098h318l272 -734l323 734h225l-678 -1493h-302zM431 1283l241 321h271l-321 -321h-191z" />
    <glyph glyph-name="thorn" unicode="&#xfe;" horiz-adv-x="1357" 
d="M185 -395v1974h296v-688q114 232 359 232q198 0 311.5 -145t113.5 -399q0 -276 -128 -440t-343 -164q-173 0 -313 136v-506h-296zM481 287q108 -120 230 -120q109 0 174 105.5t65 281.5q0 337 -217 337q-131 0 -252 -169v-435z" />
    <glyph glyph-name="ydieresis" unicode="&#xff;" horiz-adv-x="1194" 
d="M189 -395l249 395l-407 1098h318l272 -734l323 734h225l-678 -1493h-302zM301 1283v222h222v-222h-222zM720 1283v222h222v-222h-222z" />
    <glyph glyph-name="Amacron" unicode="&#x100;" horiz-adv-x="1508" 
d="M23 0l576 1480h308l576 -1480h-316l-154 395h-612l-154 -395h-224zM477 592h460l-230 590zM382 1605v173h740v-173h-740z" />
    <glyph glyph-name="amacron" unicode="&#x101;" horiz-adv-x="1204" 
d="M723 118q-148 -143 -317 -143q-144 0 -234 88t-90 228q0 182 145.5 280.5t416.5 98.5h79v100q0 171 -195 171q-173 0 -350 -98v204q201 76 398 76q431 0 431 -343v-486q0 -129 79 -129q18 0 50 11v-173q-94 -28 -166 -28q-182 0 -234 143h-13zM723 277v223h-70
q-134 0 -210.5 -48t-76.5 -132q0 -61 41.5 -102.5t102.5 -41.5q104 0 213 101zM219 1283v173h740v-173h-740z" />
    <glyph glyph-name="Abreve" unicode="&#x102;" horiz-adv-x="1508" 
d="M23 0l576 1480h308l576 -1480h-316l-154 395h-612l-154 -395h-224zM477 592h460l-230 590zM398 1926h148q42 -142 206 -142t205 142h148q-17 -147 -112.5 -234t-240.5 -87t-241 86.5t-113 234.5z" />
    <glyph glyph-name="abreve" unicode="&#x103;" horiz-adv-x="1204" 
d="M723 118q-148 -143 -317 -143q-144 0 -234 88t-90 228q0 182 145.5 280.5t416.5 98.5h79v100q0 171 -195 171q-173 0 -350 -98v204q201 76 398 76q431 0 431 -343v-486q0 -129 79 -129q18 0 50 11v-173q-94 -28 -166 -28q-182 0 -234 143h-13zM723 277v223h-70
q-134 0 -210.5 -48t-76.5 -132q0 -61 41.5 -102.5t102.5 -41.5q104 0 213 101zM235 1604h148q42 -142 206 -142t205 142h148q-17 -147 -112.5 -234t-240.5 -87t-241 86.5t-113 234.5z" />
    <glyph glyph-name="Aogonek" unicode="&#x104;" horiz-adv-x="1508" 
d="M23 0l576 1480h308l576 -1480h-316l-154 395h-612l-154 -395h-224zM477 592h460l-230 590zM1167 0h158q-186 -86 -186 -180q0 -95 162 -95q85 0 135 15v-81q-86 -29 -199 -29q-133 0 -214 44t-81 115q0 118 225 211z" />
    <glyph glyph-name="aogonek" unicode="&#x105;" horiz-adv-x="1204" 
d="M723 118q-148 -143 -317 -143q-144 0 -234 88t-90 228q0 182 145.5 280.5t416.5 98.5h79v100q0 171 -195 171q-173 0 -350 -98v204q201 76 398 76q431 0 431 -343v-486q0 -129 79 -129q18 0 50 11v-173q-94 -28 -166 -28q-182 0 -234 143h-13zM723 277v223h-70
q-134 0 -210.5 -48t-76.5 -132q0 -61 41.5 -102.5t102.5 -41.5q104 0 213 101zM835 0h158q-186 -86 -186 -180q0 -95 162 -95q85 0 135 15v-81q-86 -29 -199 -29q-133 0 -214 44t-81 115q0 118 225 211z" />
    <glyph glyph-name="Cacute" unicode="&#x106;" horiz-adv-x="1459" 
d="M1376 59q-215 -96 -513 -96q-364 0 -567 205t-203 572q0 374 204.5 575.5t583.5 201.5q242 0 481 -57v-241q-271 95 -454 95q-234 0 -361 -148.5t-127 -421.5q0 -268 136.5 -418t379.5 -150q218 0 440 110v-227zM692 1605l241 321h271l-321 -321h-191z" />
    <glyph glyph-name="cacute" unicode="&#x107;" horiz-adv-x="1090" 
d="M995 24q-184 -49 -341 -49q-263 0 -415.5 154.5t-152.5 420.5q0 269 157 421t434 152q134 0 309 -43v-214q-182 59 -291 59q-133 0 -214 -102t-81 -271q0 -173 87.5 -277t233.5 -104q133 0 274 58v-205zM469 1283l241 321h271l-321 -321h-191z" />
    <glyph glyph-name="Ccaron" unicode="&#x10c;" horiz-adv-x="1459" 
d="M1376 59q-215 -96 -513 -96q-364 0 -567 205t-203 572q0 374 204.5 575.5t583.5 201.5q242 0 481 -57v-241q-271 95 -454 95q-234 0 -361 -148.5t-127 -421.5q0 -268 136.5 -418t379.5 -150q218 0 440 110v-227zM1260 1926l-241 -321h-273l-241 321h179l197 -198h2
l198 198h179z" />
    <glyph glyph-name="ccaron" unicode="&#x10d;" horiz-adv-x="1090" 
d="M995 24q-184 -49 -341 -49q-263 0 -415.5 154.5t-152.5 420.5q0 269 157 421t434 152q134 0 309 -43v-214q-182 59 -291 59q-133 0 -214 -102t-81 -271q0 -173 87.5 -277t233.5 -104q133 0 274 58v-205zM1039 1604l-241 -321h-273l-241 321h179l197 -198h2l198 198h179z
" />
    <glyph glyph-name="Dcaron" unicode="&#x10e;" horiz-adv-x="1624" 
d="M185 0v1480h637q344 0 527 -182.5t183 -526.5q0 -366 -194 -568.5t-543 -202.5h-610zM493 210h230q268 0 375 151q107 150 107 392q0 212 -96 353q-66 97 -159 134t-271 37h-186v-1067zM1187 1926l-241 -321h-273l-241 321h179l197 -198h2l198 198h179z" />
    <glyph glyph-name="dcaron" unicode="&#x10f;" horiz-adv-x="1653" 
d="M876 0v207q-114 -232 -359 -232q-198 0 -311 145t-113 399q0 276 127.5 440t342.5 164q172 0 313 -136v592h297v-1579h-297zM876 811q-107 120 -229 120q-109 0 -174 -105t-65 -282q0 -337 216 -337q132 0 252 169v435zM1458 1283h-114v296h296v-229q0 -363 -296 -363
v102q114 0 114 165v29z" />
    <glyph glyph-name="Dcroat" unicode="&#x110;" horiz-adv-x="1624" 
d="M185 0v645h-185v197h185v638h637q344 0 527 -182.5t183 -526.5q0 -366 -194 -568.5t-543 -202.5h-610zM493 210h230q268 0 375 151q107 150 107 392q0 212 -96 353q-66 97 -159 134t-271 37h-186v-435h210v-197h-210v-435z" />
    <glyph glyph-name="dcroat" unicode="&#x111;" horiz-adv-x="1357" 
d="M1173 0h-297v207q-114 -232 -359 -232q-195 0 -309.5 144t-114.5 390q0 266 129 427.5t341 161.5q172 0 313 -136v272h-259v172h259v173h297v-173h185v-172h-185v-1234zM876 786q-107 121 -229 121q-107 0 -173 -102t-66 -266q0 -332 216 -332q132 0 252 169v410z" />
    <glyph glyph-name="Emacron" unicode="&#x112;" horiz-adv-x="1230" 
d="M185 0v1480h925v-203h-617v-413h506v-204h-506v-450h664v-210h-972zM273 1605v173h740v-173h-740z" />
    <glyph glyph-name="emacron" unicode="&#x113;" horiz-adv-x="1200" 
d="M1079 37q-211 -62 -400 -62q-275 0 -434 156t-159 426q0 255 145.5 410.5t384.5 155.5q241 0 352 -152t111 -481h-681q30 -314 345 -314q149 0 336 69v-208zM394 657h394q0 281 -181 281q-184 0 -213 -281zM242 1283v173h740v-173h-740z" />
    <glyph glyph-name="Edotaccent" unicode="&#x116;" horiz-adv-x="1230" 
d="M185 0v1480h925v-203h-617v-413h506v-204h-506v-450h664v-210h-972zM495 1605v296h296v-296h-296z" />
    <glyph glyph-name="edotaccent" unicode="&#x117;" horiz-adv-x="1200" 
d="M1079 37q-211 -62 -400 -62q-275 0 -434 156t-159 426q0 255 145.5 410.5t384.5 155.5q241 0 352 -152t111 -481h-681q30 -314 345 -314q149 0 336 69v-208zM394 657h394q0 281 -181 281q-184 0 -213 -281zM464 1283v296h296v-296h-296z" />
    <glyph glyph-name="Eogonek" unicode="&#x118;" horiz-adv-x="1230" 
d="M185 0v1480h925v-203h-617v-413h506v-204h-506v-450h664v-210h-972zM864 0h158q-186 -86 -186 -180q0 -95 162 -95q85 0 135 15v-81q-86 -29 -199 -29q-133 0 -214 44t-81 115q0 118 225 211z" />
    <glyph glyph-name="eogonek" unicode="&#x119;" horiz-adv-x="1200" 
d="M1079 37q-211 -62 -400 -62q-275 0 -434 156t-159 426q0 255 145.5 410.5t384.5 155.5q241 0 352 -152t111 -481h-681q30 -314 345 -314q149 0 336 69v-208zM394 657h394q0 281 -181 281q-184 0 -213 -281zM633 0h158q-186 -86 -186 -180q0 -95 162 -95q85 0 135 15v-81
q-86 -29 -199 -29q-133 0 -214 44t-81 115q0 118 225 211z" />
    <glyph glyph-name="Ecaron" unicode="&#x11a;" horiz-adv-x="1230" 
d="M185 0v1480h925v-203h-617v-413h506v-204h-506v-450h664v-210h-972zM1009 1926l-241 -321h-273l-241 321h179l197 -198h2l198 198h179z" />
    <glyph glyph-name="ecaron" unicode="&#x11b;" horiz-adv-x="1200" 
d="M1079 37q-211 -62 -400 -62q-275 0 -434 156t-159 426q0 255 145.5 410.5t384.5 155.5q241 0 352 -152t111 -481h-681q30 -314 345 -314q149 0 336 69v-208zM394 657h394q0 281 -181 281q-184 0 -213 -281zM989 1604l-241 -321h-273l-241 321h179l197 -198h2l198 198h179
z" />
    <glyph glyph-name="Gbreve" unicode="&#x11e;" horiz-adv-x="1527" 
d="M1367 35q-278 -72 -480 -72q-383 0 -588.5 201.5t-205.5 577.5q0 373 205.5 574t585.5 201q243 0 482 -57v-241q-277 95 -455 95q-235 0 -363 -150t-128 -425q0 -266 137 -417.5t378 -151.5q53 0 124 15v487h308v-637zM533 1926h148q42 -142 206 -142t205 142h148
q-17 -147 -112.5 -234t-240.5 -87t-241 86.5t-113 234.5z" />
    <glyph glyph-name="gbreve" unicode="&#x11f;" horiz-adv-x="1351" 
d="M193 -341l24 215q183 -84 349 -84q164 0 237 70t73 227v150q-108 -237 -357 -237q-196 0 -311 146.5t-115 396.5q0 263 129 421.5t343 158.5q168 0 311 -136l31 111h266v-838q0 -251 -30.5 -362t-118.5 -189q-148 -128 -417 -128q-191 0 -414 78zM876 409v405
q-107 121 -224 121q-112 0 -178 -102t-66 -274q0 -322 207 -322q143 0 261 172zM268 1604h148q42 -142 206 -142t205 142h148q-17 -147 -112.5 -234t-240.5 -87t-241 86.5t-113 234.5z" />
    <glyph glyph-name="uni0122" unicode="&#x122;" horiz-adv-x="1527" 
d="M1367 35q-278 -72 -480 -72q-383 0 -588.5 201.5t-205.5 577.5q0 373 205.5 574t585.5 201q243 0 482 -57v-241q-277 95 -455 95q-235 0 -363 -150t-128 -425q0 -266 137 -417.5t378 -151.5q53 0 124 15v487h308v-637zM760 0h136l-76 -113q232 -25 232 -156
q0 -69 -72 -116t-177 -47q-82 0 -188 29v92q70 -15 117 -15q122 0 122 60q0 84 -195 84h-20z" />
    <glyph glyph-name="uni0123" unicode="&#x123;" horiz-adv-x="1351" 
d="M193 -341l24 215q183 -84 349 -84q164 0 237 70t73 227v150q-108 -237 -357 -237q-196 0 -311 146.5t-115 396.5q0 263 129 421.5t343 158.5q168 0 311 -136l31 111h266v-838q0 -251 -30.5 -362t-118.5 -189q-148 -128 -417 -128q-191 0 -414 78zM876 409v405
q-107 121 -224 121q-112 0 -178 -102t-66 -274q0 -322 207 -322q143 0 261 172zM463 1283l241 321h271l-321 -321h-191z" />
    <glyph glyph-name="Itilde" unicode="&#x128;" horiz-adv-x="678" 
d="M185 0v1480h308v-1480h-308zM138 1605h-148q0 321 201 321q65 0 127 -43l38 -26l31 -22q64 -45 91 -45q67 0 67 136h148q0 -321 -201 -321q-65 0 -126 43l-39 26q-24 17 -31 22q-61 45 -91 45q-67 0 -67 -136z" />
    <glyph glyph-name="itilde" unicode="&#x129;" horiz-adv-x="666" 
d="M185 0v1098h296v-1098h-296zM129 1283h-148q0 321 201 321q65 0 127 -43l38 -26l31 -22q64 -45 91 -45q67 0 67 136h148q0 -321 -201 -321q-65 0 -126 43l-39 26q-24 17 -31 22q-61 45 -91 45q-67 0 -67 -136z" />
    <glyph glyph-name="Imacron" unicode="&#x12a;" horiz-adv-x="678" 
d="M185 0v1480h308v-1480h-308zM-30 1605v173h740v-173h-740z" />
    <glyph glyph-name="imacron" unicode="&#x12b;" horiz-adv-x="666" 
d="M185 0v1098h296v-1098h-296zM-37 1283v173h740v-173h-740z" />
    <glyph glyph-name="Iogonek" unicode="&#x12e;" horiz-adv-x="678" 
d="M185 0v1480h308v-1480h-308zM336 0h158q-186 -86 -186 -180q0 -95 162 -95q85 0 135 15v-81q-86 -29 -199 -29q-133 0 -214 44t-81 115q0 118 225 211z" />
    <glyph glyph-name="iogonek" unicode="&#x12f;" horiz-adv-x="666" 
d="M185 0v1098h296v-1098h-296zM185 1283v247h296v-247h-296zM324 0h158q-186 -86 -186 -180q0 -95 162 -95q85 0 135 15v-81q-86 -29 -199 -29q-133 0 -214 44t-81 115q0 118 225 211z" />
    <glyph glyph-name="Idotaccent" unicode="&#x130;" horiz-adv-x="678" 
d="M185 0v1480h308v-1480h-308zM185 1605v296h296v-296h-296z" />
    <glyph glyph-name="dotlessi" unicode="&#x131;" horiz-adv-x="666" 
d="M185 0v1098h296v-1098h-296z" />
    <glyph glyph-name="IJ" unicode="&#x132;" horiz-adv-x="1431" 
d="M185 0v1480h308v-1480h-308zM507 -260l-2 220q120 -47 247 -47q106 0 146 59t40 212v1296h309v-1263q0 -273 -111 -393t-363 -120q-126 0 -266 36z" />
    <glyph glyph-name="ij" unicode="&#x133;" horiz-adv-x="1342" 
d="M185 0v1098h296v-1098h-296zM185 1283v247h296v-247h-296zM480 -373v198q129 -59 221 -59q86 0 122.5 53.5t36.5 180.5v1098h296v-1078q0 -230 -102.5 -335t-327.5 -105q-100 0 -246 47zM860 1283v247h296v-247h-296z" />
    <glyph glyph-name="Jcircumflex" unicode="&#x134;" horiz-adv-x="680" 
d="M185 0v1480h308v-1480h-308z" />
    <glyph glyph-name="jcircumflex" unicode="&#x135;" horiz-adv-x="666" 
d="M185 0v1098h296v-1098h-296zM185 1283v247h296v-247h-296z" />
    <glyph glyph-name="uni0136" unicode="&#x136;" horiz-adv-x="1454" 
d="M185 0v1480h296v-718l566 718h256l-513 -664l637 -816h-385l-561 728v-728h-296zM346 0h136l-76 -113q232 -25 232 -156q0 -69 -72 -116t-177 -47q-82 0 -188 29v92q70 -15 117 -15q122 0 122 60q0 84 -195 84h-20z" />
    <glyph glyph-name="uni0137" unicode="&#x137;" horiz-adv-x="1296" 
d="M185 0v1579h296v-993h19l391 512h246l-361 -470l474 -628h-360l-390 549h-19v-549h-296zM346 0h136l-76 -113q232 -25 232 -156q0 -69 -72 -116t-177 -47q-82 0 -188 29v92q70 -15 117 -15q122 0 122 60q0 84 -195 84h-20z" />
    <glyph glyph-name="Lacute" unicode="&#x139;" horiz-adv-x="1190" 
d="M185 0v1480h308v-1270h667v-210h-975zM302 1605l241 321h271l-321 -321h-191z" />
    <glyph glyph-name="lacute" unicode="&#x13a;" horiz-adv-x="666" 
d="M185 0v1579h296v-1579h-296zM142 1678l241 321h271l-321 -321h-191z" />
    <glyph glyph-name="uni013B" unicode="&#x13b;" horiz-adv-x="1190" 
d="M185 0v1480h308v-1270h667v-210h-975zM579 0h136l-76 -113q232 -25 232 -156q0 -69 -72 -116t-177 -47q-82 0 -188 29v92q70 -15 117 -15q122 0 122 60q0 84 -195 84h-20z" />
    <glyph glyph-name="uni013C" unicode="&#x13c;" horiz-adv-x="666" 
d="M185 0v1579h296v-1579h-296zM307 0h136l-76 -113q232 -25 232 -156q0 -69 -72 -116t-177 -47q-82 0 -188 29v92q70 -15 117 -15q122 0 122 60q0 84 -195 84h-20z" />
    <glyph glyph-name="Lcaron" unicode="&#x13d;" horiz-adv-x="1190" 
d="M185 0v1480h308v-1270h667v-210h-975zM903 1186h-114v296h296v-229q0 -363 -296 -363v102q114 0 114 165v29z" />
    <glyph glyph-name="lcaron" unicode="&#x13e;" horiz-adv-x="962" 
d="M185 0v1579h296v-1579h-296zM768 1283h-114v296h296v-229q0 -363 -296 -363v102q114 0 114 165v29z" />
    <glyph glyph-name="Ldot" unicode="&#x13f;" horiz-adv-x="1190" 
d="M185 0v1480h308v-1270h667v-210h-975zM787 698v296h296v-296h-296z" />
    <glyph glyph-name="ldot" unicode="&#x140;" horiz-adv-x="962" 
d="M185 0v1579h296v-1579h-296zM666 674v296h296v-296h-296z" />
    <glyph glyph-name="Lslash" unicode="&#x141;" horiz-adv-x="1203" 
d="M197 0v596l-197 -102v193l197 103v690h308v-524l247 133v-197l-247 -132v-550h667v-210h-975z" />
    <glyph glyph-name="lslash" unicode="&#x142;" horiz-adv-x="728" 
d="M222 0v632l-210 -112v198l210 113v748h296v-589l210 110v-194l-210 -112v-794h-296z" />
    <glyph glyph-name="Nacute" unicode="&#x143;" horiz-adv-x="1574" 
d="M185 0v1480h271l686 -1011v1011h247v-1480h-276l-681 1011v-1011h-247zM678 1605l241 321h271l-321 -321h-191z" />
    <glyph glyph-name="nacute" unicode="&#x144;" horiz-adv-x="1345" 
d="M185 0v1098h296v-207q145 232 374 232q147 0 232 -93t85 -254v-776h-296v703q0 187 -124 187q-141 0 -271 -199v-691h-296zM555 1283l241 321h271l-321 -321h-191z" />
    <glyph glyph-name="uni0145" unicode="&#x145;" horiz-adv-x="1574" 
d="M185 0v1480h271l686 -1011v1011h247v-1480h-276l-681 1011v-1011h-247zM296 0h136l-76 -113q232 -25 232 -156q0 -69 -72 -116t-177 -47q-82 0 -188 29v92q70 -15 117 -15q122 0 122 60q0 84 -195 84h-20z" />
    <glyph glyph-name="uni0146" unicode="&#x146;" horiz-adv-x="1345" 
d="M185 0v1098h296v-207q145 232 374 232q147 0 232 -93t85 -254v-776h-296v703q0 187 -124 187q-141 0 -271 -199v-691h-296zM346 0h136l-76 -113q232 -25 232 -156q0 -69 -72 -116t-177 -47q-82 0 -188 29v92q70 -15 117 -15q122 0 122 60q0 84 -195 84h-20z" />
    <glyph glyph-name="Ncaron" unicode="&#x147;" horiz-adv-x="1574" 
d="M185 0v1480h271l686 -1011v1011h247v-1480h-276l-681 1011v-1011h-247zM1164 1926l-241 -321h-273l-241 321h179l197 -198h2l198 198h179z" />
    <glyph glyph-name="ncaron" unicode="&#x148;" horiz-adv-x="1345" 
d="M185 0v1098h296v-207q145 232 374 232q147 0 232 -93t85 -254v-776h-296v703q0 187 -124 187q-141 0 -271 -199v-691h-296zM1056 1604l-241 -321h-273l-241 321h179l197 -198h2l198 198h179z" />
    <glyph glyph-name="napostrophe" unicode="&#x149;" horiz-adv-x="1345" 
d="M185 0v1098h296v-207q145 232 374 232q147 0 232 -93t85 -254v-776h-296v703q0 187 -124 187q-141 0 -271 -199v-691h-296zM299 1580h-114v296h296v-229q0 -363 -296 -363v102q114 0 114 165v29z" />
    <glyph glyph-name="Omacron" unicode="&#x14c;" horiz-adv-x="1686" 
d="M834 -37q-337 0 -539 212t-202 565q0 357 203 567t548 210q343 0 546.5 -210t203.5 -564q0 -362 -203.5 -571t-556.5 -209zM838 167q198 0 313.5 155.5t115.5 421.5q0 258 -116 414t-307 156q-193 0 -308.5 -156t-115.5 -417q0 -259 115 -416.5t303 -157.5zM472 1605v173
h740v-173h-740z" />
    <glyph glyph-name="omacron" unicode="&#x14d;" horiz-adv-x="1308" 
d="M646 -25q-257 0 -408.5 155.5t-151.5 418.5q0 266 152.5 420t414.5 154q263 0 415.5 -154t152.5 -418q0 -270 -153 -423t-422 -153zM651 160q120 0 187.5 103.5t67.5 287.5q0 179 -67.5 283t-185.5 104q-117 0 -184.5 -104t-67.5 -285q0 -179 67 -284t183 -105zM284 1283
v173h740v-173h-740z" />
    <glyph glyph-name="Ohungarumlaut" unicode="&#x150;" horiz-adv-x="1686" 
d="M834 -37q-337 0 -539 212t-202 565q0 357 203 567t548 210q343 0 546.5 -210t203.5 -564q0 -362 -203.5 -571t-556.5 -209zM838 167q198 0 313.5 155.5t115.5 421.5q0 258 -116 414t-307 156q-193 0 -308.5 -156t-115.5 -417q0 -259 115 -416.5t303 -157.5zM581 1605
l241 321h228l-321 -321h-148zM958 1605l240 321h229l-321 -321h-148z" />
    <glyph glyph-name="ohungarumlaut" unicode="&#x151;" horiz-adv-x="1308" 
d="M646 -25q-257 0 -408.5 155.5t-151.5 418.5q0 266 152.5 420t414.5 154q263 0 415.5 -154t152.5 -418q0 -270 -153 -423t-422 -153zM651 160q120 0 187.5 103.5t67.5 287.5q0 179 -67.5 283t-185.5 104q-117 0 -184.5 -104t-67.5 -285q0 -179 67 -284t183 -105zM390 1283
l241 321h228l-321 -321h-148zM767 1283l240 321h229l-321 -321h-148z" />
    <glyph glyph-name="Racute" unicode="&#x154;" horiz-adv-x="1413" 
d="M185 0v1480h554q220 0 335.5 -93.5t115.5 -273.5q0 -137 -76.5 -249.5t-210.5 -172.5l484 -691h-375l-367 605h-170v-605h-290zM475 808h71q335 0 335 271q0 198 -299 198h-107v-469zM549 1605l241 321h271l-321 -321h-191z" />
    <glyph glyph-name="racute" unicode="&#x155;" horiz-adv-x="930" 
d="M185 0v1098h296v-207q115 232 350 232q28 0 55 -6v-264q-63 23 -117 23q-177 0 -288 -179v-697h-296zM292 1283l241 321h271l-321 -321h-191z" />
    <glyph glyph-name="uni0156" unicode="&#x156;" horiz-adv-x="1413" 
d="M185 0v1480h554q220 0 335.5 -93.5t115.5 -273.5q0 -137 -76.5 -249.5t-210.5 -172.5l484 -691h-375l-367 605h-170v-605h-290zM475 808h71q335 0 335 271q0 198 -299 198h-107v-469zM339 0h136l-76 -113q232 -25 232 -156q0 -69 -72 -116t-177 -47q-82 0 -188 29v92
q70 -15 117 -15q122 0 122 60q0 84 -195 84h-20z" />
    <glyph glyph-name="uni0157" unicode="&#x157;" horiz-adv-x="930" 
d="M185 0v1098h296v-207q115 232 350 232q28 0 55 -6v-264q-63 23 -117 23q-177 0 -288 -179v-697h-296zM346 0h136l-76 -113q232 -25 232 -156q0 -69 -72 -116t-177 -47q-82 0 -188 29v92q70 -15 117 -15q122 0 122 60q0 84 -195 84h-20z" />
    <glyph glyph-name="Rcaron" unicode="&#x158;" horiz-adv-x="1413" 
d="M185 0v1480h554q220 0 335.5 -93.5t115.5 -273.5q0 -137 -76.5 -249.5t-210.5 -172.5l484 -691h-375l-367 605h-170v-605h-290zM475 808h71q335 0 335 271q0 198 -299 198h-107v-469zM981 1926l-241 -321h-273l-241 321h179l197 -198h2l198 198h179z" />
    <glyph glyph-name="rcaron" unicode="&#x159;" horiz-adv-x="930" 
d="M185 0v1098h296v-207q115 232 350 232q28 0 55 -6v-264q-63 23 -117 23q-177 0 -288 -179v-697h-296zM860 1604l-241 -321h-273l-241 321h179l197 -198h2l198 198h179z" />
    <glyph glyph-name="Sacute" unicode="&#x15a;" horiz-adv-x="1170" 
d="M102 13v254q239 -100 409 -100q119 0 187.5 53t68.5 144q0 72 -43 121.5t-163 117.5l-99 55q-199 112 -281 214.5t-82 239.5q0 183 134.5 294t355.5 111q177 0 399 -51v-237q-227 85 -359 85q-102 0 -163.5 -45.5t-61.5 -119.5q0 -61 43 -107t162 -113l106 -59
q214 -120 295 -221t81 -246q0 -206 -153 -323t-422 -117q-178 0 -414 50zM398 1605l241 321h271l-321 -321h-191z" />
    <glyph glyph-name="sacute" unicode="&#x15b;" horiz-adv-x="1158" 
d="M156 35v217q220 -92 376 -92q182 0 182 124q0 80 -150 140l-100 40q-163 66 -233 142t-70 188q0 156 119 242.5t333 86.5q134 0 319 -39v-208q-178 62 -295 62q-184 0 -184 -114q0 -75 136 -127l86 -33q193 -73 268.5 -148t75.5 -193q0 -155 -128.5 -251.5t-334.5 -96.5
q-198 0 -400 60zM419 1283l241 321h271l-321 -321h-191z" />
    <glyph glyph-name="Scedilla" unicode="&#x15e;" horiz-adv-x="1170" 
d="M102 13v254q239 -100 409 -100q119 0 187.5 53t68.5 144q0 72 -43 121.5t-163 117.5l-99 55q-199 112 -281 214.5t-82 239.5q0 183 134.5 294t355.5 111q177 0 399 -51v-237q-227 85 -359 85q-102 0 -163.5 -45.5t-61.5 -119.5q0 -61 43 -107t162 -113l106 -59
q214 -120 295 -221t81 -246q0 -206 -153 -323t-422 -117q-178 0 -414 50zM399 -97q363 0 363 -171q0 -68 -70.5 -116t-170.5 -48q-81 0 -196 13v98q64 -6 113 -6q126 0 126 65q0 66 -165 66v99z" />
    <glyph glyph-name="scedilla" unicode="&#x15f;" horiz-adv-x="1158" 
d="M156 35v217q220 -92 376 -92q182 0 182 124q0 80 -150 140l-100 40q-163 66 -233 142t-70 188q0 156 119 242.5t333 86.5q134 0 319 -39v-208q-178 62 -295 62q-184 0 -184 -114q0 -75 136 -127l86 -33q193 -73 268.5 -148t75.5 -193q0 -155 -128.5 -251.5t-334.5 -96.5
q-198 0 -400 60zM420 -97q363 0 363 -171q0 -68 -70.5 -116t-170.5 -48q-81 0 -196 13v98q64 -6 113 -6q126 0 126 65q0 66 -165 66v99z" />
    <glyph glyph-name="uni0162" unicode="&#x162;" horiz-adv-x="1413" 
d="M552 0v1277h-530v203h1369v-203h-530v-1277h-309zM564 -97q363 0 363 -171q0 -68 -70.5 -116t-170.5 -48q-81 0 -196 13v98q64 -6 113 -6q126 0 126 65q0 66 -165 66v99z" />
    <glyph glyph-name="uni0163" unicode="&#x163;" horiz-adv-x="829" 
d="M751 6q-106 -31 -167 -31q-201 0 -293 86t-92 274v578h-123v185h123v185l296 34v-219h235v-185h-235v-539q0 -202 165 -202q38 0 91 14v-180zM311 -97q363 0 363 -171q0 -68 -70.5 -116t-170.5 -48q-81 0 -196 13v98q64 -6 113 -6q126 0 126 65q0 66 -165 66v99z" />
    <glyph glyph-name="Tcaron" unicode="&#x164;" horiz-adv-x="1413" 
d="M552 0v1277h-530v203h1369v-203h-530v-1277h-309zM1084 1926l-241 -321h-273l-241 321h179l197 -198h2l198 198h179z" />
    <glyph glyph-name="tcaron" unicode="&#x165;" horiz-adv-x="829" 
d="M751 6q-106 -31 -167 -31q-201 0 -293 86t-92 274v578h-123v185h123v185l296 34v-219h235v-185h-235v-539q0 -202 165 -202q38 0 91 14v-180zM647 1627h-114v296h296v-229q0 -363 -296 -363v102q114 0 114 165v29z" />
    <glyph glyph-name="Utilde" unicode="&#x168;" horiz-adv-x="1508" 
d="M173 1480h308v-907q0 -215 71 -310.5t229 -95.5q151 0 218.5 91t67.5 293v929h268v-909q0 -205 -39 -312.5t-142 -186.5q-141 -109 -379 -109q-255 0 -410 116q-107 80 -149.5 189.5t-42.5 305.5v906zM571 1605h-148q0 321 201 321q65 0 127 -43l38 -26l31 -22
q64 -45 91 -45q67 0 67 136h148q0 -321 -201 -321q-65 0 -126 43l-39 26q-24 17 -31 22q-61 45 -91 45q-67 0 -67 -136z" />
    <glyph glyph-name="utilde" unicode="&#x169;" horiz-adv-x="1345" 
d="M864 0v207q-144 -232 -374 -232q-147 0 -232 93t-85 254v776h296v-703q0 -187 125 -187q140 0 270 199v691h296v-1098h-296zM462 1283h-148q0 321 201 321q65 0 127 -43l38 -26l31 -22q64 -45 91 -45q67 0 67 136h148q0 -321 -201 -321q-65 0 -126 43l-39 26
q-24 17 -31 22q-61 45 -91 45q-67 0 -67 -136z" />
    <glyph glyph-name="Umacron" unicode="&#x16a;" horiz-adv-x="1508" 
d="M173 1480h308v-907q0 -215 71 -310.5t229 -95.5q151 0 218.5 91t67.5 293v929h268v-909q0 -205 -39 -312.5t-142 -186.5q-141 -109 -379 -109q-255 0 -410 116q-107 80 -149.5 189.5t-42.5 305.5v906zM405 1605v173h740v-173h-740z" />
    <glyph glyph-name="umacron" unicode="&#x16b;" horiz-adv-x="1345" 
d="M864 0v207q-144 -232 -374 -232q-147 0 -232 93t-85 254v776h296v-703q0 -187 125 -187q140 0 270 199v691h296v-1098h-296zM296 1283v173h740v-173h-740z" />
    <glyph glyph-name="Uring" unicode="&#x16e;" horiz-adv-x="1508" 
d="M173 1480h308v-907q0 -215 71 -310.5t229 -95.5q151 0 218.5 91t67.5 293v929h268v-909q0 -205 -39 -312.5t-142 -186.5q-141 -109 -379 -109q-255 0 -410 116q-107 80 -149.5 189.5t-42.5 305.5v906zM772 1480q-93 0 -158.5 66.5t-65.5 160.5t66 160.5t161 66.5
q94 0 160.5 -66t66.5 -161q0 -96 -66.5 -161.5t-163.5 -65.5zM773 1579q55 0 92.5 37t37.5 92q0 53 -37.5 90t-90.5 37t-90.5 -37t-37.5 -91q0 -53 37 -90.5t89 -37.5z" />
    <glyph glyph-name="uring" unicode="&#x16f;" horiz-adv-x="1345" 
d="M864 0v207q-144 -232 -374 -232q-147 0 -232 93t-85 254v776h296v-703q0 -187 125 -187q140 0 270 199v691h296v-1098h-296zM663 1283q-93 0 -158.5 66.5t-65.5 160.5t66 160.5t161 66.5q94 0 160.5 -66t66.5 -161q0 -96 -66.5 -161.5t-163.5 -65.5zM664 1382
q55 0 92.5 37t37.5 92q0 53 -37.5 90t-90.5 37t-90.5 -37t-37.5 -91q0 -53 37 -90.5t89 -37.5z" />
    <glyph glyph-name="Uhungarumlaut" unicode="&#x170;" horiz-adv-x="1508" 
d="M173 1480h308v-907q0 -215 71 -310.5t229 -95.5q151 0 218.5 91t67.5 293v929h268v-909q0 -205 -39 -312.5t-142 -186.5q-141 -109 -379 -109q-255 0 -410 116q-107 80 -149.5 189.5t-42.5 305.5v906zM493 1605l241 321h228l-321 -321h-148zM870 1605l240 321h229
l-321 -321h-148z" />
    <glyph glyph-name="uhungarumlaut" unicode="&#x171;" horiz-adv-x="1345" 
d="M864 0v207q-144 -232 -374 -232q-147 0 -232 93t-85 254v776h296v-703q0 -187 125 -187q140 0 270 199v691h296v-1098h-296zM339 1283l241 321h228l-321 -321h-148zM716 1283l240 321h229l-321 -321h-148z" />
    <glyph glyph-name="Uogonek" unicode="&#x172;" horiz-adv-x="1508" 
d="M173 1480h308v-907q0 -215 71 -310.5t229 -95.5q151 0 218.5 91t67.5 293v929h268v-909q0 -205 -39 -312.5t-142 -186.5q-141 -109 -379 -109q-255 0 -410 116q-107 80 -149.5 189.5t-42.5 305.5v906zM751 0h158q-186 -86 -186 -180q0 -95 162 -95q85 0 135 15v-81
q-86 -29 -199 -29q-133 0 -214 44t-81 115q0 118 225 211z" />
    <glyph glyph-name="uogonek" unicode="&#x173;" horiz-adv-x="1345" 
d="M864 0v207q-144 -232 -374 -232q-147 0 -232 93t-85 254v776h296v-703q0 -187 125 -187q140 0 270 199v691h296v-1098h-296zM864 0h158q-186 -86 -186 -180q0 -95 162 -95q85 0 135 15v-81q-86 -29 -199 -29q-133 0 -214 44t-81 115q0 118 225 211z" />
    <glyph glyph-name="Zacute" unicode="&#x179;" horiz-adv-x="1320" 
d="M106 0v210l736 1067h-694v203h1052v-203l-736 -1067h736v-210h-1094zM510 1605l241 321h271l-321 -321h-191z" />
    <glyph glyph-name="zacute" unicode="&#x17a;" horiz-adv-x="1210" 
d="M123 0v197l614 716h-586v185h936v-185l-614 -716h626v-197h-976zM477 1283l241 321h271l-321 -321h-191z" />
    <glyph glyph-name="Zdotaccent" unicode="&#x17b;" horiz-adv-x="1320" 
d="M106 0v210l736 1067h-694v203h1052v-203l-736 -1067h736v-210h-1094zM526 1605v296h296v-296h-296z" />
    <glyph glyph-name="zdotaccent" unicode="&#x17c;" horiz-adv-x="1210" 
d="M123 0v197l614 716h-586v185h936v-185l-614 -716h626v-197h-976zM472 1283v296h296v-296h-296z" />
    <glyph glyph-name="Zcaron" unicode="&#x17d;" horiz-adv-x="1320" 
d="M106 0v210l736 1067h-694v203h1052v-203l-736 -1067h736v-210h-1094zM1051 1926l-241 -321h-273l-241 321h179l197 -198h2l198 198h179z" />
    <glyph glyph-name="zcaron" unicode="&#x17e;" horiz-adv-x="1210" 
d="M123 0v197l614 716h-586v185h936v-185l-614 -716h626v-197h-976zM997 1604l-241 -321h-273l-241 321h179l197 -198h2l198 198h179z" />
    <glyph glyph-name="Ohorn" unicode="&#x1a0;" horiz-adv-x="1803" 
d="M838 167q198 0 313.5 155.5t115.5 421.5q0 258 -116 414t-307 156q-193 0 -308.5 -156t-115.5 -417q0 -259 115 -416.5t303 -157.5zM1509 1139q85 -179 85 -404q0 -353 -204 -562.5t-546 -209.5q-345 0 -548 210t-203 567t203 567t548 210q387 0 591 -259h15
q74 0 102.5 32.5t28.5 117.5l1 72v99h210v-49q0 -365 -283 -391zM1686 0z" />
    <glyph glyph-name="ohorn" unicode="&#x1a1;" horiz-adv-x="1470" 
d="M651 160q120 0 187.5 103.5t67.5 287.5q0 179 -67.5 283t-185.5 104q-117 0 -184.5 -104t-67.5 -285q0 -179 67 -284t183 -105zM1190 758q31 -101 31 -207q0 -267 -152 -421.5t-416 -154.5q-263 0 -415 154t-152 420t152.5 420t415.5 154q333 0 484 -246q108 10 108 148
l1 73v86h210v-37q0 -182 -63 -273.5t-204 -115.5zM1308 0z" />
    <glyph glyph-name="Uhorn" unicode="&#x1af;" horiz-adv-x="1693" 
d="M173 1480h308v-907q0 -215 71 -310.5t229 -95.5q151 0 218.5 91t67.5 293v929h268v-222q77 0 106 32t29 118l1 72v99h210v-49q0 -204 -84 -299.5t-262 -95.5v-564q0 -205 -39 -312.5t-142 -186.5q-141 -109 -379 -109q-255 0 -410 116q-107 80 -149.5 189.5t-42.5 305.5
v906zM1508 0z" />
    <glyph glyph-name="uhorn" unicode="&#x1b0;" horiz-adv-x="1517" 
d="M864 0v207q-144 -232 -374 -232q-147 0 -232 93t-85 254v776h296v-703q0 -187 125 -187q140 0 270 199v691h296v-222q77 0 105.5 32t28.5 117l2 73v86h209v-37q0 -203 -83.5 -298.5t-261.5 -95.5v-753h-296zM1345 0z" />
    <glyph glyph-name="caron" unicode="&#x2c7;" horiz-adv-x="1308" 
d="M1031 1604l-241 -321h-273l-241 321h179l197 -198h2l198 198h179z" />
    <glyph glyph-name="macron" unicode="&#x2c9;" horiz-adv-x="1308" 
d="M284 1283v173h740v-173h-740z" />
    <glyph glyph-name="breve" unicode="&#x2d8;" horiz-adv-x="1308" 
d="M300 1604h148q42 -142 206 -142t205 142h148q-17 -147 -112.5 -234t-240.5 -87t-241 86.5t-113 234.5z" />
    <glyph glyph-name="dotaccent" unicode="&#x2d9;" horiz-adv-x="1308" 
d="M506 1283v296h296v-296h-296z" />
    <glyph glyph-name="ring" unicode="&#x2da;" horiz-adv-x="1308" 
d="M651 1283q-93 0 -158.5 66.5t-65.5 160.5t66 160.5t161 66.5q94 0 160.5 -66t66.5 -161q0 -96 -66.5 -161.5t-163.5 -65.5zM652 1382q55 0 92.5 37t37.5 92q0 53 -37.5 90t-90.5 37t-90.5 -37t-37.5 -91q0 -53 37 -90.5t89 -37.5z" />
    <glyph glyph-name="ogonek" unicode="&#x2db;" horiz-adv-x="1308" 
d="M671 0h158q-186 -86 -186 -180q0 -95 162 -95q85 0 135 15v-81q-86 -29 -199 -29q-133 0 -214 44t-81 115q0 118 225 211z" />
    <glyph glyph-name="hungarumlaut" unicode="&#x2dd;" horiz-adv-x="1308" 
d="M296 1283l241 321h228l-321 -321h-148zM673 1283l240 321h229l-321 -321h-148z" />
    <glyph glyph-name="gravecomb" unicode="&#x300;" horiz-adv-x="1309" 
d="M867 1283h-191l-321 321h271z" />
    <glyph glyph-name="acutecomb" unicode="&#x301;" horiz-adv-x="1309" 
d="M463 1283l241 321h271l-321 -321h-191z" />
    <glyph glyph-name="uni0302" unicode="&#x302;" horiz-adv-x="1309" 
d="M276 1283l241 321h273l241 -321h-179l-198 197h-2l-197 -197h-179z" />
    <glyph glyph-name="tildecomb" unicode="&#x303;" horiz-adv-x="1309" 
d="M450 1283h-148q0 321 201 321q65 0 127 -43l38 -26l31 -22q64 -45 91 -45q67 0 67 136h148q0 -321 -201 -321q-65 0 -126 43l-39 26q-24 17 -31 22q-61 45 -91 45q-67 0 -67 -136z" />
    <glyph glyph-name="hookabovecomb" unicode="&#x309;" horiz-adv-x="1308" 
d="M753 1283h-197v12q0 49 13 71.5t64 60.5l21 16q12 9 28 20q39 28 39 59q0 57 -100 57q-65 0 -158 -27v124q100 26 188 26q273 0 273 -148q0 -56 -70 -115q-17 -14 -25 -21l-22 -20q-54 -49 -54 -94v-21z" />
    <glyph glyph-name="dotbelowcomb" unicode="&#x323;" horiz-adv-x="1308" 
d="M506 -419v296h297v-296h-297z" />
    <glyph glyph-name="tonos" unicode="&#x384;" horiz-adv-x="1308" 
d="M555 1283l-37 321h271l-37 -321h-197z" />
    <glyph glyph-name="dieresistonos" unicode="&#x385;" horiz-adv-x="1308" 
d="M213 1283v222h222v-222h-222zM873 1283v222h222v-222h-222zM555 1283l-37 321h272l-37 -321h-198z" />
    <glyph glyph-name="Alphatonos" unicode="&#x386;" horiz-adv-x="1508" 
d="M23 0l576 1480h308l576 -1480h-316l-154 395h-612l-154 -395h-224zM477 592h460l-230 590zM93 1161l-37 321h271l-37 -321h-197z" />
    <glyph glyph-name="anoteleia" unicode="&#x387;" horiz-adv-x="506" 
d="M93 469v320h321v-320h-321z" />
    <glyph glyph-name="Epsilontonos" unicode="&#x388;" horiz-adv-x="1514" 
d="M470 0v1480h925v-203h-617v-413h506v-204h-506v-450h664v-210h-972zM38 1161l-37 321h271l-37 -321h-197z" />
    <glyph glyph-name="Etatonos" unicode="&#x389;" horiz-adv-x="1882" 
d="M470 0v1480h308v-601h612v601h308v-1480h-308v675h-612v-675h-308zM38 1161l-37 321h271l-37 -321h-197z" />
    <glyph glyph-name="Iotatonos" unicode="&#x38a;" horiz-adv-x="962" 
d="M470 0v1480h308v-1480h-308zM38 1161l-37 321h271l-37 -321h-197z" />
    <glyph glyph-name="Omicrontonos" unicode="&#x38c;" horiz-adv-x="1917" 
d="M1063 -37q-337 0 -539 212t-202 565q0 357 203 567t548 210q343 0 546.5 -210t203.5 -564q0 -362 -203.5 -571t-556.5 -209zM1067 167q198 0 313.5 155.5t115.5 421.5q0 258 -116 414t-307 156q-193 0 -308.5 -156t-115.5 -417q0 -259 115 -416.5t303 -157.5zM38 1161
l-37 321h271l-37 -321h-197z" />
    <glyph glyph-name="Upsilontonos" unicode="&#x38e;" horiz-adv-x="1807" 
d="M951 0v436q0 339 -147 587t-349 248v209q293 0 460.5 -145.5t245.5 -469.5q91 266 258.5 430.5t367.5 184.5v-185q-212 -49 -369.5 -311t-157.5 -564v-420h-309zM38 1161l-37 321h271l-37 -321h-197z" />
    <glyph glyph-name="Omegatonos" unicode="&#x38f;" horiz-adv-x="1943" 
d="M295 0v204h416q-366 273 -366 648q0 295 206 480t534 185t534 -185t206 -480q0 -374 -366 -648h416v-204h-677v204q300 224 300 626q0 225 -110.5 354.5t-302.5 129.5t-302.5 -130t-110.5 -355q0 -401 300 -625v-204h-677zM38 1159l-37 321h271l-37 -321h-197z" />
    <glyph glyph-name="iotadieresistonos" unicode="&#x390;" horiz-adv-x="788" 
d="M737 25q-119 -50 -241 -50q-160 0 -246 73q-62 52 -83.5 133t-21.5 261v656h296v-674q0 -140 32.5 -197.5t110.5 -57.5q66 0 153 42v-186zM-146 1283v222h222v-222h-222zM514 1283v222h222v-222h-222zM196 1283l-37 321h272l-37 -321h-198z" />
    <glyph glyph-name="Alpha" unicode="&#x391;" horiz-adv-x="1507" 
d="M23 0l576 1480h308l576 -1480h-316l-154 395h-612l-154 -395h-224zM477 592h460l-230 590z" />
    <glyph glyph-name="Beta" unicode="&#x392;" horiz-adv-x="1290" 
d="M185 0v1480h503q223 0 339.5 -84t116.5 -245q0 -267 -355 -378q415 -101 415 -407q0 -177 -121.5 -271.5t-348.5 -94.5h-549zM481 864h67q130 0 206.5 64t76.5 174q0 102 -61.5 138.5t-232.5 36.5h-56v-413zM481 210h60q194 0 267.5 41.5t73.5 151.5q0 113 -98.5 188
t-248.5 75h-54v-456z" />
    <glyph glyph-name="Gamma" unicode="&#x393;" horiz-adv-x="1141" 
d="M185 0v1480h931v-203h-623v-1277h-308z" />
    <glyph glyph-name="uni0394" unicode="&#x394;" horiz-adv-x="1502" 
d="M31 0v247l588 1233h262l590 -1233v-247h-1440zM701 1156l-433 -909h868z" />
    <glyph glyph-name="Epsilon" unicode="&#x395;" horiz-adv-x="1231" 
d="M185 0v1480h925v-203h-617v-413h506v-204h-506v-450h664v-210h-972z" />
    <glyph glyph-name="Zeta" unicode="&#x396;" horiz-adv-x="1321" 
d="M106 0v210l736 1067h-694v203h1052v-203l-736 -1067h736v-210h-1094z" />
    <glyph glyph-name="Eta" unicode="&#x397;" horiz-adv-x="1597" 
d="M185 0v1480h308v-601h612v601h308v-1480h-308v675h-612v-675h-308z" />
    <glyph glyph-name="Theta" unicode="&#x398;" horiz-adv-x="1686" 
d="M834 -37q-337 0 -539 212t-202 565q0 357 203 567t548 210q343 0 546.5 -210t203.5 -564q0 -362 -203.5 -571t-556.5 -209zM838 167q198 0 313.5 155.5t115.5 421.5q0 258 -116 414t-307 156q-193 0 -308.5 -156t-115.5 -417q0 -259 115 -416.5t303 -157.5zM566 666v204
h555v-204h-555z" />
    <glyph glyph-name="Iota" unicode="&#x399;" horiz-adv-x="680" 
d="M185 0v1480h308v-1480h-308z" />
    <glyph glyph-name="Kappa" unicode="&#x39a;" horiz-adv-x="1454" 
d="M185 0v1480h296v-718l566 718h256l-513 -664l637 -816h-385l-561 728v-728h-296z" />
    <glyph glyph-name="Lambda" unicode="&#x39b;" horiz-adv-x="1508" 
d="M23 0l576 1480h308l576 -1480h-316l-453 1164l-453 -1164h-238z" />
    <glyph glyph-name="Mu" unicode="&#x39c;" horiz-adv-x="1860" 
d="M185 0v1480h408l356 -1041l367 1041h358v-1480h-284v1117l-361 -1018h-248l-354 1033v-1132h-242z" />
    <glyph glyph-name="Nu" unicode="&#x39d;" horiz-adv-x="1575" 
d="M185 0v1480h271l686 -1011v1011h247v-1480h-276l-681 1011v-1011h-247z" />
    <glyph glyph-name="Xi" unicode="&#x39e;" horiz-adv-x="1246" 
d="M37 0v259h1172v-259h-1172zM191 657v222h864v-222h-864zM93 1234v246h1061v-246h-1061z" />
    <glyph glyph-name="Omicron" unicode="&#x39f;" horiz-adv-x="1686" 
d="M834 -37q-337 0 -539 212t-202 565q0 357 203 567t548 210q343 0 546.5 -210t203.5 -564q0 -362 -203.5 -571t-556.5 -209zM838 167q198 0 313.5 155.5t115.5 421.5q0 258 -116 414t-307 156q-193 0 -308.5 -156t-115.5 -417q0 -259 115 -416.5t303 -157.5z" />
    <glyph glyph-name="Pi" unicode="&#x3a0;" horiz-adv-x="1599" 
d="M185 0v1480h1228v-1480h-308v1277h-612v-1277h-308z" />
    <glyph glyph-name="Rho" unicode="&#x3a1;" horiz-adv-x="1255" 
d="M185 0v1480h516q270 0 385.5 -90.5t115.5 -302.5q0 -240 -154.5 -373.5t-432.5 -133.5h-128v-580h-302zM487 783h60q158 0 249.5 73.5t91.5 199.5q0 221 -281 221h-120v-494z" />
    <glyph glyph-name="Sigma" unicode="&#x3a3;" horiz-adv-x="1306" 
d="M68 0v244l544 484l-495 549v203h1097v-203h-702l457 -506l-592 -524h868v-247h-1177z" />
    <glyph glyph-name="Tau" unicode="&#x3a4;" horiz-adv-x="1413" 
d="M552 0v1277h-530v203h1369v-203h-530v-1277h-309z" />
    <glyph glyph-name="Upsilon" unicode="&#x3a5;" horiz-adv-x="1368" 
d="M515 0v436q0 339 -147 587t-349 248v209q293 0 460.5 -145.5t245.5 -469.5q91 266 258.5 430.5t367.5 184.5v-185q-212 -49 -369.5 -311t-157.5 -564v-420h-309z" />
    <glyph glyph-name="Phi" unicode="&#x3a6;" horiz-adv-x="1561" 
d="M636 0v202q-258 12 -413 159t-155 379q0 233 155 379.5t413 158.5v202h290v-202q258 -12 413 -158.5t155 -379.5q0 -232 -155 -379t-413 -159v-202h-290zM636 1075q-272 -36 -272 -335t272 -334v669zM926 1075v-669q272 35 272 334t-272 335z" />
    <glyph glyph-name="Chi" unicode="&#x3a7;" horiz-adv-x="1366" 
d="M49 0l474 729l-453 751h359l301 -498l326 498h249l-454 -698l470 -782h-358l-321 529l-344 -529h-249z" />
    <glyph glyph-name="Psi" unicode="&#x3a8;" horiz-adv-x="1584" 
d="M638 0v586q-214 12 -312.5 102.5t-130.5 303.5l-14 91q-18 120 -46.5 157t-102.5 37h-13v203h19q204 0 284 -68.5t118 -277.5l18 -96q27 -149 62.5 -200t117.5 -61v703h309v-703q82 10 117.5 61t62.5 200l18 96q38 209 118 277.5t284 68.5h19v-203h-13q-74 0 -102.5 -37
t-46.5 -157l-14 -91q-32 -213 -131 -303.5t-312 -102.5v-586h-309z" />
    <glyph glyph-name="uni03A9" unicode="&#x3a9;" horiz-adv-x="1715" 
d="M68 0v204h416q-366 273 -366 648q0 295 206 480t534 185t534 -185t206 -480q0 -374 -366 -648h416v-204h-677v204q300 224 300 626q0 225 -110.5 354.5t-302.5 129.5t-302.5 -130t-110.5 -355q0 -401 300 -625v-204h-677z" />
    <glyph glyph-name="Iotadieresis" unicode="&#x3aa;" horiz-adv-x="679" 
d="M185 0v1480h308v-1480h-308zM21 1605v222h222v-222h-222zM440 1605v222h222v-222h-222z" />
    <glyph glyph-name="Upsilondieresis" unicode="&#x3ab;" horiz-adv-x="1368" 
d="M515 0v436q0 339 -147 587t-349 248v209q293 0 460.5 -145.5t245.5 -469.5q91 266 258.5 430.5t367.5 184.5v-185q-212 -49 -369.5 -311t-157.5 -564v-420h-309zM396 1605v222h222v-222h-222zM815 1605v222h222v-222h-222z" />
    <glyph glyph-name="alphatonos" unicode="&#x3ac;" horiz-adv-x="1499" 
d="M1011 669q81 202 93 429h298q-20 -167 -79 -298t-195 -309q183 -331 315 -491h-329q-80 114 -170 270q-254 -295 -463 -295q-168 0 -273 143.5t-105 373.5q0 267 143 449t353 182q187 0 304 -236l73 -149q11 -22 35 -69zM854 438l-40 83q-12 27 -32 70q-41 90 -54 115
l-62 113q-44 79 -88 79q-70 0 -117.5 -113t-47.5 -278q0 -144 39.5 -232.5t103.5 -88.5q104 0 298 252zM614 1283l-37 321h271l-37 -321h-197z" />
    <glyph glyph-name="epsilontonos" unicode="&#x3ad;" horiz-adv-x="1112" 
d="M1016 233v-196q-168 -62 -358 -62q-259 0 -412 156t-153 419q0 273 154.5 423t434.5 150q168 0 322 -42v-193q-172 50 -310 50q-251 0 -291 -275h538v-179h-540q32 -324 321 -324q140 0 294 73zM555 1283l-37 321h271l-37 -321h-197z" />
    <glyph glyph-name="etatonos" unicode="&#x3ae;" horiz-adv-x="1346" 
d="M187 0v769q0 190 -65 329h320q22 -77 41 -208q161 233 374 233q154 0 235 -98.5t81 -284.5v-1135h-296v1083q0 194 -136 194t-258 -188v-694h-296zM569 1283l-37 321h271l-37 -321h-197z" />
    <glyph glyph-name="iotatonos" unicode="&#x3af;" horiz-adv-x="788" 
d="M737 25q-119 -50 -241 -50q-160 0 -246 73q-62 52 -83.5 133t-21.5 261v656h296v-674q0 -140 32.5 -197.5t110.5 -57.5q66 0 153 42v-186zM196 1283l-37 321h271l-37 -321h-197z" />
    <glyph glyph-name="upsilondieresistonos" unicode="&#x3b0;" horiz-adv-x="1245" 
d="M140 1098h296v-528q0 -237 45.5 -323.5t170.5 -86.5q114 0 184.5 96t70.5 251q0 254 -179 591h288q106 -278 106 -541q0 -267 -137.5 -424.5t-369.5 -157.5q-215 0 -341 118q-80 74 -107 172.5t-27 312.5v520zM159 1283v222h222v-222h-222zM819 1283v222h222v-222h-222z
M501 1283l-37 321h272l-37 -321h-198z" />
    <glyph glyph-name="alpha" unicode="&#x3b1;" horiz-adv-x="1500" 
d="M1011 669q81 202 93 429h298q-20 -167 -79 -298t-195 -309q183 -331 315 -491h-329q-80 114 -170 270q-254 -295 -463 -295q-168 0 -273 143.5t-105 373.5q0 267 143 449t353 182q187 0 304 -236l73 -149q11 -22 35 -69zM854 438l-40 83q-12 27 -32 70q-41 90 -54 115
l-62 113q-44 79 -88 79q-70 0 -117.5 -113t-47.5 -278q0 -144 39.5 -232.5t103.5 -88.5q104 0 298 252z" />
    <glyph glyph-name="beta" unicode="&#x3b2;" horiz-adv-x="1317" 
d="M185 -395v1359q0 640 507 640q190 0 303.5 -95.5t113.5 -255.5q0 -237 -280 -385q186 -57 288 -172.5t102 -268.5q0 -193 -142 -322.5t-352 -129.5q-116 0 -244 38v-408h-296zM542 916h25q105 0 176.5 91.5t71.5 226.5q0 185 -151 185q-98 0 -140.5 -87.5t-42.5 -286.5
v-832q111 -53 204 -53q100 0 168.5 75.5t68.5 185.5q0 134 -101.5 225t-251.5 91h-27v179z" />
    <glyph glyph-name="gamma" unicode="&#x3b3;" horiz-adv-x="1256" 
d="M520 128l-15 37q-99 245 -242.5 510.5t-262.5 422.5h352q158 -250 256 -490l54 -133q5 -11 20 -48q130 315 329 635l22 36h224q-94 -124 -242 -414t-230 -510q58 -188 58 -284q0 -132 -72 -285h-251q-61 139 -61 248q0 94 61 275z" />
    <glyph glyph-name="delta" unicode="&#x3b4;" horiz-adv-x="1274" 
d="M465 973q-184 103 -255 178t-71 164q0 137 132 213t369 76q168 0 316 -34v-208q-157 57 -321 57q-200 0 -200 -91q0 -44 96 -102l94 -59l92 -56l89 -55q201 -127 288.5 -256.5t87.5 -302.5q0 -231 -151.5 -376.5t-391.5 -145.5t-393 137t-153 351q0 347 372 510zM638 853
q-237 -136 -237 -380q0 -140 66.5 -226.5t173.5 -86.5q102 0 167 89t65 229q0 126 -52.5 209.5t-182.5 165.5z" />
    <glyph glyph-name="epsilon" unicode="&#x3b5;" horiz-adv-x="1112" 
d="M1016 233v-196q-168 -62 -358 -62q-259 0 -412 156t-153 419q0 273 154.5 423t434.5 150q168 0 322 -42v-193q-172 50 -310 50q-251 0 -291 -275h538v-179h-540q32 -324 321 -324q140 0 294 73z" />
    <glyph glyph-name="zeta" unicode="&#x3b6;" horiz-adv-x="1295" 
d="M406 1153h-45q-201 0 -383 74v257q264 -156 581 -176q304 264 625 296l59 -173q-233 -238 -582 -286q-220 -342 -220 -631q0 -147 78.5 -213.5t252.5 -66.5h100q410 0 410 -306q0 -160 -133.5 -253.5t-361.5 -93.5q-82 0 -185 19v203q97 -25 199 -25q244 0 244 119
q0 59 -51.5 81t-186.5 22h-91q-297 0 -440.5 119.5t-143.5 368.5q0 324 274 665z" />
    <glyph glyph-name="eta" unicode="&#x3b7;" horiz-adv-x="1346" 
d="M187 0v769q0 190 -65 329h320q22 -77 41 -208q161 233 374 233q154 0 235 -98.5t81 -284.5v-1135h-296v1083q0 194 -136 194t-258 -188v-694h-296z" />
    <glyph glyph-name="theta" unicode="&#x3b8;" horiz-adv-x="1294" 
d="M639 -25q-251 0 -392.5 214.5t-141.5 594.5q0 390 142 605t400 215q257 0 399.5 -214.5t142.5 -601.5q0 -391 -143 -602t-407 -211zM407 898h480q0 248 -63 384.5t-177 136.5t-177 -136.5t-63 -384.5zM405 712l-1 -43q0 -239 64.5 -374t178.5 -135t178.5 135t64.5 374
l-1 43h-484z" />
    <glyph glyph-name="iota" unicode="&#x3b9;" horiz-adv-x="788" 
d="M737 25q-119 -50 -241 -50q-160 0 -246 73q-62 52 -83.5 133t-21.5 261v656h296v-674q0 -140 32.5 -197.5t110.5 -57.5q66 0 153 42v-186z" />
    <glyph glyph-name="kappa" unicode="&#x3ba;" horiz-adv-x="1225" 
d="M185 0v1098h296v-525l82 104l101 126q155 193 231.5 244t214.5 51v-206l-25 1q-64 0 -125 -48t-164 -178l-50 -62l414 -605h-319l-360 533v-533h-296z" />
    <glyph glyph-name="lambda" unicode="&#x3bb;" horiz-adv-x="1287" 
d="M600 732l-333 -732h-240l455 998l-70 157q-55 124 -106.5 157t-191.5 33h-21v234h30q269 0 370.5 -68t213.5 -323l312 -705q126 -287 245 -483h-321l-24 45q-93 174 -182 377z" />
    <glyph glyph-name="uni03BC" unicode="&#x3bc;" horiz-adv-x="1419" 
d="M185 -395v1493h296v-678q0 -204 137 -204q134 0 258 191v691h296v-770q0 -191 61 -328h-320q-22 79 -37 207q-124 -226 -279 -226q-68 0 -116 31v-407h-296z" />
    <glyph glyph-name="nu" unicode="&#x3bd;" horiz-adv-x="1207" 
d="M447 0q-66 223 -203 563.5t-240 534.5h332q35 -69 92 -212l77 -196q78 -198 139 -395l13 -41q90 153 167 370t77 317q0 79 -30 157h258q15 -52 15 -109q0 -173 -161 -514q-160 -340 -238 -475h-298z" />
    <glyph glyph-name="xi" unicode="&#x3be;" horiz-adv-x="1197" 
d="M445 824q-122 38 -194 123.5t-72 192.5q0 92 70 193q-161 22 -305 78v215q197 -102 459 -141q214 119 426 119q80 0 168 -14l43 -120q-218 -160 -532 -160q-45 -67 -45 -145q0 -109 96 -187q63 -51 125 -67.5t190 -16.5h129v-185h-121q-480 0 -480 -284q0 -191 277 -191
h89q410 0 410 -306q0 -160 -134 -253.5t-361 -93.5q-83 0 -185 19v203q96 -25 199 -25q244 0 244 119q0 59 -51.5 81t-187.5 22h-80q-254 0 -391 102.5t-137 291.5q0 283 351 430z" />
    <glyph glyph-name="omicron" unicode="&#x3bf;" horiz-adv-x="1309" 
d="M646 -25q-257 0 -408.5 155.5t-151.5 418.5q0 266 152.5 420t414.5 154q263 0 415.5 -154t152.5 -418q0 -270 -153 -423t-422 -153zM651 160q120 0 187.5 103.5t67.5 287.5q0 179 -67.5 283t-185.5 104q-117 0 -184.5 -104t-67.5 -285q0 -179 67 -284t183 -105z" />
    <glyph glyph-name="pi" unicode="&#x3c0;" horiz-adv-x="1622" 
d="M352 0v888h-42q-124 0 -236 -65v230q110 45 259 45h1215v-210h-221v-593q0 -168 76 -295h-307q-66 144 -66 303v585h-382v-888h-296z" />
    <glyph glyph-name="rho" unicode="&#x3c1;" horiz-adv-x="1293" 
d="M157 -395v714q0 434 132 611q143 193 408 193q230 0 360.5 -133t130.5 -367q0 -268 -161.5 -445.5t-406.5 -177.5q-85 0 -167 27v-422h-296zM453 238q77 -53 157 -53q123 0 202.5 118t79.5 299q0 156 -60.5 246t-166.5 90q-119 0 -165.5 -110t-46.5 -391v-199z" />
    <glyph glyph-name="sigma1" unicode="&#x3c2;" horiz-adv-x="1207" 
d="M509 -197q96 -25 199 -25q243 0 243 119q0 59 -51 81t-187 22h-74q-265 0 -405.5 119.5t-140.5 345.5q0 282 209 470t523 188q133 0 252 -24v-200q-128 39 -250 39q-200 0 -314 -117.5t-114 -324.5q0 -138 74 -200t241 -62h65q410 0 410 -306q0 -160 -134 -253.5
t-361 -93.5q-82 0 -185 19v203z" />
    <glyph glyph-name="sigma" unicode="&#x3c3;" horiz-adv-x="1436" 
d="M848 1098h576v-210h-285q89 -165 89 -333q0 -271 -151.5 -425.5t-416.5 -154.5q-263 0 -415 154t-152 420q0 264 151.5 419t409.5 155q84 0 194 -25zM658 160q120 0 187.5 103.5t67.5 287.5q0 179 -67.5 283t-185.5 104q-117 0 -184.5 -104t-67.5 -285q0 -179 67 -284
t183 -105zM1308 0z" />
    <glyph glyph-name="tau" unicode="&#x3c4;" horiz-adv-x="1135" 
d="M481 0q-42 93 -55 176.5t-13 250.5v461h-132q-137 0 -250 -49v220q105 39 264 39h809v-210h-395v-571q0 -196 79 -317h-307z" />
    <glyph glyph-name="upsilon" unicode="&#x3c5;" horiz-adv-x="1245" 
d="M140 1098h296v-528q0 -237 45.5 -323.5t170.5 -86.5q114 0 184.5 96t70.5 251q0 254 -179 591h288q106 -278 106 -541q0 -267 -137.5 -424.5t-369.5 -157.5q-215 0 -341 118q-80 74 -107 172.5t-27 312.5v520z" />
    <glyph glyph-name="phi" unicode="&#x3c6;" horiz-adv-x="1629" 
d="M679 -395v417q-261 0 -423.5 146.5t-162.5 380.5q0 232 163 378t423 146v506h271v-506q261 0 423.5 -146t162.5 -379q0 -234 -162.5 -380t-423.5 -146v-417h-271zM679 887q-302 -49 -302 -339q0 -291 302 -340v679zM950 887v-679q303 49 303 340q0 290 -303 339z" />
    <glyph glyph-name="chi" unicode="&#x3c7;" horiz-adv-x="1206" 
d="M449 368l-165 297l-50 91q-112 198 -213 342h329q87 -126 230 -383l42 -76l289 459h244l-417 -664l232 -414l72 -117l81 -131q30 -49 75 -116l33 -51h-334q-115 168 -217 350l-114 204l-345 -554h-250z" />
    <glyph glyph-name="psi" unicode="&#x3c8;" horiz-adv-x="1669" 
d="M689 -395v395q-319 21 -448 166t-129 483v135q0 208 -63 314h292q55 -102 55 -305v-119q0 -251 61 -352.5t232 -136.5v1098h283v-1098q172 26 247.5 135.5t75.5 332.5q0 228 -81 445h288q77 -212 77 -443q0 -302 -156.5 -471t-450.5 -184v-395h-283z" />
    <glyph glyph-name="omega" unicode="&#x3c9;" horiz-adv-x="1887" 
d="M944 275q-136 -300 -382 -300q-206 0 -337.5 157t-131.5 403q0 299 153 563h305q-178 -289 -178 -564q0 -153 61.5 -250t158.5 -97q159 0 231 266q-58 138 -58 254q0 140 59 289h238q59 -149 59 -289q0 -115 -57 -254q72 -266 230 -266q97 0 158.5 97t61.5 250
q0 274 -178 564h305q153 -265 153 -563q0 -246 -131.5 -403t-338.5 -157q-246 0 -381 300z" />
    <glyph glyph-name="iotadieresis" unicode="&#x3ca;" horiz-adv-x="788" 
d="M737 25q-119 -50 -241 -50q-160 0 -246 73q-62 52 -83.5 133t-21.5 261v656h296v-674q0 -140 32.5 -197.5t110.5 -57.5q66 0 153 42v-186zM-26 1283v222h222v-222h-222zM393 1283v222h222v-222h-222z" />
    <glyph glyph-name="upsilondieresis" unicode="&#x3cb;" horiz-adv-x="1245" 
d="M140 1098h296v-528q0 -237 45.5 -323.5t170.5 -86.5q114 0 184.5 96t70.5 251q0 254 -179 591h288q106 -278 106 -541q0 -267 -137.5 -424.5t-369.5 -157.5q-215 0 -341 118q-80 74 -107 172.5t-27 312.5v520zM273 1283v222h222v-222h-222zM692 1283v222h222v-222h-222z
" />
    <glyph glyph-name="omicrontonos" unicode="&#x3cc;" horiz-adv-x="1308" 
d="M646 -25q-257 0 -408.5 155.5t-151.5 418.5q0 266 152.5 420t414.5 154q263 0 415.5 -154t152.5 -418q0 -270 -153 -423t-422 -153zM651 160q120 0 187.5 103.5t67.5 287.5q0 179 -67.5 283t-185.5 104q-117 0 -184.5 -104t-67.5 -285q0 -179 67 -284t183 -105zM555 1283
l-37 321h271l-37 -321h-197z" />
    <glyph glyph-name="upsilontonos" unicode="&#x3cd;" horiz-adv-x="1245" 
d="M140 1098h296v-528q0 -237 45.5 -323.5t170.5 -86.5q114 0 184.5 96t70.5 251q0 254 -179 591h288q106 -278 106 -541q0 -267 -137.5 -424.5t-369.5 -157.5q-215 0 -341 118q-80 74 -107 172.5t-27 312.5v520zM521 1283l-37 321h271l-37 -321h-197z" />
    <glyph glyph-name="omegatonos" unicode="&#x3ce;" horiz-adv-x="1887" 
d="M944 275q-136 -300 -382 -300q-206 0 -337.5 157t-131.5 403q0 299 153 563h305q-178 -289 -178 -564q0 -153 61.5 -250t158.5 -97q159 0 231 266q-58 138 -58 254q0 140 59 289h238q59 -149 59 -289q0 -115 -57 -254q72 -266 230 -266q97 0 158.5 97t61.5 250
q0 274 -178 564h305q153 -265 153 -563q0 -246 -131.5 -403t-338.5 -157q-246 0 -381 300zM840 1283l-37 321h271l-37 -321h-197z" />
    <glyph glyph-name="uni0401" unicode="&#x401;" horiz-adv-x="1230" 
d="M185 0v1480h925v-203h-617v-413h506v-204h-506v-450h664v-210h-972zM345 1605v222h222v-222h-222zM764 1605v222h222v-222h-222z" />
    <glyph glyph-name="uni0402" unicode="&#x402;" horiz-adv-x="1681" 
d="M783 837q166 136 355 136q207 0 338 -131.5t131 -339.5q0 -222 -137.5 -368t-347.5 -146q-50 0 -125 12v186q38 -8 65 -8q105 0 168 79.5t63 212.5q0 123 -60 195.5t-162 72.5q-146 0 -288 -139v-599h-302v1277h-469v203h1246v-203h-475v-440z" />
    <glyph glyph-name="uni0403" unicode="&#x403;" horiz-adv-x="1083" 
d="M185 0v1480h880v-203h-572v-1277h-308zM494 1605l241 321h271l-321 -321h-191z" />
    <glyph glyph-name="uni0404" unicode="&#x404;" horiz-adv-x="1242" 
d="M1162 20q-175 -57 -358 -57q-339 0 -525 204.5t-186 577.5q0 358 189.5 565.5t517.5 207.5q171 0 343 -58v-198q-175 64 -296 64q-172 0 -289 -123.5t-138 -329.5h496v-198h-496q0 -218 127.5 -360t324.5 -142q140 0 290 72v-225z" />
    <glyph glyph-name="uni0405" unicode="&#x405;" horiz-adv-x="1169" 
d="M102 13v254q239 -100 409 -100q119 0 187.5 53t68.5 144q0 72 -43 121.5t-163 117.5l-99 55q-199 112 -281 214.5t-82 239.5q0 183 134.5 294t355.5 111q177 0 399 -51v-237q-227 85 -359 85q-102 0 -163.5 -45.5t-61.5 -119.5q0 -61 43 -107t162 -113l106 -59
q214 -120 295 -221t81 -246q0 -206 -153 -323t-422 -117q-178 0 -414 50z" />
    <glyph glyph-name="uni0406" unicode="&#x406;" horiz-adv-x="680" 
d="M185 0v1480h308v-1480h-308z" />
    <glyph glyph-name="uni0407" unicode="&#x407;" horiz-adv-x="679" 
d="M185 0v1480h308v-1480h-308zM19 1605v222h222v-222h-222zM438 1605v222h222v-222h-222z" />
    <glyph glyph-name="uni0408" unicode="&#x408;" horiz-adv-x="856" 
d="M-68 -260l-2 220q120 -47 247 -47q106 0 146 59t40 212v1296h309v-1263q0 -273 -111 -393t-363 -120q-126 0 -266 36z" />
    <glyph glyph-name="uni0409" unicode="&#x409;" horiz-adv-x="2070" 
d="M19 0v218q153 11 219.5 114t66.5 330l10 263l3 273v282h969v-618h94q200 0 281 -14t157 -62q169 -106 169 -334q0 -248 -193 -369q-79 -50 -173.5 -66.5t-295.5 -16.5h-341v1277h-371v-117q0 -672 -67 -854q-59 -159 -172 -224.5t-356 -81.5zM1287 190h70q155 0 242 66.5
t87 184.5q0 230 -316 230h-83v-481z" />
    <glyph glyph-name="uni040A" unicode="&#x40a;" horiz-adv-x="2132" 
d="M1039 675h-546v-675h-308v1480h308v-613h546v613h308v-618h94q201 0 281.5 -14t156.5 -62q169 -106 169 -333q0 -249 -193 -370q-79 -50 -173.5 -66.5t-294.5 -16.5h-348v675zM1347 190h70q329 0 329 251q0 230 -316 230h-83v-481z" />
    <glyph glyph-name="uni040B" unicode="&#x40b;" horiz-adv-x="1653" 
d="M1117 1480v-203h-395v-442q144 140 363 140q226 0 335.5 -119.5t109.5 -365.5v-490h-308v485q0 141 -48.5 203.5t-158.5 62.5q-158 0 -293 -154v-597h-308v1277h-395v203h1098z" />
    <glyph glyph-name="uni040C" unicode="&#x40c;" horiz-adv-x="1312" 
d="M482 668v-668h-297v1480h297v-621q59 8 94 43.5t98 151.5q31 59 40 74l41 72l54 97q109 183 336 183h35v-191l-14 1q-57 0 -97.5 -40t-109.5 -163l-25 -46q-71 -126 -114.5 -175t-123.5 -93q120 -20 190.5 -90.5t156.5 -258.5l40 -87q110 -239 174 -337h-332
q-10 23 -16 34l-59 122l-77 160q-128 264 -220 352h-71zM555 1605l241 321h271l-321 -321h-191z" />
    <glyph glyph-name="uni040E" unicode="&#x40e;" horiz-adv-x="1414" 
d="M585 459l-554 1021h337l387 -710l376 710h283l-566 -1038q-167 -307 -280 -381q-92 -61 -379 -61h-45v210h38q164 0 234 38t144 168zM396 1926h148q42 -142 206 -142t205 142h148q-17 -147 -112.5 -234t-240.5 -87t-241 86.5t-113 234.5z" />
    <glyph glyph-name="uni040F" unicode="&#x40f;" horiz-adv-x="1599" 
d="M185 0v1480h308v-1276h612v1276h308v-1480h-466v-296h-296v296h-466z" />
    <glyph glyph-name="uni0410" unicode="&#x410;" horiz-adv-x="1507" 
d="M23 0l576 1480h308l576 -1480h-316l-154 395h-612l-154 -395h-224zM477 592h460l-230 590z" />
    <glyph glyph-name="uni0411" unicode="&#x411;" horiz-adv-x="1278" 
d="M185 0v1480h879v-203h-577v-415h100q201 0 281.5 -14t156.5 -62q169 -106 169 -333q0 -249 -193 -370q-79 -50 -173.5 -66.5t-295.5 -16.5h-347zM487 190h76q155 0 242 66.5t87 184.5q0 230 -316 230h-89v-481z" />
    <glyph glyph-name="uni0412" unicode="&#x412;" horiz-adv-x="1290" 
d="M185 0v1480h503q223 0 339.5 -84t116.5 -245q0 -267 -355 -378q415 -101 415 -407q0 -177 -121.5 -271.5t-348.5 -94.5h-549zM481 864h67q130 0 206.5 64t76.5 174q0 102 -61.5 138.5t-232.5 36.5h-56v-413zM481 210h60q194 0 267.5 41.5t73.5 151.5q0 113 -98.5 188
t-248.5 75h-54v-456z" />
    <glyph glyph-name="uni0413" unicode="&#x413;" horiz-adv-x="1083" 
d="M185 0v1480h880v-203h-572v-1277h-308z" />
    <glyph glyph-name="uni0414" unicode="&#x414;" horiz-adv-x="1661" 
d="M62 -296v509h117q296 406 296 1094v173h933v-1267h204v-509h-299v296h-952v-296h-299zM1112 213v1076h-348v-24q0 -317 -72.5 -604t-192.5 -448h613z" />
    <glyph glyph-name="uni0415" unicode="&#x415;" horiz-adv-x="1231" 
d="M185 0v1480h925v-203h-617v-413h506v-204h-506v-450h664v-210h-972z" />
    <glyph glyph-name="uni0416" unicode="&#x416;" horiz-adv-x="1858" 
d="M1074 668v-668h-289v668h-69q-60 -48 -111.5 -141.5t-173.5 -377.5l-51 -118q-2 -4 -14 -31h-326q67 114 161 332l40 92q84 194 146.5 258.5t191.5 92.5q-74 37 -115.5 86t-107.5 177l-29 57q-60 117 -102 155.5t-108 38.5v191q167 0 252.5 -58.5t173.5 -232.5l26 -52
l39 -79q63 -126 92 -159t85 -46v627h289v-627q57 17 88.5 53t87.5 152q14 27 40 79l26 52q89 175 174 233t252 58v-191q-67 0 -108 -38t-102 -156l-29 -57q-67 -130 -107.5 -178t-116.5 -85q130 -28 193 -93t146 -258l40 -92q92 -215 161 -332h-326l-14 31l-51 118
q-126 293 -175 382t-110 137h-69z" />
    <glyph glyph-name="uni0417" unicode="&#x417;" horiz-adv-x="1170" 
d="M65 17v221q236 -81 375 -81q144 0 227 67t83 184q0 149 -106.5 219.5t-332.5 70.5h-33v191h32q402 0 402 241q0 196 -284 196q-146 0 -339 -69v200q199 61 406 61q539 0 539 -353q0 -241 -282 -352q325 -95 325 -403q0 -206 -162.5 -326.5t-442.5 -120.5q-194 0 -407 54z
" />
    <glyph glyph-name="uni0418" unicode="&#x418;" horiz-adv-x="1610" 
d="M185 0v1480h296v-1083l671 1083h273v-1480h-296v1084l-671 -1084h-273z" />
    <glyph glyph-name="uni0419" unicode="&#x419;" horiz-adv-x="1610" 
d="M185 0v1480h296v-1083l671 1083h273v-1480h-296v1084l-671 -1084h-273zM435 1926h148q42 -142 206 -142t205 142h148q-17 -147 -112.5 -234t-240.5 -87t-241 86.5t-113 234.5z" />
    <glyph glyph-name="uni041A" unicode="&#x41a;" horiz-adv-x="1312" 
d="M482 668v-668h-297v1480h297v-621q59 8 94 43.5t98 151.5q31 59 40 74l41 72l54 97q109 183 336 183h35v-191l-14 1q-57 0 -97.5 -40t-109.5 -163l-25 -46q-71 -126 -114.5 -175t-123.5 -93q120 -20 190.5 -90.5t156.5 -258.5l40 -87q110 -239 174 -337h-332
q-10 23 -16 34l-59 122l-77 160q-128 264 -220 352h-71z" />
    <glyph glyph-name="uni041B" unicode="&#x41b;" horiz-adv-x="1491" 
d="M19 0v218q152 11 212 105.5t71 339.5l12 262q4 79 4 273v282h988v-1480h-308v1277h-378v-117q0 -672 -67 -854q-59 -159 -174 -225.5t-360 -80.5z" />
    <glyph glyph-name="uni041C" unicode="&#x41c;" horiz-adv-x="1860" 
d="M185 0v1480h408l356 -1041l367 1041h358v-1480h-284v1117l-361 -1018h-248l-354 1033v-1132h-242z" />
    <glyph glyph-name="uni041D" unicode="&#x41d;" horiz-adv-x="1597" 
d="M185 0v1480h308v-601h612v601h308v-1480h-308v675h-612v-675h-308z" />
    <glyph glyph-name="uni041E" unicode="&#x41e;" horiz-adv-x="1686" 
d="M834 -37q-337 0 -539 212t-202 565q0 357 203 567t548 210q343 0 546.5 -210t203.5 -564q0 -362 -203.5 -571t-556.5 -209zM838 167q198 0 313.5 155.5t115.5 421.5q0 258 -116 414t-307 156q-193 0 -308.5 -156t-115.5 -417q0 -259 115 -416.5t303 -157.5z" />
    <glyph glyph-name="uni041F" unicode="&#x41f;" horiz-adv-x="1598" 
d="M185 0v1480h1228v-1480h-309v1277h-611v-1277h-308z" />
    <glyph glyph-name="uni0420" unicode="&#x420;" horiz-adv-x="1255" 
d="M185 0v1480h516q270 0 385.5 -90.5t115.5 -302.5q0 -240 -154.5 -373.5t-432.5 -133.5h-128v-580h-302zM487 783h60q158 0 249.5 73.5t91.5 199.5q0 221 -281 221h-120v-494z" />
    <glyph glyph-name="uni0421" unicode="&#x421;" horiz-adv-x="1458" 
d="M1376 59q-215 -96 -513 -96q-364 0 -567 205t-203 572q0 374 204.5 575.5t583.5 201.5q242 0 481 -57v-241q-271 95 -454 95q-234 0 -361 -148.5t-127 -421.5q0 -268 136.5 -418t379.5 -150q218 0 440 110v-227z" />
    <glyph glyph-name="uni0422" unicode="&#x422;" horiz-adv-x="1413" 
d="M552 0v1277h-530v203h1369v-203h-530v-1277h-309z" />
    <glyph glyph-name="uni0423" unicode="&#x423;" horiz-adv-x="1414" 
d="M585 459l-554 1021h337l387 -710l376 710h283l-566 -1038q-167 -307 -280 -381q-92 -61 -379 -61h-45v210h38q164 0 234 38t144 168z" />
    <glyph glyph-name="uni0424" unicode="&#x424;" horiz-adv-x="1576" 
d="M643 0v210q-251 0 -413 149t-162 381t162 381.5t413 149.5v209h290v-209q251 0 413 -149.5t162 -381.5t-162 -381t-413 -149v-210h-290zM643 401v679q-123 0 -201 -95t-78 -245t77.5 -244.5t201.5 -94.5zM933 401q124 0 201.5 94.5t77.5 244.5t-78 245t-201 95v-679z" />
    <glyph glyph-name="uni0425" unicode="&#x425;" horiz-adv-x="1366" 
d="M49 0l474 729l-453 751h359l301 -498l326 498h249l-454 -698l470 -782h-358l-321 529l-344 -529h-249z" />
    <glyph glyph-name="uni0426" unicode="&#x426;" horiz-adv-x="1660" 
d="M185 0v1480h308v-1264h612v1264h308v-1264h197v-512h-296v296h-1129z" />
    <glyph glyph-name="uni0427" unicode="&#x427;" horiz-adv-x="1413" 
d="M920 0v596q-167 -90 -354 -90q-233 0 -344 118t-111 366v490h309v-484q0 -146 48.5 -206t166.5 -60q156 0 285 90v660h308v-1480h-308z" />
    <glyph glyph-name="uni0428" unicode="&#x428;" horiz-adv-x="2009" 
d="M185 0v1480h296v-1264h375v1264h297v-1264h375v1264h296v-1480h-1639z" />
    <glyph glyph-name="uni0429" unicode="&#x429;" horiz-adv-x="2071" 
d="M185 0v1480h296v-1264h375v1264h297v-1264h375v1264h296v-1262h198v-514h-290v296h-1547zM2009 0z" />
    <glyph glyph-name="uni042A" unicode="&#x42a;" horiz-adv-x="1489" 
d="M391 0v1277h-372v203h681v-618h99q201 0 281.5 -14t156.5 -62q169 -106 169 -333q0 -249 -193 -370q-78 -50 -173 -66.5t-295 -16.5h-354zM700 190h76q328 0 328 251q0 230 -315 230h-89v-481z" />
    <glyph glyph-name="uni042B" unicode="&#x42b;" horiz-adv-x="1832" 
d="M185 0v1480h308v-618h100q201 0 281.5 -14t156.5 -62q169 -106 169 -333q0 -249 -193 -370q-78 -50 -173 -66.5t-295 -16.5h-354zM1338 0v1480h309v-1480h-309zM493 190h76q156 0 242.5 66.5t86.5 184.5q0 230 -316 230h-89v-481z" />
    <glyph glyph-name="uni042C" unicode="&#x42c;" horiz-adv-x="1284" 
d="M185 0v1480h308v-618h100q201 0 281.5 -14t156.5 -62q169 -106 169 -333q0 -249 -193 -370q-78 -50 -173 -66.5t-295 -16.5h-354zM493 190h76q156 0 242.5 66.5t86.5 184.5q0 230 -316 230h-89v-481z" />
    <glyph glyph-name="uni042D" unicode="&#x42d;" horiz-adv-x="1242" 
d="M80 20v225q149 -72 289 -72q197 0 325 142t128 360h-496v198h496q-22 206 -138.5 329.5t-289.5 123.5q-120 0 -296 -64v198q174 58 354 58q334 0 515.5 -193.5t181.5 -551.5q0 -381 -191 -595.5t-530 -214.5q-173 0 -348 57z" />
    <glyph glyph-name="uni042E" unicode="&#x42e;" horiz-adv-x="2113" 
d="M185 0v1480h308v-644h205q74 681 659 681q316 0 489.5 -203.5t173.5 -573.5t-173.5 -573.5t-489.5 -203.5q-296 0 -463.5 173.5t-194.5 508.5h-206v-645h-308zM1352 148q168 0 261 157t93 439q0 274 -93 431t-256 157t-256 -157.5t-93 -434.5q0 -274 92.5 -433
t251.5 -159z" />
    <glyph glyph-name="uni042F" unicode="&#x42f;" horiz-adv-x="1360" 
d="M873 609h-95q-111 -124 -335 -548l-33 -61h-391q80 94 165 225l43 67l27 41l66 105q102 156 225 228q-176 39 -270.5 142.5t-94.5 256.5q0 199 146 322q71 59 156.5 76t306.5 17h387v-1480h-303v609zM873 1289h-75q-311 0 -311 -240q0 -248 331 -248h55v488z" />
    <glyph glyph-name="uni0430" unicode="&#x430;" horiz-adv-x="1204" 
d="M723 118q-148 -143 -317 -143q-144 0 -234 88t-90 228q0 182 145.5 280.5t416.5 98.5h79v100q0 171 -195 171q-173 0 -350 -98v204q201 76 398 76q431 0 431 -343v-486q0 -129 79 -129q18 0 50 11v-173q-94 -28 -166 -28q-182 0 -234 143h-13zM723 277v223h-70
q-134 0 -210.5 -48t-76.5 -132q0 -61 41.5 -102.5t102.5 -41.5q104 0 213 101z" />
    <glyph glyph-name="uni0431" unicode="&#x431;" horiz-adv-x="1298" 
d="M402 875q138 211 376 211q200 0 315.5 -144t115.5 -391q0 -272 -147 -424t-409 -152q-284 0 -416 173.5t-132 545.5q0 455 153.5 670t478.5 215h41q148 0 265 53v-190q-91 -48 -241 -48h-24q-190 0 -276 -119t-100 -400zM402 691l-1 -34q0 -232 69.5 -364.5t190.5 -132.5
q113 0 176.5 102.5t63.5 282.5q0 325 -214 325q-151 0 -285 -179z" />
    <glyph glyph-name="uni0432" unicode="&#x432;" horiz-adv-x="1217" 
d="M185 0v1098h434q443 0 443 -250q0 -201 -239 -274q283 -70 283 -293q0 -150 -105 -215.5t-343 -65.5h-473zM462 179h75q168 0 222 25.5t54 105.5q0 174 -264 174h-87v-305zM462 651h87q225 0 225 150q0 118 -220 118h-92v-268z" />
    <glyph glyph-name="uni0433" unicode="&#x433;" horiz-adv-x="1049" 
d="M185 0v1098h839v-210h-542v-888h-297z" />
    <glyph glyph-name="uni0434" unicode="&#x434;" horiz-adv-x="1456" 
d="M49 -247v445h101q213 270 213 778v122h827v-900h197v-445h-283v247h-772v-247h-283zM906 198v715h-265v-23q0 -412 -174 -692h439z" />
    <glyph glyph-name="uni0435" unicode="&#x435;" horiz-adv-x="1200" 
d="M1079 37q-211 -62 -400 -62q-275 0 -434 156t-159 426q0 255 145.5 410.5t384.5 155.5q241 0 352 -152t111 -481h-681q30 -314 345 -314q149 0 336 69v-208zM394 657h394q0 281 -181 281q-184 0 -213 -281z" />
    <glyph glyph-name="uni0436" unicode="&#x436;" horiz-adv-x="1598" 
d="M663 0v469h-67q-77 -93 -200 -345l-62 -124h-306q46 71 88 157q34 69 43 86l44 85q60 114 104.5 157t134.5 74q-116 45 -174 180l-17 41l-19 46q-34 81 -112 87v185q155 0 216 -40t109 -175l20 -57q41 -113 77 -145.5t121 -32.5v450h272v-450q84 0 120.5 32.5t76.5 145.5
l21 57q48 135 109 175t216 40v-185q-78 -6 -112 -87l-19 -46l-17 -41q-58 -135 -174 -180q90 -31 134.5 -74t104.5 -157l44 -85q9 -17 43 -86q41 -86 88 -157h-306q-14 26 -62 124q-123 252 -200 345h-67v-469h-272z" />
    <glyph glyph-name="uni0437" unicode="&#x437;" horiz-adv-x="1038" 
d="M80 23v203q184 -63 325 -63q234 0 234 160q0 172 -312 172h-33v170h37q278 0 278 143q0 135 -221 135q-123 0 -289 -53v184q169 49 358 49q441 0 441 -272q0 -166 -205 -263q240 -74 240 -270q0 -156 -134 -249.5t-360 -93.5q-159 0 -359 48z" />
    <glyph glyph-name="uni0438" unicode="&#x438;" horiz-adv-x="1382" 
d="M185 0v1098h278v-755l438 755h296v-1098h-278v755l-438 -755h-296z" />
    <glyph glyph-name="uni0439" unicode="&#x439;" horiz-adv-x="1382" 
d="M185 0v1098h278v-755l438 755h296v-1098h-278v755l-438 -755h-296zM337 1604h148q42 -142 206 -142t205 142h148q-17 -147 -112.5 -234t-240.5 -87t-241 86.5t-113 234.5z" />
    <glyph glyph-name="uni043A" unicode="&#x43a;" horiz-adv-x="1185" 
d="M463 456v-456h-278v1098h278v-456q121 0 184 125l29 58l26 52q68 134 129.5 177.5t184.5 43.5h41v-185q-60 0 -85 -21t-65 -105l-19 -39l-26 -56q-47 -96 -161 -136q93 -32 142 -80t110 -168l38 -73l41 -82q46 -90 89 -153h-312l-16 32q-37 73 -47 94l-50 98
q-89 172 -149 232h-84z" />
    <glyph glyph-name="uni043B" unicode="&#x43b;" horiz-adv-x="1274" 
d="M31 0v198q137 0 181 163q48 172 48 573v164h829v-1098h-290v913h-259v-18q0 -527 -104.5 -711t-404.5 -184z" />
    <glyph glyph-name="uni043C" unicode="&#x43c;" horiz-adv-x="1536" 
d="M185 0v1098h285l302 -759h2l277 759h300v-1098h-272v757h-1l-255 -683h-190l-237 614h-1v-688h-210z" />
    <glyph glyph-name="uni043D" unicode="&#x43d;" horiz-adv-x="1357" 
d="M185 0v1098h296v-424h395v424h296v-1098h-296v489h-395v-489h-296z" />
    <glyph glyph-name="uni043E" unicode="&#x43e;" horiz-adv-x="1309" 
d="M646 -25q-257 0 -408.5 155.5t-151.5 418.5q0 266 152.5 420t414.5 154q263 0 415.5 -154t152.5 -418q0 -270 -153 -423t-422 -153zM651 160q120 0 187.5 103.5t67.5 287.5q0 179 -67.5 283t-185.5 104q-117 0 -184.5 -104t-67.5 -285q0 -179 67 -284t183 -105z" />
    <glyph glyph-name="uni043F" unicode="&#x43f;" horiz-adv-x="1357" 
d="M185 0v1098h987v-1098h-296v888h-395v-888h-296z" />
    <glyph glyph-name="uni0440" unicode="&#x440;" horiz-adv-x="1358" 
d="M185 -395v1493h296v-207q114 232 359 232q198 0 311.5 -145t113.5 -399q0 -276 -128 -440t-343 -164q-173 0 -313 136v-506h-296zM481 287q108 -120 230 -120q109 0 174 105.5t65 281.5q0 337 -217 337q-131 0 -252 -169v-435z" />
    <glyph glyph-name="uni0441" unicode="&#x441;" horiz-adv-x="1090" 
d="M995 24q-184 -49 -341 -49q-263 0 -415.5 154.5t-152.5 420.5q0 269 157 421t434 152q134 0 309 -43v-214q-182 59 -291 59q-133 0 -214 -102t-81 -271q0 -173 87.5 -277t233.5 -104q133 0 274 58v-205z" />
    <glyph glyph-name="uni0442" unicode="&#x442;" horiz-adv-x="1012" 
d="M357 0v901h-345v197h987v-197h-345v-901h-297z" />
    <glyph glyph-name="uni0443" unicode="&#x443;" horiz-adv-x="1192" 
d="M467 49l-436 1049h291l298 -712l313 712h243l-472 -1079q-126 -289 -211 -351.5t-351 -62.5h-32v198h28q116 0 175.5 27t93.5 95l40 83z" />
    <glyph glyph-name="uni0444" unicode="&#x444;" horiz-adv-x="1777" 
d="M747 -395v469q-93 -99 -231 -99q-181 0 -296 158.5t-115 409.5q0 255 117 417.5t300 162.5q152 0 225 -99v456h283v-456q73 99 225 99q183 0 300 -162.5t117 -417.5q0 -251 -115 -409.5t-297 -158.5q-137 0 -230 99v-469h-283zM747 871q-71 48 -134 48q-97 0 -160.5 -107
t-63.5 -272q0 -164 60 -262.5t161 -98.5q58 0 137 52v640zM1030 871v-640q79 -52 137 -52q101 0 161 98.5t60 262.5q0 165 -63.5 272t-160.5 107q-63 0 -134 -48z" />
    <glyph glyph-name="uni0445" unicode="&#x445;" horiz-adv-x="1210" 
d="M68 0l377 551l-361 547h337l236 -348l226 348h240l-344 -539l369 -559h-337l-246 363l-252 -363h-245z" />
    <glyph glyph-name="uni0446" unicode="&#x446;" horiz-adv-x="1431" 
d="M185 0v1098h297v-900h394v900h296v-900h185v-445h-283v247h-889z" />
    <glyph glyph-name="uni0447" unicode="&#x447;" horiz-adv-x="1206" 
d="M725 0v413q-132 -49 -257 -49q-212 0 -289 97.5t-77 365.5v271h296v-308q0 -144 32.5 -193t127.5 -49q85 0 167 42v508h296v-1098h-296z" />
    <glyph glyph-name="uni0448" unicode="&#x448;" horiz-adv-x="1875" 
d="M185 0v1098h284v-900h327v900h283v-900h327v900h284v-1098h-1505z" />
    <glyph glyph-name="uni0449" unicode="&#x449;" horiz-adv-x="1949" 
d="M185 0v1098h284v-900h327v900h283v-900h327v900h284v-900h185v-445h-284v247h-1406zM1875 0z" />
    <glyph glyph-name="uni044A" unicode="&#x44a;" horiz-adv-x="1234" 
d="M272 0v913h-253v185h537v-404h107q258 0 373.5 -80.5t115.5 -259.5q0 -185 -125.5 -269.5t-399.5 -84.5h-355zM556 185h72q233 0 233 167q0 87 -51 122t-178 35h-76v-324z" />
    <glyph glyph-name="uni044B" unicode="&#x44b;" horiz-adv-x="1669" 
d="M185 0v1098h284v-404h107q258 0 373.5 -80.5t115.5 -259.5q0 -185 -125 -269.5t-399 -84.5h-356zM469 185h72q234 0 234 167q0 87 -51.5 122t-178.5 35h-76v-324zM1200 0v1098h284v-1098h-284z" />
    <glyph glyph-name="uni044C" unicode="&#x44c;" horiz-adv-x="1148" 
d="M185 0v1098h284v-404h107q258 0 373 -80.5t115 -259.5q0 -185 -125 -269.5t-399 -84.5h-355zM469 185h72q234 0 234 167q0 87 -51.5 122t-178.5 35h-76v-324z" />
    <glyph glyph-name="uni044D" unicode="&#x44d;" horiz-adv-x="1104" 
d="M74 28v208q144 -69 317 -69q141 0 229 80.5t101 221.5h-387v185h387q0 135 -80 209.5t-223 74.5q-148 0 -307 -77v206q165 56 349 56q558 0 558 -549q0 -294 -154 -446.5t-451 -152.5q-178 0 -339 53z" />
    <glyph glyph-name="uni044E" unicode="&#x44e;" horiz-adv-x="1790" 
d="M648 456h-179v-456h-284v1098h284v-456h178q50 481 526 481q254 0 392 -149t138 -425q0 -275 -138 -424.5t-392 -149.5q-234 0 -368.5 123.5t-156.5 357.5zM944 555q0 -394 229 -394q228 0 228 388q0 389 -228 389q-229 0 -229 -383z" />
    <glyph glyph-name="uni044F" unicode="&#x44f;" horiz-adv-x="1163" 
d="M694 426h-109q-60 -67 -119 -182l-56 -110l-50 -97q-6 -12 -18 -37h-311q71 106 127 212l25 49q107 202 202 240q-234 77 -234 289q0 187 167 267q86 41 356 41h304v-1098h-284v426zM694 925h-58q-201 0 -201 -166q0 -167 206 -167h53v333z" />
    <glyph glyph-name="uni0451" unicode="&#x451;" horiz-adv-x="1200" 
d="M1079 37q-211 -62 -400 -62q-275 0 -434 156t-159 426q0 255 145.5 410.5t384.5 155.5q241 0 352 -152t111 -481h-681q30 -314 345 -314q149 0 336 69v-208zM394 657h394q0 281 -181 281q-184 0 -213 -281zM291 1283v222h222v-222h-222zM710 1283v222h222v-222h-222z" />
    <glyph glyph-name="uni0452" unicode="&#x452;" horiz-adv-x="1345" 
d="M185 0v1135h-173v148h173v296h296v-296h368v-148h-368v-429q144 232 375 232q147 0 231.5 -93t84.5 -254v-652q0 -359 -364 -359q-80 0 -166 21v191q62 -27 116 -27q66 0 92 39.5t26 140.5v573q0 187 -124 187q-140 0 -271 -199v-506h-296z" />
    <glyph glyph-name="uni0453" unicode="&#x453;" horiz-adv-x="1049" 
d="M185 0v1098h839v-210h-542v-888h-297zM496 1283l241 321h271l-321 -321h-191z" />
    <glyph glyph-name="uni0454" unicode="&#x454;" horiz-adv-x="1104" 
d="M1030 32q-163 -57 -368 -57q-576 0 -576 585q0 273 151 418t435 145q165 0 334 -46v-202q-164 63 -313 63q-295 0 -308 -278h386v-185h-386q30 -315 343 -315q156 0 302 68v-196z" />
    <glyph glyph-name="uni0455" unicode="&#x455;" horiz-adv-x="1157" 
d="M156 35v217q220 -92 376 -92q182 0 182 124q0 80 -150 140l-100 40q-163 66 -233 142t-70 188q0 156 119 242.5t333 86.5q134 0 319 -39v-208q-178 62 -295 62q-184 0 -184 -114q0 -75 136 -127l86 -33q193 -73 268.5 -148t75.5 -193q0 -155 -128.5 -251.5t-334.5 -96.5
q-198 0 -400 60z" />
    <glyph glyph-name="uni0456" unicode="&#x456;" horiz-adv-x="666" 
d="M185 0v1098h296v-1098h-296zM185 1283v247h296v-247h-296z" />
    <glyph glyph-name="uni0457" unicode="&#x457;" horiz-adv-x="666" 
d="M185 0v1098h296v-1098h-296zM12 1283v222h222v-222h-222zM431 1283v222h222v-222h-222z" />
    <glyph glyph-name="uni0458" unicode="&#x458;" horiz-adv-x="682" 
d="M-179 -373v198q129 -59 221 -59q86 0 122.5 53.5t36.5 180.5v1098h296v-1078q0 -230 -102.5 -335t-327.5 -105q-100 0 -246 47zM201 1283v247h296v-247h-296z" />
    <glyph glyph-name="uni0459" unicode="&#x459;" horiz-adv-x="1767" 
d="M31 0v198q137 0 182 163q47 172 47 573v164h829v-404h107q258 0 373.5 -80.5t115.5 -259.5q0 -185 -125 -269.5t-399 -84.5h-355v913h-272v-18q0 -526 -103.5 -710.5t-399.5 -184.5zM1089 185h72q234 0 234 167q0 87 -51.5 122t-178.5 35h-76v-324z" />
    <glyph glyph-name="uni045A" unicode="&#x45a;" horiz-adv-x="1807" 
d="M185 0v1098h284v-404h376v404h284v-404h107q257 0 372.5 -80.5t115.5 -259.5q0 -185 -125 -269.5t-399 -84.5h-355v509h-376v-509h-284zM1129 185h72q233 0 233 165q0 89 -51 124t-179 35h-75v-324z" />
    <glyph glyph-name="uni045B" unicode="&#x45b;" horiz-adv-x="1345" 
d="M481 706q144 232 375 232q147 0 231.5 -93t84.5 -254v-591h-296v518q0 187 -124 187q-140 0 -271 -199v-506h-296v1135h-173v148h173v284h296v-284h368v-148h-368v-429z" />
    <glyph glyph-name="uni045C" unicode="&#x45c;" horiz-adv-x="1185" 
d="M463 456v-456h-278v1098h278v-456q121 0 184 125l29 58l26 52q68 134 129.5 177.5t184.5 43.5h41v-185q-60 0 -85 -21t-65 -105l-19 -39l-26 -56q-47 -96 -161 -136q93 -32 142 -80t110 -168l38 -73l41 -82q46 -90 89 -153h-312l-16 32q-37 73 -47 94l-50 98
q-89 172 -149 232h-84zM512 1283l241 321h271l-321 -321h-191z" />
    <glyph glyph-name="uni045E" unicode="&#x45e;" horiz-adv-x="1192" 
d="M467 49l-436 1049h291l298 -712l313 712h243l-472 -1079q-126 -289 -211 -351.5t-351 -62.5h-32v198h28q116 0 175.5 27t93.5 95l40 83zM274 1604h148q42 -142 206 -142t205 142h148q-17 -147 -112.5 -234t-240.5 -87t-241 86.5t-113 234.5z" />
    <glyph glyph-name="uni045F" unicode="&#x45f;" horiz-adv-x="1357" 
d="M185 0v1098h297v-900h394v900h296v-1098h-351v-247h-284v247h-352z" />
    <glyph glyph-name="uni048A" unicode="&#x48a;" horiz-adv-x="1308" 
d="M463 1283l241 321h271l-321 -321h-191z" />
    <glyph glyph-name="uni048B" unicode="&#x48b;" horiz-adv-x="1308" 
d="M300 1604h148q42 -142 206 -142t205 142h148q-17 -147 -112.5 -234t-240.5 -87t-241 86.5t-113 234.5z" />
    <glyph glyph-name="uni0490" unicode="&#x490;" horiz-adv-x="1083" 
d="M185 0v1480h583v297h297v-500h-572v-1277h-308z" />
    <glyph glyph-name="uni0491" unicode="&#x491;" horiz-adv-x="1049" 
d="M185 0v1098h543v247h296v-457h-542v-888h-297z" />
    <glyph glyph-name="uni0591" unicode="&#x591;" 
d="M615 -123v-148q185 -32 185 -272v-25h-123v25q0 161 -124 161q-123 0 -123 -161v-25h-123v25q0 240 185 272v148h123z" />
    <glyph glyph-name="uni0592" unicode="&#x592;" 
d="M513 1320v197h198v-197h-198zM834 1320v197h197v-197h-197zM674 1641v197h197v-197h-197z" />
    <glyph glyph-name="uni0593" unicode="&#x593;" 
d="M563 1666v86l419 74v-105l-266 -25v-25l247 -98l-247 -98v-25l266 -25v-105l-419 74v86l233 93z" />
    <glyph glyph-name="uni0594" unicode="&#x594;" 
d="M674 1641v197h197v-197h-197zM674 1320v197h197v-197h-197z" />
    <glyph glyph-name="uni0595" unicode="&#x595;" 
d="M809 1641v197h197v-197h-197zM809 1320v197h197v-197h-197zM538 1838h148v-518h-148v518z" />
    <glyph glyph-name="uni0596" unicode="&#x596;" 
d="M739 -592h-49q-204 0 -274 93q-47 63 -47 316v60h129v-79l1 -64q0 -136 28 -168t147 -32h65v-126z" />
    <glyph glyph-name="uni0597" unicode="&#x597;" 
d="M414 1460l140 139l139 -139l-139 -140z" />
    <glyph glyph-name="uni0598" unicode="&#x598;" 
d="M981 1673q26 -83 26 -151q0 -92 -41.5 -147t-110.5 -55q-76 0 -117 111l-12 33q-10 26 -13 37q-16 50 -38 50q-39 0 -39 -91q0 -61 26 -140h-101q-23 65 -23 150q0 203 143 203q76 0 125 -129l11 -31q27 -71 53 -71q38 0 38 81q0 70 -33 150h106z" />
    <glyph glyph-name="uni0599" unicode="&#x599;" 
d="M56 1789h49q204 0 273 -93q48 -63 48 -316v-60h-130v79l-1 63q0 137 -27.5 168.5t-147.5 31.5h-64v127z" />
    <glyph glyph-name="uni059A" unicode="&#x59a;" 
d="M1598 -456v-136l-543 234l543 235v-136l-300 -99z" />
    <glyph glyph-name="uni059B" unicode="&#x59b;" 
d="M413 -592v120h70q120 0 147.5 32t27.5 168l1 63v86h124v-60q0 -253 -48 -316q-69 -93 -273 -93h-49zM326 -321v198h198v-198h-198z" />
    <glyph glyph-name="uni059C" unicode="&#x59c;" 
d="M1055 1789v-127h-65q-119 0 -146.5 -31.5t-27.5 -168.5l-1 -63v-79h-130v60q0 253 47 316q70 93 274 93h49z" />
    <glyph glyph-name="uni059D" unicode="&#x59d;" 
d="M1604 1789v-127h-65q-119 0 -146.5 -31.5t-27.5 -168.5l-1 -63v-79h-130v60q0 253 47 316q70 93 274 93h49z" />
    <glyph glyph-name="uni059E" unicode="&#x59e;" 
d="M476 1320v60q0 262 52 335.5t238 73.5v-120h-38q-82 0 -104.5 -35.5t-22.5 -164.5l-1 -64v-85h-124zM779 1320v60q0 262 52 335.5t237 73.5v-120h-38q-82 0 -104.5 -35.5t-22.5 -164.5l-1 -64v-85h-123z" />
    <glyph glyph-name="uni059F" unicode="&#x59f;" 
d="M991 1444l-107 -124l-81 72l103 119q-41 55 -41 120q0 85 59.5 145t144.5 60q84 0 144 -59.5t60 -144.5t-60 -144t-147 -59q-32 0 -75 15zM1070 1537q39 0 66.5 28t27.5 67q0 40 -28 67.5t-67 27.5t-67 -27.5t-28 -67.5t28 -67.5t68 -27.5zM546 1444q-42 -15 -74 -15
q-87 0 -147 59t-60 144t59.5 144.5t144.5 59.5q84 0 143.5 -60t59.5 -145q0 -65 -40 -120l103 -119l-81 -72zM467 1537q41 0 69 28t28 67q0 40 -28 67.5t-67 27.5q-40 0 -67.5 -27.5t-27.5 -67.5q0 -39 27.5 -67t65.5 -28z" />
    <glyph glyph-name="uni05A0" unicode="&#x5a0;" 
d="M726 1455l-135 -135l-76 77l135 136q-26 50 -26 98q0 85 59.5 145t143.5 60q85 0 144.5 -59.5t59.5 -144.5q0 -84 -59.5 -143.5t-143.5 -59.5q-48 0 -102 26zM829 1537q38 0 65.5 28t27.5 67q0 40 -27.5 67.5t-67.5 27.5q-39 0 -67 -28t-28 -67q0 -40 28 -67.5t69 -27.5z
" />
    <glyph glyph-name="uni05A1" unicode="&#x5a1;" 
d="M661 1295h-123v469h123v-231h46q109 0 142 27.5t33 116.5l1 39v48h124v-35q0 -185 -64 -250.5t-245 -65.5h-37v-118z" />
    <glyph glyph-name="uni05A3" unicode="&#x5a3;" 
d="M659 -123h136v-445h-482v136h346v309z" />
    <glyph glyph-name="uni05A4" unicode="&#x5a4;" 
d="M825 -456v-136l-543 234l543 235v-136l-300 -99z" />
    <glyph glyph-name="uni05A5" unicode="&#x5a5;" 
d="M369 -592v126h65q119 0 146.5 32t27.5 168l1 64v79h130v-60q0 -253 -47 -316q-70 -93 -274 -93h-49z" />
    <glyph glyph-name="uni05A6" unicode="&#x5a6;" 
d="M850 -123v-60q0 -262 -52 -335.5t-238 -73.5v120l39 -1q81 0 104 36t23 165l1 63v86h123zM548 -123v-60q0 -262 -52 -335.5t-238 -73.5v120l38 -1q82 0 105 36t23 165l1 63v86h123z" />
    <glyph glyph-name="uni05A7" unicode="&#x5a7;" 
d="M378 -567v107q80 -33 151 -33q80 0 80 38q0 26 -71 52l-30 11q-130 48 -130 125q0 144 204 144q84 0 149 -24v-101q-80 26 -140 26q-90 0 -90 -39q0 -22 50 -38q11 -3 37 -13l32 -12q111 -41 111 -117q0 -69 -55 -110t-146 -41q-68 0 -152 25z" />
    <glyph glyph-name="uni05A8" unicode="&#x5a8;" 
d="M687 1789h50q204 0 273 -93q48 -63 48 -316v-60h-130v79l-1 63q0 137 -28 168.5t-147 31.5h-65v127z" />
    <glyph glyph-name="uni05A9" unicode="&#x5a9;" 
d="M902 1430q-54 -26 -102 -26q-84 0 -143.5 59.5t-59.5 144.5q0 84 59.5 143.5t144.5 59.5q84 0 143.5 -59.5t59.5 -144.5q0 -49 -26 -99l135 -136l-76 -77zM799 1513q41 0 69 27.5t28 67.5q0 39 -28 67t-67 28q-40 0 -67.5 -28t-27.5 -67t27.5 -67t65.5 -28z" />
    <glyph glyph-name="uni05AA" unicode="&#x5aa;" 
d="M492 -568v149q-185 30 -185 271v25h123v-25q0 -160 123 -160q124 0 124 160v25h123v-25q0 -241 -185 -271v-149h-123z" />
    <glyph glyph-name="uni05AB" unicode="&#x5ab;" 
d="M1037 1456v-136l-543 235l543 234v-136l-300 -98z" />
    <glyph glyph-name="uni05AC" unicode="&#x5ac;" 
d="M877 1777h136v-482h-481v136h345v346z" />
    <glyph glyph-name="uni05AD" unicode="&#x5ad;" 
d="M1218 -568h-49q-204 0 -274 93q-47 64 -47 317v59h148v-57l1 -63q0 -137 27.5 -168.5t147.5 -31.5h46v-149z" />
    <glyph glyph-name="uni05AE" unicode="&#x5ae;" 
d="M123 1673q25 -83 25 -151q0 -92 -41.5 -147t-109.5 -55q-76 0 -118 111l-12 33q-9 26 -13 37q-15 50 -37 50q-39 0 -39 -91q0 -61 26 -140h-101q-24 65 -24 150q0 203 144 203q76 0 124 -129l11 -31q27 -71 53 -71q38 0 38 81q0 70 -33 150h107z" />
    <glyph glyph-name="uni05AF" unicode="&#x5af;" 
d="M769 1320q-93 0 -158.5 66.5t-65.5 160.5q0 95 66 161t161 66q94 0 160.5 -66t66.5 -160q0 -96 -66.5 -162t-163.5 -66zM770 1419q55 0 92.5 37t37.5 92q0 53 -37.5 90t-90.5 37t-90.5 -37t-37.5 -91q0 -53 37 -90.5t89 -37.5z" />
    <glyph glyph-name="uni05B0" unicode="&#x5b0;" 
d="M455 -321v198h197v-198h-197zM455 -642v198h197v-198h-197z" />
    <glyph glyph-name="uni05B1" unicode="&#x5b1;" 
d="M134 -321v198h197v-198h-197zM455 -321v198h197v-198h-197zM294 -642v198h198v-198h-198zM776 -321v198h197v-198h-197zM776 -642v198h197v-198h-197z" />
    <glyph glyph-name="uni05B2" unicode="&#x5b2;" 
d="M813 -321v198h197v-198h-197zM813 -642v198h197v-198h-197zM97 -272v149h592v-148z" />
    <glyph glyph-name="uni05B3" unicode="&#x5b3;" 
d="M813 -321v198h197v-198h-197zM813 -642v198h197v-198h-197zM97 -272v149h592v-148h-222v-297h-148v297z" />
    <glyph glyph-name="uni05B4" unicode="&#x5b4;" 
d="M455 -321v198h197v-198h-197z" />
    <glyph glyph-name="uni05B5" unicode="&#x5b5;" 
d="M295 -321v198h197v-198h-197zM616 -321v198h197v-198h-197z" />
    <glyph glyph-name="uni05B6" unicode="&#x5b6;" 
d="M295 -321v198h197v-198h-197zM616 -321v198h197v-198h-197zM455 -642v198h198v-198h-198z" />
    <glyph glyph-name="uni05B7" unicode="&#x5b7;" 
d="M258 -272v149h592v-148z" />
    <glyph glyph-name="uni05B8" unicode="&#x5b8;" 
d="M258 -271v148h592v-148h-222v-297h-148v297h-222z" />
    <glyph glyph-name="uni05B9" unicode="&#x5b9;" 
d="M-99 1320v197h198v-197h-198z" />
    <glyph glyph-name="uni05BB" unicode="&#x5bb;" 
d="M134 -321v198h197v-198h-197zM455 -469v198h197v-198h-197zM776 -617v198h197v-198h-197z" />
    <glyph glyph-name="uni05BC" unicode="&#x5bc;" 
d="M386 500v197h197v-197h-197z" />
    <glyph glyph-name="uni05BF" unicode="&#x5bf;" 
d="M159 1172v148h789v-148h-789z" />
    <glyph glyph-name="uni05C0" unicode="&#x5c0;" horiz-adv-x="592" 
d="M197 1197h198v-1197h-198v1197z" />
    <glyph glyph-name="uni05D0" unicode="&#x5d0;" horiz-adv-x="1342" 
d="M115 0v33q0 257 54 440.5t182 362.5l-45 43q-109 102 -197 170l236 172q235 -186 497 -494q60 104 79.5 182t19.5 214v74h277v-58q0 -338 -227 -585q164 -198 283 -414l-223 -165q-198 356 -538 700q-121 -188 -121 -574v-101h-277z" />
    <glyph glyph-name="uni05D1" unicode="&#x5d1;" horiz-adv-x="1236" 
d="M56 0l99 296h617v284q0 232 -39 276.5t-245 44.5h-373l99 296h317q301 0 402 -88q60 -51 79 -127.5t19 -265.5v-420h160l-98 -296h-1037z" />
    <glyph glyph-name="uni05D2" unicode="&#x5d2;" horiz-adv-x="952" 
d="M143 -25l-102 247q224 109 459 305l-25 159q-22 137 -64.5 186.5t-187.5 107.5l-57 23l112 218q246 -81 337 -162q60 -54 82.5 -118t54.5 -274l39 -256q43 -282 85 -411h-279q-27 107 -57 284q-148 -149 -397 -309z" />
    <glyph glyph-name="uni05D3" unicode="&#x5d3;" horiz-adv-x="1150" 
d="M622 0v901h-610l99 296h1030l-99 -296h-161v-901h-259z" />
    <glyph glyph-name="uni05D4" unicode="&#x5d4;" horiz-adv-x="1524" 
d="M234 0v642h259v-642h-259zM1104 0v580q0 232 -39.5 276.5t-244.5 44.5h-771l99 296h715q301 0 402 -88q60 -51 79 -127t19 -266v-716h-259z" />
    <glyph glyph-name="uni05D5" unicode="&#x5d5;" horiz-adv-x="763" 
d="M338 0v614q0 185 -61.5 254.5t-260.5 109.5l128 243q235 -43 338 -135q68 -61 91.5 -144t23.5 -266v-676h-259z" />
    <glyph glyph-name="uni05D6" unicode="&#x5d6;" horiz-adv-x="866" 
d="M198 0v449q0 226 131 382l-313 133l110 257l710 -302l-107 -260l-200 87q-72 -90 -72 -253v-493h-259z" />
    <glyph glyph-name="uni05D7" unicode="&#x5d7;" horiz-adv-x="1500" 
d="M205 0v901h-162l100 296h697q301 0 402 -88q60 -51 79 -127.5t19 -265.5v-716h-259v580q0 232 -39 276.5t-245 44.5h-333v-901h-259z" />
    <glyph glyph-name="uni05D8" unicode="&#x5d8;" horiz-adv-x="1331" 
d="M216 0l-143 1132l251 89l115 -925q256 0 408.5 118t152.5 315q0 215 -232 215q-62 0 -133 -20l90 279q75 19 143 19q184 0 287.5 -110.5t103.5 -306.5q0 -220 -134 -412t-364 -301q-193 -92 -545 -92z" />
    <glyph glyph-name="uni05D9" unicode="&#x5d9;" horiz-adv-x="742" 
d="M541 401h-260q70 256 70 366q0 79 -69 125t-239 80l134 249q245 -49 341.5 -134.5t96.5 -252.5q0 -105 -48 -320z" />
    <glyph glyph-name="uni05DA" unicode="&#x5da;" horiz-adv-x="1093" 
d="M662 -296v1197h-640l99 296h800v-1493h-259z" />
    <glyph glyph-name="uni05DB" unicode="&#x5db;" horiz-adv-x="1158" 
d="M52 0l98 296h559q83 191 83 325q0 158 -73 219t-263 61h-346l98 296h326q171 0 263 -30t156 -107q102 -122 102 -344q0 -177 -94 -420l-97 -296h-812z" />
    <glyph glyph-name="uni05DC" unicode="&#x5dc;" horiz-adv-x="1140" 
d="M144 -25l102 302q196 22 316 117q187 148 187 358q0 87 -61.5 118t-236.5 31h-356v616l259 87v-407h260q240 0 334.5 -69t94.5 -243q0 -330 -253 -586t-646 -324z" />
    <glyph glyph-name="uni05DD" unicode="&#x5dd;" horiz-adv-x="1476" 
d="M205 0v901h-159l99 296h671q301 0 402 -88q60 -51 79 -127.5t19 -265.5v-420l-99 -296h-1012zM465 296h592v284q0 233 -39 277t-245 44h-308v-605z" />
    <glyph glyph-name="uni05DE" unicode="&#x5de;" horiz-adv-x="1354" 
d="M52 0l145 556q40 153 40 211q0 119 -203 320l231 134q110 -92 188 -251q160 251 384 251q169 0 270 -128.5t120 -368.5l34 -428l-98 -296h-578l99 296h315l-23 307q-24 322 -211 322q-108 0 -181.5 -107.5t-140.5 -362.5l-120 -455h-271z" />
    <glyph glyph-name="uni05DF" unicode="&#x5df;" horiz-adv-x="755" 
d="M329 -296v914q0 195 -69 252q-100 84 -247 130l119 221q180 -54 318 -155q80 -59 109 -144t29 -263v-955h-259z" />
    <glyph glyph-name="uni05E0" unicode="&#x5e0;" horiz-adv-x="909" 
d="M31 0l100 296h353v389q0 158 -68 207q-91 65 -245 109l118 220q166 -41 301 -119q87 -51 120 -125t33 -221v-460l-99 -296h-613z" />
    <glyph glyph-name="uni05E1" unicode="&#x5e1;" horiz-adv-x="1425" 
d="M290 0l-113 901h-161l99 296h709q201 0 285 -15t134 -60q84 -76 84 -241q0 -220 -127 -425t-342 -330q-217 -126 -568 -126zM511 296q224 17 337 98q186 135 186 354q0 90 -63 121.5t-248 31.5h-286z" />
    <glyph glyph-name="uni05E2" unicode="&#x5e2;" horiz-adv-x="1283" 
d="M-49 -178l100 299q160 0 344 54l-215 959l248 87l209 -932q157 119 218.5 296t61.5 507v105h278v-74q0 -383 -117.5 -639t-370.5 -425q-355 -237 -756 -237z" />
    <glyph glyph-name="uni05E3" unicode="&#x5e3;" horiz-adv-x="1168" 
d="M743 -296v802q0 188 -37 239t-206 95l-192 50l-15 -46q-15 -45 -15 -69q0 -113 184 -122l-88 -261q-159 11 -251 87.5t-92 196.5q0 91 46 226l39 112l71 207l459 -111q222 -53 289 -138t67 -312v-956h-259z" />
    <glyph glyph-name="uni05E4" unicode="&#x5e4;" horiz-adv-x="1218" 
d="M32 0l89 271h670v266q0 187 -37 241.5t-192 95.5l-191 50l-15 -43q-13 -38 -13 -66q0 -97 167 -110l-69 -208q-336 31 -336 259q0 88 72 292l62 173l456 -111q222 -54 288.5 -138.5t66.5 -311.5v-389l-90 -271h-928z" />
    <glyph glyph-name="uni05E5" unicode="&#x5e5;" horiz-adv-x="1059" 
d="M314 -296v527q0 139 -11 194t-65 178l-234 532l246 86l261 -595q122 96 171.5 209t49.5 292v70h278v-49q0 -489 -437 -745v-699h-259z" />
    </font>
</defs>
</svg>
