<svg xmlns="http://www.w3.org/2000/svg" xmlns:xlink="http://www.w3.org/1999/xlink" width="296" height="116" viewBox="0 0 296 116">
    <defs>
        <path id="a" d="M.29.223h81.043V78.83H.289z"/>
        <path id="c" d="M.325.56h13.526v16.447H.325z"/>
    </defs>
    <g fill="none" fill-rule="evenodd">
        <path fill="#FFF" d="M95.227 80.134c-20.781 0-37.623-17.437-37.623-38.947S74.446 2.238 95.227 2.238c20.778 0 37.622 17.438 37.622 38.949 0 21.51-16.844 38.947-37.622 38.947m0-80.134C73.253 0 55.442 18.44 55.442 41.187c0 22.746 17.811 41.185 39.785 41.185 21.97 0 39.784-18.439 39.784-41.185C135.011 18.439 117.198 0 95.227 0M2.166 40.7h45.285v2.142H2.166v37.65H0V1.882h51.767v2.145h-49.6zM148.862 40.708h28.765c5.9 0 11.013-1.582 15.333-4.747 4.32-3.162 6.516-8.143 6.583-14.94.363-11.613-6.575-16.778-20.81-16.993h-29.871v36.68zm0 39.784h-2.167V1.883h31.52c15.598 0 23.432 5.968 23.503 19.41 0 10.716-5.502 17.454-16.503 20.215v.214c3.29.468 5.938 1.237 7.935 2.314 2.032 1.11 3.957 3.335 4.937 5.233 1.858 3.693 2.335 7.974 2.263 14.282v16.936h-2.162v-17.26c.182-6.523-.54-10.842-3.003-14.388-2.669-3.443-8.737-5.918-17.372-5.99h-28.951v37.643z"/>
        <g transform="translate(214.354 1.66)">
            <mask id="b" fill="#fff">
                <use xlink:href="#a"/>
            </mask>
            <path fill="#FFF" d="M77.748.223h3.585V78.83h-2.162V2.904h-.211L41.968 41.506H39.6L2.663 2.904h-.207v75.927H.289V.223h3.527l36.89 38.493h.211z" mask="url(#b)"/>
        </g>
        <path fill="#FFF" d="M1.085 106.55v8.111H.03V98.213h1.054v7.464h10.937v-7.464h1.059v16.448h-1.059v-8.111zM38.157 113.789v.872H26.525V98.214h11.514v.872H27.58v6.592h9.833v.871H27.58v7.24zM59.764 108.51l-3.67-9.307h-.05l-3.815 9.307h7.535zM56.62 98.213l6.763 16.448h-1.127l-2.157-5.274h-8.208l-2.18 5.274h-1.126l6.881-16.448h1.154zM75.034 98.214h1.054v15.575h9.716v.872h-10.77zM93.402 99.086v-.873h13.122v.873h-6.045v15.575h-1.054V99.086zM119.179 106.55v8.111h-1.054V98.213h1.054v7.464h10.937v-7.464h1.058v16.448h-1.058v-8.111zM156.205 98.214h1.172l-6.88 9.558v6.889h-1.06v-6.89l-6.835-9.557h1.199l6.19 8.704zM204.06 106.55v8.111h-1.053V98.213h10.747v.873h-9.693v6.59h8.73v.874zM233.148 114.18c4.465 0 7.076-3.53 7.076-7.743 0-4.218-2.611-7.743-7.076-7.743-4.483 0-7.1 3.525-7.1 7.743 0 4.213 2.617 7.743 7.1 7.743m0 .876c-5.133 0-8.153-3.803-8.153-8.619s3.02-8.619 8.153-8.619c5.11 0 8.135 3.803 8.135 8.62 0 4.815-3.025 8.618-8.135 8.618M261.345 114.18c4.465 0 7.077-3.53 7.077-7.743 0-4.218-2.612-7.743-7.077-7.743-4.483 0-7.1 3.525-7.1 7.743 0 4.213 2.617 7.743 7.1 7.743m0 .876c-5.132 0-8.153-3.803-8.153-8.619s3.02-8.619 8.153-8.619c5.11 0 8.135 3.803 8.135 8.62 0 4.815-3.025 8.618-8.135 8.618"/>
        <g transform="translate(281.836 97.654)">
            <mask id="d" fill="#fff">
                <use xlink:href="#c"/>
            </mask>
            <path fill="#FFF" d="M1.379 16.135h4.606c3.188 0 6.813-1.682 6.813-7.375 0-6.726-4.488-7.328-7.027-7.328H1.379v14.703zM.325.559H5.94c6.141 0 7.912 4.029 7.912 8.2 0 4.677-2.47 8.248-7.962 8.248H.325V.559z" mask="url(#d)"/>
        </g>
    </g>
</svg>
